<svg xmlns="http://www.w3.org/2000/svg" width="23.324" height="23.898" viewBox="0 0 23.324 23.898">
  <g id="Group_977" data-name="Group 977" transform="translate(-1231.608 -60.219)" style="isolation: isolate">
    <g id="Group_432" data-name="Group 432" transform="translate(1231.608 60.219)">
      <g id="loupe" transform="translate(0 0)">
        <g id="Group_430" data-name="Group 430">
          <path id="Path_802" data-name="Path 802" d="M23.039,22.2l-6.633-6.8a9.558,9.558,0,0,0,2.058-5.943A9.359,9.359,0,0,0,9.232,0,9.359,9.359,0,0,0,0,9.463a9.359,9.359,0,0,0,9.232,9.46,9.053,9.053,0,0,0,5.8-2.109l6.633,6.8a.955.955,0,0,0,1.374,0A1.012,1.012,0,0,0,23.039,22.2ZM9.232,16.931A7.388,7.388,0,0,1,1.944,9.463,7.388,7.388,0,0,1,9.232,1.994a7.388,7.388,0,0,1,7.289,7.468A7.388,7.388,0,0,1,9.232,16.931Z" transform="translate(0 -0.003)" fill="#219ebc"/>
        </g>
      </g>
    </g>
  </g>
</svg>
