<svg xmlns="http://www.w3.org/2000/svg" width="22.235" height="22.874" viewBox="0 0 22.235 22.874">
  <g id="like_1_" data-name="like (1)" transform="translate(-6.675)">
    <path id="Path_4700" data-name="Path 4700" d="M28.243,15.551a2.841,2.841,0,0,0,.665-1.9,2.917,2.917,0,0,0-.622-1.645,2.556,2.556,0,0,0-.607-2.942,5.282,5.282,0,0,0-3.841-.918,15.011,15.011,0,0,0-2.353.3h0c-.239.043-.493.1-.751.153a8.345,8.345,0,0,1,.6-2.779c.67-2.038.631-3.6-.124-4.64A3.041,3.041,0,0,0,18.767,0a1.2,1.2,0,0,0-.923.421,3.218,3.218,0,0,0-.4,2.282c-.631,1.693-2.4,5.845-3.9,7a.512.512,0,0,0-.077.067,5.138,5.138,0,0,0-.938,1.406,1.974,1.974,0,0,0-.947-.239H8.665a1.991,1.991,0,0,0-1.99,1.99V20.7a1.991,1.991,0,0,0,1.99,1.99h2.918a1.986,1.986,0,0,0,1.148-.364l1.124.134a48.16,48.16,0,0,0,6.376.349c.569.043,1.1.067,1.6.067a10.732,10.732,0,0,0,2.224-.2,4.159,4.159,0,0,0,2.97-1.846,2.928,2.928,0,0,0,.325-1.832,3.051,3.051,0,0,0,1.086-2.483A3.231,3.231,0,0,0,28.243,15.551ZM8.665,21.4a.7.7,0,0,1-.7-.7V12.92a.7.7,0,0,1,.7-.7h2.918a.7.7,0,0,1,.7.7v7.773a.7.7,0,0,1-.7.7H8.665Zm18.354-6.4a.643.643,0,0,0-.086.78,1.99,1.99,0,0,1,.22.8,1.914,1.914,0,0,1-.9,1.655.652.652,0,0,0-.22.737A1.689,1.689,0,0,1,25.9,20.2,2.992,2.992,0,0,1,23.79,21.41a12.6,12.6,0,0,1-3.487.105h-.067a47.215,47.215,0,0,1-6.218-.34h0l-.483-.057a2.027,2.027,0,0,0,.043-.421V12.92a2.023,2.023,0,0,0-.091-.593,4,4,0,0,1,.89-1.641c2.148-1.7,4.248-7.448,4.338-7.7a.606.606,0,0,0,.029-.32A2.989,2.989,0,0,1,18.8,1.282a1.716,1.716,0,0,1,1.349.646c.488.674.469,1.88-.057,3.477-.8,2.435-.871,3.717-.234,4.281a1.043,1.043,0,0,0,1.043.187c.292-.067.569-.124.832-.167l.062-.014c1.468-.32,4.1-.517,5.013.316a1.376,1.376,0,0,1,.163,1.746.64.64,0,0,0,.115.832,1.812,1.812,0,0,1,.531,1.115A1.776,1.776,0,0,1,27.018,14.991Z"/>
  </g>
</svg>
