<svg xmlns="http://www.w3.org/2000/svg" width="57.165" height="67.455" viewBox="0 0 57.165 67.455">
  <g id="badge" transform="translate(-39.053)" opacity="0.6" style="isolation: isolate">
    <g id="Group_7" data-name="Group 7" transform="translate(57.141 21.346)">
      <g id="Group_6" data-name="Group 6">
        <path id="Path_6" data-name="Path 6" d="M197.336,168.084l-6.96-.063-3.534-6-3.534,6-6.96.063,3.426,6.059-3.426,6.059,6.96.063,3.534,6,3.534-6,6.96-.063-3.426-6.059Z" transform="translate(-176.348 -162.025)" fill="#68dbe5"/>
      </g>
    </g>
    <g id="Group_9" data-name="Group 9" transform="translate(39.053)">
      <g id="Group_8" data-name="Group 8">
        <path id="Path_7" data-name="Path 7" d="M94.817,28.326a30.545,30.545,0,0,1-.236-18.6l1.285-4.2L90.345,0Q78.99,6.556,67.635,0,56.281,6.556,44.926,0L39.4,5.521l1.285,4.2a30.545,30.545,0,0,1-.236,18.6A27.143,27.143,0,0,0,54.859,61.579l12.776,5.876,12.776-5.876A27.143,27.143,0,0,0,94.817,28.326ZM84.87,43.414l-11.43.1-5.8,9.848-5.8-9.847-11.43-.1,5.626-9.95L50.4,23.514l11.43-.1,5.8-9.848,5.8,9.847,11.43.1-5.626,9.95Z" transform="translate(-39.053)" fill="#68dbe5"/>
      </g>
    </g>
  </g>
</svg>
