<svg xmlns="http://www.w3.org/2000/svg" width="68.893" height="68.893" viewBox="0 0 68.893 68.893">
  <g id="cool" style="isolation: isolate">
    <path id="Path_4119" data-name="Path 4119" d="M58.8,10.089A34.446,34.446,0,0,0,10.089,58.8,34.446,34.446,0,0,0,58.8,10.089Z" transform="translate(0)" fill="#ffda2d"/>
    <path id="Path_4120" data-name="Path 4120" d="M280.345,10.089A34.221,34.221,0,0,0,255.988,0V68.893a34.447,34.447,0,0,0,24.357-58.8Z" transform="translate(-221.542)" fill="#febf01"/>
    <g id="Group_614" data-name="Group 614" transform="translate(18.312 46.078)">
      <path id="Path_4121" data-name="Path 4121" d="M152.219,352.818a20.266,20.266,0,0,1-16.135-7.923l3.193-2.47a16.353,16.353,0,0,0,25.884,0l3.193,2.47A20.267,20.267,0,0,1,152.219,352.818Z" transform="translate(-136.084 -342.425)" fill="#606060"/>
    </g>
    <path id="Path_4122" data-name="Path 4122" d="M82.935,161.1H75.22l-23.651-1.62,1.607,10.9a9.883,9.883,0,0,0,9.778,8.442h4.332a9.894,9.894,0,0,0,9.883-9.883v-3.807h3.817v3.807a9.894,9.894,0,0,0,9.883,9.883H95.2a9.883,9.883,0,0,0,9.778-8.442l1.607-10.9Z" transform="translate(-44.63 -138.022)" fill="#404040"/>
    <path id="Path_4123" data-name="Path 4123" d="M272.123,344.894l-3.193-2.47a16.257,16.257,0,0,1-12.942,6.357v4.037A20.267,20.267,0,0,0,272.123,344.894Z" transform="translate(-221.542 -296.346)" fill="#404040"/>
    <path id="Path_4124" data-name="Path 4124" d="M259.847,161.1h-3.859v4.037h1.91v3.807a9.894,9.894,0,0,0,9.883,9.883h4.332a9.883,9.883,0,0,0,9.778-8.442l1.607-10.9Z" transform="translate(-221.542 -138.023)" fill="#242424"/>
  </g>
</svg>
