<svg xmlns="http://www.w3.org/2000/svg" width="54.201" height="73.835" viewBox="0 0 54.201 73.835">
  <g id="badge-with-a-star" transform="translate(-124.984)" opacity="0.6" style="isolation: isolate">
    <g id="Group_5" data-name="Group 5" transform="translate(124.984 0)">
      <path id="Path_3" data-name="Path 3" d="M276.172,610.093h-.141l-3.111-.118-2.309,2.089a3.924,3.924,0,0,1-2.631,1.013,3.847,3.847,0,0,1-1.485-.291l-2.883-1.178-2.883,1.178a3.847,3.847,0,0,1-1.485.291,3.924,3.924,0,0,1-2.631-1.013l-2.309-2.089-3.11.118h-.141a3.911,3.911,0,0,1-3.472-2.1l-1.453-2.757-.118-.039v24.326a1.96,1.96,0,0,0,2.843,1.751L262.74,624.3a2,2,0,0,1,1.767,0l13.863,6.983a1.96,1.96,0,0,0,2.843-1.752V605.207l-.118.039L279.644,608A3.911,3.911,0,0,1,276.172,610.093Z" transform="translate(-236.504 -557.663)" fill="#71e098"/>
      <path id="Path_4" data-name="Path 4" d="M178.885,27.774a1.966,1.966,0,0,0,0-2.089l-1.657-2.639a1.972,1.972,0,0,1-.259-1.453l.66-3.048a1.964,1.964,0,0,0-.715-1.964l-2.459-1.909a1.968,1.968,0,0,1-.738-1.28l-.432-3.087a1.977,1.977,0,0,0-1.343-1.6l-2.961-.958a1.966,1.966,0,0,1-1.131-.95L166.4,4.037a1.964,1.964,0,0,0-1.736-1.045h-.071l-3.111.118h-.071a1.957,1.957,0,0,1-1.32-.511L157.779.511A1.986,1.986,0,0,0,156.46,0a1.852,1.852,0,0,0-.738.149l-2.883,1.178a2,2,0,0,1-.738.149,1.852,1.852,0,0,1-.738-.149L148.479.149A2.064,2.064,0,0,0,147.741,0a1.948,1.948,0,0,0-1.32.511L144.112,2.6a1.957,1.957,0,0,1-1.32.511h-.071l-3.11-.118h-.071A1.964,1.964,0,0,0,137.8,4.037l-1.453,2.757a1.938,1.938,0,0,1-1.131.95L132.26,8.7a1.966,1.966,0,0,0-1.343,1.6l-.432,3.087a1.969,1.969,0,0,1-.738,1.28l-2.49,1.909a1.964,1.964,0,0,0-.715,1.964l.66,3.048a1.929,1.929,0,0,1-.259,1.453l-1.657,2.639a1.966,1.966,0,0,0,0,2.089l1.657,2.639a1.972,1.972,0,0,1,.259,1.453l-.66,3.048a1.964,1.964,0,0,0,.715,1.964l2.459,1.909a1.969,1.969,0,0,1,.738,1.28l.432,3.087a1.977,1.977,0,0,0,1.343,1.6l2.246.723.723.236a1.966,1.966,0,0,1,1.131.95l1.453,2.757a1.964,1.964,0,0,0,1.736,1.045h.071l3.11-.118h.071a1.957,1.957,0,0,1,1.32.511l2.309,2.089a1.986,1.986,0,0,0,1.32.511,1.852,1.852,0,0,0,.738-.149l2.883-1.178a2,2,0,0,1,.738-.149,1.854,1.854,0,0,1,.738.149L155.7,53.31a2.062,2.062,0,0,0,.738.149,1.947,1.947,0,0,0,1.32-.511l2.309-2.089a1.957,1.957,0,0,1,1.32-.511h.071l3.111.118h.071a1.964,1.964,0,0,0,1.736-1.045l1.453-2.757a1.938,1.938,0,0,1,1.131-.95l.723-.236,2.246-.723a1.966,1.966,0,0,0,1.343-1.6l.432-3.087a1.968,1.968,0,0,1,.738-1.28l2.459-1.909a1.964,1.964,0,0,0,.715-1.964l-.66-3.048a1.93,1.93,0,0,1,.259-1.453Zm-7.8,6.983a21.349,21.349,0,0,1-1.383,2.7,20.615,20.615,0,0,1-32.188,3.849,20.646,20.646,0,0,1-3.032-3.849,19.885,19.885,0,0,1-1.382-2.7,20.611,20.611,0,1,1,37.985,0Z" transform="translate(-124.984 0)" fill="#71e098"/>
      <path id="Path_5" data-name="Path 5" d="M255.771,107.8a18.264,18.264,0,1,0,18.262,18.262A18.263,18.263,0,0,0,255.771,107.8Zm8.13,26.722a1.961,1.961,0,0,1-2.891,2.113l-5.239-2.969-5.247,2.969a1.965,1.965,0,0,1-2.891-2.113l1.257-5.922-4.1-3.7-.456-.416a1.966,1.966,0,0,1,1.076-3.409l5.97-.73,2.6-5.569a1.965,1.965,0,0,1,3.558,0l2.6,5.569,5.97.73a1.964,1.964,0,0,1,1.076,3.409l-.456.416-4.1,3.7Z" transform="translate(-228.671 -99.333)" fill="#71e098"/>
    </g>
  </g>
</svg>
