<svg xmlns="http://www.w3.org/2000/svg" width="75.612" height="91" viewBox="0 0 75.612 91">
  <g id="fire_1_" data-name="fire (1)" transform="translate(0 0)" style="isolation: isolate">
    <path id="Path_4125" data-name="Path 4125" d="M48.521,44.38a37.736,37.736,0,0,0,11.342,9.752S54.3,8.01,90.536,0c-9.284,33.436,11.809,42.865,19.5,25.2,12.84,16.823,3.091,31.5,3.091,31.5,5.265.744,9.687-4.9,9.687-4.9.039.7.062,1.4.062,2.1,0,20.49-16.926,37.1-37.806,37.1S47.262,74.39,47.262,53.9A36.5,36.5,0,0,1,48.521,44.38Z" transform="translate(-47.262 0)" fill="#ff6536"/>
    <path id="Path_4126" data-name="Path 4126" d="M291.694,51.8s-4.182,5.644-9.161,4.9c0,0,9.219-14.677-2.923-31.5-4.464,10.846-13.707,11.478-18.394,2.093-2.542-5.058-3.433-14.387-.044-27.293A37.406,37.406,0,0,0,256,1.6V91c19.745,0,35.752-16.61,35.752-37.1C291.752,53.195,291.731,52.5,291.694,51.8Z" transform="translate(-216.14 0)" fill="#ff421d"/>
    <path id="Path_4127" data-name="Path 4127" d="M164.456,299.247a15.679,15.679,0,1,0,26.151-11.671c-6.062,8.236-14.7-4.257-7.969-13.381C182.638,274.2,164.456,276.475,164.456,299.247Z" transform="translate(-142.329 -223.927)" fill="#fbbf00"/>
    <path id="Path_4128" data-name="Path 4128" d="M271.68,299.247a15.64,15.64,0,0,0-5.208-11.671c-6.062,8.236-14.7-4.257-7.969-13.381a15.772,15.772,0,0,0-2.5.6v40.128A15.68,15.68,0,0,0,271.68,299.247Z" transform="translate(-217.617 -223.927)" fill="#ffa900"/>
  </g>
</svg>
