<svg xmlns="http://www.w3.org/2000/svg" width="49.743" height="43.486" viewBox="0 0 49.743 43.486">
  <g id="gem" style="isolation: isolate">
    <path id="Path_392" data-name="Path 392" d="M36.548,32.2H13.2a1.519,1.519,0,0,0-1.316.76L.2,53.186a1.519,1.519,0,0,0,0,1.519L11.88,74.929a1.519,1.519,0,0,0,1.316.76H36.548a1.519,1.519,0,0,0,1.316-.76L49.54,54.705a1.519,1.519,0,0,0,0-1.519L37.863,32.963A1.519,1.519,0,0,0,36.548,32.2Z" transform="translate(0 -32.203)" fill="#ffd45d"/>
    <path id="Path_393" data-name="Path 393" d="M350.174,256h-9.956l-7.458,12.917,4.978,8.622a1.517,1.517,0,0,0,.556-.556l11.676-20.224A1.517,1.517,0,0,0,350.174,256Z" transform="translate(-300.431 -234.257)" fill="#ff6500"/>
    <path id="Path_394" data-name="Path 394" d="M147.893,388.953H132.978L128,397.575a1.519,1.519,0,0,0,.76.2h23.352a1.519,1.519,0,0,0,.76-.2Z" transform="translate(-115.564 -354.293)" fill="#ff9416"/>
    <path id="Path_395" data-name="Path 395" d="M17.414,268.917,9.956,256H0a1.518,1.518,0,0,0,.2.76L11.88,276.983a1.518,1.518,0,0,0,.556.556Z" transform="translate(0 -234.257)" fill="#ffc13f"/>
    <path id="Path_396" data-name="Path 396" d="M17.414,42.919,12.436,34.3a1.518,1.518,0,0,0-.556.556L.2,55.077a1.517,1.517,0,0,0-.2.759H9.956Z" transform="translate(0 -34.093)" fill="#ffd45d"/>
    <path id="Path_397" data-name="Path 397" d="M132.978,41.028h14.915l4.978-8.622a1.518,1.518,0,0,0-.76-.2H128.76a1.518,1.518,0,0,0-.76.2Z" transform="translate(-115.564 -32.202)" fill="#ffc13f"/>
    <path id="Path_398" data-name="Path 398" d="M332.76,42.919l7.458,12.917h9.956a1.517,1.517,0,0,0-.2-.759L338.294,34.853a1.518,1.518,0,0,0-.556-.556Z" transform="translate(-300.431 -34.093)" fill="#ff9416"/>
    <path id="Path_399" data-name="Path 399" d="M124.852,123.047H109.937l-7.458,12.917,7.458,12.917h14.915l7.458-12.917Z" transform="translate(-92.523 -114.221)" fill="#ff7b05"/>
    <path id="Path_400" data-name="Path 400" d="M158.444,105l.951-.71a.255.255,0,0,1,.38.32l-.539,1.057a.255.255,0,0,0,.08.324l.969.685a.255.255,0,0,1-.187.46l-1.172-.186a.255.255,0,0,0-.284.176l-.352,1.133a.255.255,0,0,1-.5-.036l-.185-1.172a.255.255,0,0,0-.255-.215l-1.187.016a.255.255,0,0,1-.119-.482l1.058-.538a.255.255,0,0,0,.126-.309l-.382-1.124a.255.255,0,0,1,.422-.262l.839.84A.255.255,0,0,0,158.444,105Z" transform="translate(-140.761 -97.082)" fill="#fff"/>
  </g>
</svg>
