<svg xmlns="http://www.w3.org/2000/svg" width="39.598" height="39.241" viewBox="0 0 39.598 39.241">
  <g id="gmail_1_" data-name="gmail (1)" style="isolation: isolate">
    <g id="Group_709" data-name="Group 709" transform="translate(0.357 0)">
      <ellipse id="Ellipse_532" data-name="Ellipse 532" cx="19.621" cy="19.621" rx="19.621" ry="19.621" fill="#ece5dd"/>
      <ellipse id="Ellipse_533" data-name="Ellipse 533" cx="19.621" cy="19.621" rx="19.621" ry="19.621" fill="#ece5dd"/>
    </g>
    <path id="Path_4152" data-name="Path 4152" d="M84.445,87.674A19.56,19.56,0,0,0,78.6,73.7L67.384,82.555l-3.412.853-11.09-7.678-2.847-.949q-.568.652-1.078,1.353L73.5,105.277A19.62,19.62,0,0,0,84.445,87.674Z" transform="translate(-45.204 -68.41)" fill="#d9cbbd"/>
    <path id="Path_4153" data-name="Path 4153" d="M449.822,116.119a19.532,19.532,0,0,0-3.8-11.611l-1.357,1.065V129.38A19.55,19.55,0,0,0,449.822,116.119Z" transform="translate(-410.581 -96.855)" fill="#ac2201"/>
    <path id="Path_4154" data-name="Path 4154" d="M77.117,56.273,65.33,65.189a.8.8,0,0,1-.97,0L52.572,56.273a19.734,19.734,0,0,0-3.594,3.766L64.349,72.1a.8.8,0,0,0,.992,0l15.371-12.06A19.732,19.732,0,0,0,77.117,56.273Z" transform="translate(-45.224 -52.317)" fill="#cd2900"/>
    <path id="Path_4155" data-name="Path 4155" d="M5.161,129.38V105.573L3.8,104.508A19.619,19.619,0,0,0,5.161,129.38Z" transform="translate(0 -96.855)" fill="#ac2201"/>
  </g>
</svg>
