<svg xmlns="http://www.w3.org/2000/svg" width="854.365" height="861.132" viewBox="0 0 854.365 861.132">
  <g id="Group_2420" data-name="Group 2420" transform="translate(-34.67 -18.679)">
    <g id="Layer_5" data-name="Layer 5" transform="matrix(0.996, -0.087, 0.087, 0.996, 323.914, 596.807)" style="isolation: isolate">
      <path id="Path_6408" data-name="Path 6408" d="M231.729,17.845A59.773,59.773,0,0,0,188.935,0H60.207a60.013,60.013,0,1,0,51.023,91.738,14.207,14.207,0,0,1,12.041-7.1h2.6a14.207,14.207,0,0,1,12.041,7.1,60.639,60.639,0,0,0,51.11,28.327h1.126a60.639,60.639,0,0,0,58.906-59.426,59.513,59.513,0,0,0-17.325-42.794ZM84.463,72.594H72.595V84.029a12.474,12.474,0,1,1-24.862,0V72.594H36.3a12.474,12.474,0,1,1,0-24.949H47.733V36.21a12.474,12.474,0,1,1,24.862,0V47.645H84.116a12.474,12.474,0,0,1,0,24.949ZM189.282,23.736a12.561,12.561,0,1,1-.346,0ZM165.372,72.594a12.3,12.3,0,1,0-.346,0ZM189.282,96.5a12.915,12.915,0,1,0-.347,0Zm24-23.909a12.217,12.217,0,1,0-.347,0Z" fill="#219ebc"/>
    </g>
    <text id="Exams_are_Fun_Easy" data-name="Exams are Fun &amp; Easy" transform="translate(302.745 872.811)" fill="#333" font-size="34" font-family="Lato-Regular, Lato"><tspan x="0" y="0">Exams are Fun &amp; Easy</tspan></text>
    <g id="ant" transform="translate(328.674 227.604)" style="isolation: isolate">
      <g id="Group_1506" data-name="Group 1506" transform="translate(117.194 258.747)">
        <g id="Group_1483" data-name="Group 1483" transform="translate(4.822 4.383)">
          <g id="Group_1482" data-name="Group 1482">
            <g id="Group_1481" data-name="Group 1481">
              <path id="Path_6304" data-name="Path 6304" d="M497.744,531.686c-1.768.018-3.643,0-5.517-.036-.322-.018-.643-.018-.982-.036-4.642-.143-9.284-.482-12.783-.911-.839-.09-1.607-.2-2.3-.286a.108.108,0,0,0-.071-.017,11.172,11.172,0,0,1-3.5-.857c-3-2.429-3.088-31.8-2.428-45.615.143-3.2-17.371-15.872-28.422-27.8l24.923-15.925c6.087,10.48,20.067,30.386,19.6,38.3-.232,4.124-1.606,25.423-2,38.277,0,0,.5.036,8.676,1.232a24.3,24.3,0,0,1,3.553.767l.321.107c.286.089.572.179.84.286a17.36,17.36,0,0,1,3.053,1.392c.553.34,1.072.679,1.553,1.036a.38.38,0,0,0,.107.071c.214.179.429.339.625.517.232.2.446.393.643.589l.571.571c.089.107.2.215.267.3a2.181,2.181,0,0,1,.321.394,5.631,5.631,0,0,1,.59.8,4.371,4.371,0,0,1,.339.536,8.861,8.861,0,0,1,.839,1.8C507.491,530.1,504.331,531.579,497.744,531.686Z" transform="translate(-441.738 -440.206)" fill="#e25316"/>
            </g>
          </g>
        </g>
        <g id="Group_1486" data-name="Group 1486" transform="translate(46.979 80.973)">
          <g id="Group_1485" data-name="Group 1485">
            <g id="Group_1484" data-name="Group 1484">
              <path id="Path_6305" data-name="Path 6305" d="M511.3,547.167a2.432,2.432,0,0,0,.642-2.715,9.494,9.494,0,0,0-.839-1.839,4.3,4.3,0,0,0-.339-.535,7.113,7.113,0,0,0-.589-.822,2.158,2.158,0,0,0-.322-.392c-.071-.089-.178-.2-.267-.3l-.572-.59q-.294-.3-.643-.589c-.2-.179-.41-.358-.624-.536a.388.388,0,0,1-.107-.071c-.483-.357-1-.7-1.553-1.053a17.262,17.262,0,0,0-3.053-1.411c-.268-.106-.554-.2-.84-.285l-.321-.107a22.082,22.082,0,0,0-3.553-.785c-8.177-1.215-5.106-1.25-5.106-1.25.018-.393.018-.768.036-1.178.571.089,2.428.339,8.444,1.214a24.354,24.354,0,0,1,3.553.767l.321.107c.286.089.571.179.84.286a17.276,17.276,0,0,1,3.053,1.392c.553.34,1.071.679,1.553,1.036a.373.373,0,0,0,.107.071c.214.179.429.34.625.518q.347.295.643.589l.571.571c.09.106.2.215.267.3a2.187,2.187,0,0,1,.322.394,5.74,5.74,0,0,1,.589.8,4.381,4.381,0,0,1,.339.536,8.855,8.855,0,0,1,.839,1.8C515.981,545.168,514.57,546.524,511.3,547.167Z" transform="translate(-492.652 -532.706)" fill="#f67815"/>
            </g>
          </g>
        </g>
        <g id="Group_1489" data-name="Group 1489" transform="translate(5.018 20.54)">
          <g id="Group_1488" data-name="Group 1488">
            <g id="Group_1487" data-name="Group 1487">
              <path id="Path_6306" data-name="Path 6306" d="M470.183,487.178c-1.982-4.2-17.907-16.157-28.208-27.441l.018-.017C452.937,471.449,469.969,483.839,470.183,487.178Z" transform="translate(-441.975 -459.72)" fill="#f5720e"/>
            </g>
          </g>
        </g>
        <g id="Group_1492" data-name="Group 1492" transform="translate(47.348 37.715)">
          <g id="Group_1491" data-name="Group 1491" transform="translate(0)">
            <g id="Group_1490" data-name="Group 1490">
              <path id="Path_6307" data-name="Path 6307" d="M493.33,523.72c-.2-.018-.232-.018-.232-.018.393-12.854,1.767-34.153,2-38.277a14.534,14.534,0,0,0-.893-4.963,15.031,15.031,0,0,1,1.089,5.553C495.061,490.086,493.758,510.581,493.33,523.72Z" transform="translate(-493.098 -480.462)" fill="#f5720e"/>
            </g>
          </g>
        </g>
        <g id="Group_1495" data-name="Group 1495" transform="translate(3.903 3.895)">
          <g id="Group_1494" data-name="Group 1494">
            <g id="Group_1493" data-name="Group 1493">
              <path id="Path_6308" data-name="Path 6308" d="M474.979,481.274c-.661,13.819-3,46.58,0,49.025a11.147,11.147,0,0,1-3.5-.857c-3-2.428-3.089-31.8-2.429-45.615.143-3.2-17.371-15.871-28.422-27.8l25.82-16.412c.715,1.213,1.518,2.571,2.41,4.016l-14.251,9.7C465.66,465.26,475.121,478.1,474.979,481.274Z" transform="translate(-440.629 -439.617)" fill="#d34319"/>
            </g>
          </g>
        </g>
        <g id="Group_1498" data-name="Group 1498">
          <g id="Group_1497" data-name="Group 1497">
            <g id="Group_1496" data-name="Group 1496">
              <path id="Path_6309" data-name="Path 6309" d="M465.661,439.3c6.078,10.484,20.056,30.388,19.609,38.29-.234,4.136-1.621,25.422-2.015,38.288,0,0,.5.037,8.692,1.216,8.964,1.292,12.682,6.291,13.613,9.193s-2.23,4.386-8.828,4.483c-.565.008-1.143.012-1.724.012-10.12,0-22.272-1.206-23.422-2.139-3.006-2.443-3.09-31.81-2.431-45.621.151-3.191-17.364-15.87-28.413-27.806L465.661,439.3m1.067-4.385-2.747,1.754-24.919,15.915-3.147,2.011,2.537,2.741c5.08,5.487,11.345,10.994,16.872,15.853,4.3,3.784,9.615,8.452,10.691,10.184-.3,6.649-.454,17.354-.137,26.827.614,18.325,2.5,19.854,3.741,20.866,3.234,2.627,25.172,2.839,25.391,2.839.6,0,1.189-.005,1.771-.013,5.87-.085,9.386-1.213,11.062-3.546a5.5,5.5,0,0,0,.69-5.01c-1.464-4.564-6.472-9.936-16.139-11.329-1.981-.286-4.191-.6-5.92-.844.391-10.406,1.255-24.543,1.689-31.652.1-1.7.184-3,.226-3.743.371-6.58-6.275-17.811-15-31.811-1.89-3.031-3.674-5.895-5.024-8.221l-1.634-2.819Z" transform="translate(-435.915 -434.913)" fill="#fff"/>
            </g>
          </g>
        </g>
        <g id="Group_1502" data-name="Group 1502" transform="translate(45.407 78.263)">
          <g id="Group_1501" data-name="Group 1501" transform="translate(0)">
            <g id="Group_1500" data-name="Group 1500">
              <g id="Group_1499" data-name="Group 1499">
                <path id="Path_6310" data-name="Path 6310" d="M490.754,535.067a13.614,13.614,0,0,1,1.873-3.084,9.949,9.949,0,0,1,3-2.55l.932,2.979A10.12,10.12,0,0,0,490.754,535.067Z" transform="translate(-490.754 -529.433)" fill="#fff"/>
              </g>
            </g>
          </g>
        </g>
        <g id="Group_1505" data-name="Group 1505" transform="translate(29.062 44.076)">
          <g id="Group_1504" data-name="Group 1504" transform="translate(0)">
            <g id="Group_1503" data-name="Group 1503">
              <path id="Path_6311" data-name="Path 6311" d="M472.116,488.145a26.184,26.184,0,0,0,3.619,3.407,9.693,9.693,0,0,0,4.472,2.15,10.062,10.062,0,0,1-4.9-1.5,27.334,27.334,0,0,1-4.3-2.957Z" transform="translate(-471.013 -488.145)" fill="#fff"/>
            </g>
          </g>
        </g>
      </g>
      <g id="Group_1519" data-name="Group 1519" transform="translate(42.006 192.921)">
        <g id="Group_1509" data-name="Group 1509" transform="translate(3.123 3.121)">
          <g id="Group_1508" data-name="Group 1508">
            <g id="Group_1507" data-name="Group 1507">
              <path id="Path_6312" data-name="Path 6312" d="M466.038,405.838c3.45,24.022-19.923,47.255-52.205,51.891s-61.248-11.078-64.7-35.1,29.011-58.28,61.294-62.916S462.587,381.816,466.038,405.838Z" transform="translate(-348.882 -359.184)" fill="#e25316"/>
            </g>
          </g>
        </g>
        <g id="Group_1512" data-name="Group 1512" transform="translate(5.543 22.201)">
          <g id="Group_1511" data-name="Group 1511">
            <g id="Group_1510" data-name="Group 1510">
              <path id="Path_6313" data-name="Path 6313" d="M414.345,461.692c-28.6,4.107-54.578-7.749-62.541-27.19,13.444,13.532,38.492,17.567,62.879,8.5,30.119-11.212,47.972-38.224,40.366-60.772a60.911,60.911,0,0,1,11.5,27.565C469.992,433.822,446.623,457.05,414.345,461.692Z" transform="translate(-351.804 -382.227)" fill="#d34319"/>
            </g>
          </g>
        </g>
        <g id="Group_1515" data-name="Group 1515" transform="translate(3.151 3.123)">
          <g id="Group_1514" data-name="Group 1514">
            <g id="Group_1513" data-name="Group 1513">
              <path id="Path_6314" data-name="Path 6314" d="M437.128,363.607a68.458,68.458,0,0,0-12.908.25c-34.261,3.785-70.038,31.35-75.305,54.381.642-23.62,31.154-54.167,61.522-58.523A45.184,45.184,0,0,1,437.128,363.607Z" transform="translate(-348.915 -359.186)" fill="#f67815"/>
            </g>
          </g>
        </g>
        <g id="Group_1518" data-name="Group 1518">
          <g id="Group_1517" data-name="Group 1517">
            <g id="Group_1516" data-name="Group 1516">
              <path id="Path_6315" data-name="Path 6315" d="M417.024,358.536c28.006,0,45.18,24.484,48.365,46.654,3.449,24.023-19.923,47.255-52.2,51.891a79.2,79.2,0,0,1-11.256.811c-27.51,0-50.4-14.723-53.443-35.911-3.45-24.022,29.011-58.279,61.294-62.916a50.909,50.909,0,0,1,7.245-.528m0-3.122h0a54.252,54.252,0,0,0-7.688.56c-33.644,4.832-67.706,40.23-63.94,66.45,3.212,22.36,26.987,38.589,56.533,38.589a82.688,82.688,0,0,0,11.7-.842c33.934-4.874,58.54-29.737,54.851-55.425-3.521-24.515-22.325-49.332-51.452-49.332Z" transform="translate(-345.109 -355.414)" fill="#fff"/>
            </g>
          </g>
        </g>
      </g>
      <g id="Group_1556" data-name="Group 1556" transform="translate(188.317 197.336)">
        <g id="Group_1522" data-name="Group 1522" transform="translate(3.124 1.098)">
          <g id="Group_1521" data-name="Group 1521">
            <g id="Group_1520" data-name="Group 1520">
              <path id="Path_6316" data-name="Path 6316" d="M530.257,375.994s14.71,22.433,28.752,24.265c15.384,2.007,29.436-3.414,29.436-3.414s-1.8-4.943.378-7.762c2.869-3.723,9.171-4.7,9.171-4.7s-2.8-10,5.2-16.348c8.9-7.059,16.219-6.943,18.291-4.3s-.555,8.462-4.473,11.057-8.435,7.457-9.309,9.705c0,0,11-.6,13.474,5.959s-5.648,7.382-10.23,15.425S602.882,418,594.222,420.125c-7.22,1.774-28.848-.55-38.812-3.724-7.429-2.367-26.316-18.13-29.14-25.539S530.257,375.994,530.257,375.994Z" transform="translate(-525.584 -362.072)" fill="#e25316"/>
            </g>
          </g>
        </g>
        <g id="Group_1525" data-name="Group 1525" transform="translate(2.306 19.757)">
          <g id="Group_1524" data-name="Group 1524">
            <g id="Group_1523" data-name="Group 1523">
              <path id="Path_6317" data-name="Path 6317" d="M534.4,384.607a2.721,2.721,0,0,1,1.747,2.963c-.095,3.547-1.7,9.936,1.9,14.19,4.179,4.934,10.632,11.264,17.208,14.754a76.917,76.917,0,0,0,27.767,8.014l-27.045-1.937-16.727-9.78-8.647-9.82-6-6.419Z" transform="translate(-524.596 -384.607)" fill="#d34319"/>
            </g>
          </g>
        </g>
        <g id="Group_1528" data-name="Group 1528" transform="translate(83.501 2.557)">
          <g id="Group_1527" data-name="Group 1527" transform="translate(0)">
            <g id="Group_1526" data-name="Group 1526">
              <path id="Path_6318" data-name="Path 6318" d="M633.36,364.4s5.365,2.619,2.344,5.354-10.529,6.986-13.048,11.281l4.5,1.368,11.871-8.972,1.69-4.482-2.711-5.114Z" transform="translate(-622.657 -363.834)" fill="#f67815"/>
            </g>
          </g>
        </g>
        <g id="Group_1531" data-name="Group 1531" transform="translate(63.691 50.83)">
          <g id="Group_1530" data-name="Group 1530" transform="translate(0)">
            <g id="Group_1529" data-name="Group 1529">
              <path id="Path_6319" data-name="Path 6319" d="M600.479,422.134s1.454,4.862,4.758,5.536c3.282.67,10.319-1.392,13.758-4.565l-2.638,4.271-9.346,4.483h-5.4l-2.885-6.534Z" transform="translate(-598.732 -422.134)" fill="#ef5413"/>
            </g>
          </g>
        </g>
        <g id="Group_1534" data-name="Group 1534" transform="translate(77.926 21.865)">
          <g id="Group_1533" data-name="Group 1533" transform="translate(0)">
            <g id="Group_1532" data-name="Group 1532">
              <path id="Path_6320" data-name="Path 6320" d="M615.924,388.568s11.615,1.691,15.774,5.195c1.387,1.167,3.476,3.617.457,7.236-2.075,2.486-5.047,5.4-5.784,8.034a21.3,21.3,0,0,1-2.09,4.824l6.963-7.217,8.319-7.521-1.368-5.755-6.5-3.7-11.852-2.507Z" transform="translate(-615.924 -387.153)" fill="#f67815"/>
            </g>
          </g>
        </g>
        <g id="Group_1537" data-name="Group 1537" transform="translate(73.359 6.596)">
          <g id="Group_1536" data-name="Group 1536" transform="translate(0)">
            <g id="Group_1535" data-name="Group 1535">
              <path id="Path_6321" data-name="Path 6321" d="M620.55,368.712s-5.185,5.64-6.1,12.677l-.514,1.453-3.533-.627,2.336-9.4Z" transform="translate(-610.408 -368.712)" fill="#ef5413"/>
            </g>
          </g>
        </g>
        <g id="Group_1540" data-name="Group 1540">
          <g id="Group_1539" data-name="Group 1539">
            <g id="Group_1538" data-name="Group 1538">
              <path id="Path_6322" data-name="Path 6322" d="M614.7,363.867a9.127,9.127,0,0,1,5.374,1.662c2.887,2.052-1.683,7.129-5.6,9.724a21.516,21.516,0,0,0-7.442,9.083s11.3,1.427,13.5,5.889c3.109,6.28-5.648,7.383-10.23,15.425s-8.066,12.119-16.727,14.247a33.19,33.19,0,0,1-7.293.613c-9.6,0-23.936-1.922-31.518-4.338-7.428-2.366-26.316-18.13-29.141-25.539s3.987-14.867,3.987-14.867,14.71,22.432,28.753,24.264a54.546,54.546,0,0,0,7.064.447,68.993,68.993,0,0,0,22.372-3.86s-1.8-4.943.379-7.763c2.869-3.723,9.171-4.7,9.171-4.7a14.882,14.882,0,0,1,5.515-15.123c4.942-3.921,8.86-5.167,11.835-5.167m0-3.121c-4.253,0-8.887,1.966-13.775,5.843a17.814,17.814,0,0,0-7.039,15.2c-2.507.781-5.986,2.313-8.179,5.157-1.813,2.352-1.891,5.354-1.585,7.6a67.529,67.529,0,0,1-18.692,2.811,51.744,51.744,0,0,1-6.66-.419c-10.333-1.349-22.666-16.975-26.547-22.882l-2.205-3.358-2.709,2.965c-.332.362-8.068,8.984-4.6,18.086,3.128,8.2,22.8,24.754,31.109,27.4,7.763,2.473,22.327,4.486,32.466,4.486a35.679,35.679,0,0,0,8.038-.7c9.62-2.363,13.694-6.956,18.695-15.733a23.4,23.4,0,0,1,5.9-6.36c3.1-2.562,7.345-6.071,4.413-12-1.871-3.777-7.341-5.773-11.429-6.765a17.511,17.511,0,0,1,4.292-4.219c.8-.531,7.824-5.328,7.908-10.5a5.122,5.122,0,0,0-2.221-4.372,12.309,12.309,0,0,0-7.182-2.239Z" transform="translate(-521.811 -360.746)" fill="#fff"/>
            </g>
          </g>
        </g>
        <g id="Group_1543" data-name="Group 1543" transform="translate(64.207 44.442)">
          <g id="Group_1542" data-name="Group 1542">
            <g id="Group_1541" data-name="Group 1541">
              <path id="Path_6323" data-name="Path 6323" d="M599.355,417.172a14.972,14.972,0,0,1,4.332-1.933,22.455,22.455,0,0,1,4.4-.768,26.078,26.078,0,0,1,4.372.088,31.873,31.873,0,0,1,4.233.754,31.218,31.218,0,0,0-4.243.027,24.852,24.852,0,0,0-4.114.672,20.553,20.553,0,0,0-3.813,1.413,12.618,12.618,0,0,0-3.127,2.108Z" transform="translate(-599.355 -414.419)" fill="#fff"/>
            </g>
          </g>
        </g>
        <g id="Group_1546" data-name="Group 1546" transform="translate(60.065 33.265)">
          <g id="Group_1545" data-name="Group 1545">
            <g id="Group_1544" data-name="Group 1544">
              <path id="Path_6324" data-name="Path 6324" d="M601.784,430.64c-3.463-1.907-5.42-4.359-5.818-7.29-.457-3.365,1.332-6.444,2.66-8.2a8.687,8.687,0,0,1-4.165-5.737c-.776-4.461,2.86-8.325,3.015-8.487l2.259,2.152c-.026.029-2.71,2.912-2.2,5.812.3,1.71,1.714,3.205,4.193,4.445l1.962.98-1.568,1.533c-.033.032-3.555,3.55-3.065,7.1.262,1.893,1.684,3.564,4.23,4.965Z" transform="translate(-594.352 -400.921)" fill="#fff"/>
            </g>
          </g>
        </g>
        <g id="Group_1549" data-name="Group 1549" transform="translate(60.621 32.949)">
          <g id="Group_1548" data-name="Group 1548" transform="translate(0)">
            <g id="Group_1547" data-name="Group 1547">
              <path id="Path_6325" data-name="Path 6325" d="M595.024,403.306a12.408,12.408,0,0,1,2.534-1.3,18.893,18.893,0,0,1,2.53-.8,24.8,24.8,0,0,1,5.123-.66,30.411,30.411,0,0,1,5.051.32c.83.108,1.647.3,2.464.446l2.413.614-2.468-.227c-.825-.016-1.642-.077-2.461-.054a29.334,29.334,0,0,0-4.84.454,22.8,22.8,0,0,0-4.557,1.334,16.361,16.361,0,0,0-2.069,1.031,9.791,9.791,0,0,0-1.712,1.231Z" transform="translate(-595.024 -400.539)" fill="#fff"/>
            </g>
          </g>
        </g>
        <g id="Group_1552" data-name="Group 1552" transform="translate(65.8 57.661)">
          <g id="Group_1551" data-name="Group 1551" transform="translate(0)">
            <g id="Group_1550" data-name="Group 1550">
              <path id="Path_6326" data-name="Path 6326" d="M601.278,430.384a5.2,5.2,0,0,0,4.3,1.789l-1.41,1.06-2.364-1.111Z" transform="translate(-601.278 -430.384)" fill="#fff"/>
            </g>
          </g>
        </g>
        <g id="Group_1555" data-name="Group 1555" transform="translate(74.186 19.273)">
          <g id="Group_1554" data-name="Group 1554">
            <g id="Group_1553" data-name="Group 1553">
              <path id="Path_6327" data-name="Path 6327" d="M611.575,388.407s3.734-.91,11.455,0l2.563-3.36s-8.831-2.305-14.187,0Z" transform="translate(-611.406 -384.023)" fill="#fff"/>
            </g>
          </g>
        </g>
      </g>
      <g id="Group_1569" data-name="Group 1569" transform="translate(123.477 164.29)">
        <g id="Group_1559" data-name="Group 1559" transform="translate(1.165 2.366)">
          <g id="Group_1558" data-name="Group 1558" transform="translate(0 0)">
            <g id="Group_1557" data-name="Group 1557">
              <ellipse id="Ellipse_1955" data-name="Ellipse 1955" cx="32.165" cy="30.138" rx="32.165" ry="30.138" transform="translate(0 28.417) rotate(-26.215)" fill="#d34319"/>
            </g>
          </g>
        </g>
        <g id="Group_1562" data-name="Group 1562" transform="translate(0 0)">
          <g id="Group_1561" data-name="Group 1561">
            <g id="Group_1560" data-name="Group 1560" transform="translate(0)">
              <ellipse id="Ellipse_1956" data-name="Ellipse 1956" cx="32.165" cy="25.898" rx="32.165" ry="25.898" transform="translate(0 28.417) rotate(-26.215)" fill="#e25316"/>
            </g>
          </g>
        </g>
        <g id="Group_1565" data-name="Group 1565" transform="translate(11.159 13.557)">
          <g id="Group_1564" data-name="Group 1564" transform="translate(0)">
            <g id="Group_1563" data-name="Group 1563">
              <path id="Path_6328" data-name="Path 6328" d="M480.426,337.208a54.71,54.71,0,0,0-8.959,9.161,62.085,62.085,0,0,0-6.593,10.542,51.853,51.853,0,0,0-4.188,11.6c-.885,4.027-1.486,8.285-.534,12.653-2.79-3.564-3.375-8.583-3.116-13.138a34.62,34.62,0,0,1,3.641-13.194,38.349,38.349,0,0,1,8.095-10.957A27,27,0,0,1,480.426,337.208Z" transform="translate(-456.98 -337.208)" fill="#f67815"/>
            </g>
          </g>
        </g>
        <g id="Group_1568" data-name="Group 1568" transform="translate(8.414 9.941)">
          <g id="Group_1567" data-name="Group 1567">
            <g id="Group_1566" data-name="Group 1566">
              <path id="Path_6329" data-name="Path 6329" d="M490.2,335.964c11.413,0,22.124,5.943,27.245,16.341,7.352,14.933.393,33.4-15.544,41.247a33.767,33.767,0,0,1-14.925,3.512c-11.413,0-22.124-5.943-27.245-16.342-7.352-14.933-.393-33.4,15.544-41.247a33.761,33.761,0,0,1,14.926-3.512m0-3.123a37.127,37.127,0,0,0-16.3,3.834,36.185,36.185,0,0,0-18.047,19.666,32.109,32.109,0,0,0,1.082,25.76c5.493,11.155,17.005,18.085,30.045,18.085a37.138,37.138,0,0,0,16.3-3.833,36.182,36.182,0,0,0,18.048-19.666,32.107,32.107,0,0,0-1.082-25.76c-5.492-11.155-17.005-18.085-30.045-18.085Z" transform="translate(-453.665 -332.841)" fill="#fff"/>
            </g>
          </g>
        </g>
      </g>
      <g id="Group_1587" data-name="Group 1587" transform="translate(46.415 257.286)">
        <ellipse id="Ellipse_1957" data-name="Ellipse 1957" cx="18.57" cy="18.57" rx="18.57" ry="18.57" transform="translate(33.432)" fill="#fff"/>
        <g id="Group_1572" data-name="Group 1572" transform="translate(3.123 22.028)">
          <g id="Group_1571" data-name="Group 1571">
            <g id="Group_1570" data-name="Group 1570">
              <path id="Path_6330" data-name="Path 6330" d="M415.258,466.361s-10.732,22.412-14.359,29.173-24.615,21.271-24.615,21.271-2.169,1.339,1.912,2.653a44.074,44.074,0,0,1,7.193,3.027c5.775,3.088,9.1,6.82,6.545,8.79-6.482,5-10.408,5.967-24.766.3-12.44-4.906-15.452-10.816-11.055-14.938,7.065-6.622,28.148-25.893,28.148-25.893l3-31Z" transform="translate(-354.206 -459.752)" fill="#f67815"/>
            </g>
          </g>
        </g>
        <g id="Group_1575" data-name="Group 1575" transform="translate(0.75 12.262)">
          <g id="Group_1574" data-name="Group 1574">
            <g id="Group_1573" data-name="Group 1573">
              <path id="Path_6331" data-name="Path 6331" d="M417.563,457.724s-11.5,31.857-15.539,38.4-28.2,20.077-28.2,20.077-2.263,1.213,1.779,2.758a44.8,44.8,0,0,1,7.083,3.431c5.649,3.414,8.792,7.331,6.1,9.15-6.821,4.617-10.834,5.363-25-1.112-12.269-5.609-14.972-11.681-10.3-15.545,7.5-6.208,29.854-24.243,29.854-24.243l16.178-42.683Z" transform="translate(-351.34 -447.957)" fill="#e25316"/>
            </g>
          </g>
        </g>
        <g id="Group_1578" data-name="Group 1578" transform="translate(0 18.168)">
          <g id="Group_1577" data-name="Group 1577">
            <g id="Group_1576" data-name="Group 1576">
              <path id="Path_6332" data-name="Path 6332" d="M416.152,462.717s-12.276,25.255-15.9,32.016S375.633,516,375.633,516s-2.168,1.339,1.913,2.653a44,44,0,0,1,7.192,3.026c5.775,3.088,9.1,6.82,6.545,8.79-3.433,2.645-6.151,4.163-10.079,4.163-3.489,0-7.934-1.2-14.687-3.861-12.44-4.906-15.451-10.815-11.054-14.937,7.064-6.622,28.147-25.893,28.147-25.893l3.087-34.184m.633.15-3.479-.822h0l-.346,3.558-2.887,29.8c-4.081,3.732-21.119,19.324-27.291,25.111a8.2,8.2,0,0,0-2.753,7.656c.9,4.688,6.012,9,14.8,12.463,7.245,2.857,11.98,4.077,15.832,4.077,4.781,0,8.13-1.841,11.985-4.813a5.136,5.136,0,0,0,2.069-4.545c-.332-4.006-5.1-7.361-9.048-9.47a46.425,46.425,0,0,0-5.7-2.55c6.234-4.487,19.387-14.388,22.491-20.172,3.62-6.746,13.984-28.382,14.423-29.3l1.674-3.5-3.773-.891-27.993-6.609" transform="translate(-350.434 -455.09)" fill="#fff"/>
            </g>
          </g>
        </g>
        <g id="Group_1581" data-name="Group 1581" transform="translate(19.75 77.752)">
          <g id="Group_1580" data-name="Group 1580" transform="translate(0)">
            <g id="Group_1579" data-name="Group 1579">
              <path id="Path_6333" data-name="Path 6333" d="M374.287,532.99a22.826,22.826,0,0,1,3.773-3.545,12.966,12.966,0,0,1,5.127-2.394l.12,3.826a10,10,0,0,0-4.408.289A21.8,21.8,0,0,0,374.287,532.99Z" transform="translate(-374.287 -527.051)" fill="#fff"/>
            </g>
          </g>
        </g>
        <path id="Path_6334" data-name="Path 6334" d="M418.6,452.4c-.042,3.523-1.573,6.487-3.485,10.287-.05.107-.108.215-.157.322-.091.167-.173.34-.249.514a1.275,1.275,0,0,0-.074.148l-.074.149a5.828,5.828,0,0,1-.249.531l-7.85-6.049-16.187,29.953s-23.756,17.777-30.827,24.4c-4.4,4.125-1.863,11.129,10.582,16.038-.911-.322-1.871-.7-2.873-1.092-12.429-4.911-15.443-10.822-11.054-14.946,7.071-6.624,28.161-25.882,28.161-25.882s2.948-31.82,3.1-34.463c.472-8.668,7.038-15.724,15.724-15.724A15.367,15.367,0,0,1,418.6,452.4Z" transform="translate(-351.082 -433.739)" fill="#d34319"/>
        <g id="Group_1586" data-name="Group 1586" transform="translate(31.778 49.454)">
          <g id="Group_1585" data-name="Group 1585" transform="translate(0)">
            <g id="Group_1584" data-name="Group 1584">
              <g id="Group_1583" data-name="Group 1583">
                <path id="Path_6335" data-name="Path 6335" d="M390.372,492.874a18.719,18.719,0,0,0,.136,3.458,9.072,9.072,0,0,0,.383,1.695,3.486,3.486,0,0,0,.88,1.495,3.666,3.666,0,0,1-1.233-1.328,9.65,9.65,0,0,1-.787-1.666,19.833,19.833,0,0,1-.94-3.577Z" transform="translate(-388.813 -492.874)" fill="#fff"/>
              </g>
            </g>
          </g>
        </g>
        <path id="Path_6336" data-name="Path 6336" d="M411.116,436.834a15.507,15.507,0,0,0-9.55,3.275,22.92,22.92,0,0,1,7.46,9.651,15.671,15.671,0,0,1,1.461,5.058c.025.233.03.464.048.7a22.713,22.713,0,0,1-1.278,10.957c-.146.5-.3.986-.452,1.447a34.847,34.847,0,0,1-2.443,5.68l9.42,4.563,8.838-17.828,1.465-3.378a15.621,15.621,0,0,0-14.97-20.121Z" transform="translate(-359.228 -433.782)" fill="#e25316"/>
      </g>
      <g id="Group_1613" data-name="Group 1613" transform="translate(0 2.183)">
        <g id="Group_1594" data-name="Group 1594" transform="translate(0)">
          <g id="Group_1590" data-name="Group 1590" transform="translate(1.561 1.56)">
            <g id="Group_1589" data-name="Group 1589">
              <g id="Group_1588" data-name="Group 1588">
                <path id="Path_6337" data-name="Path 6337" d="M358.167,282.624a6.085,6.085,0,0,1-5.344-3.173L297,176.944a6.088,6.088,0,0,1,2.432-8.248l75.317-41.014A6.074,6.074,0,0,1,383,130.114l55.821,102.509a6.079,6.079,0,0,1-2.432,8.247l-75.315,41.013A6.088,6.088,0,0,1,358.167,282.624Z" transform="translate(-296.263 -126.94)" fill="#0f2269"/>
              </g>
            </g>
          </g>
          <g id="Group_1593" data-name="Group 1593">
            <g id="Group_1592" data-name="Group 1592">
              <g id="Group_1591" data-name="Group 1591">
                <path id="Path_6338" data-name="Path 6338" d="M377.33,128.178a4.517,4.517,0,0,1,3.973,2.359l55.821,102.508a4.52,4.52,0,0,1-1.807,6.131L360,280.189a4.516,4.516,0,0,1-6.13-1.808L298.048,175.873a4.52,4.52,0,0,1,1.808-6.131l75.317-41.013a4.491,4.491,0,0,1,2.157-.551m0-3.122h0a7.65,7.65,0,0,0-3.65.932L298.363,167a7.65,7.65,0,0,0-3.056,10.365l55.821,102.509a7.638,7.638,0,0,0,10.365,3.056l75.317-41.014a7.641,7.641,0,0,0,3.056-10.365L384.045,129.044a7.64,7.64,0,0,0-6.714-3.988Z" transform="translate(-294.378 -125.056)" fill="#fff"/>
              </g>
            </g>
          </g>
        </g>
        <g id="Group_1597" data-name="Group 1597" transform="translate(7.827 8.417)">
          <g id="Group_1596" data-name="Group 1596" transform="translate(0 0)">
            <g id="Group_1595" data-name="Group 1595" transform="translate(0 0)">
              <rect id="Rectangle_507" data-name="Rectangle 507" width="86.522" height="107.791" transform="translate(0 41.378) rotate(-28.571)" fill="#fff"/>
            </g>
          </g>
        </g>
        <g id="Group_1600" data-name="Group 1600" transform="translate(94.824 126.746)">
          <g id="Group_1599" data-name="Group 1599" transform="translate(0)">
            <g id="Group_1598" data-name="Group 1598">
              <path id="Path_6339" data-name="Path 6339" d="M408.9,283.866,422.3,278.13a14.4,14.4,0,0,0,.665,4.823l-10.957,5.967Z" transform="translate(-408.898 -278.13)" fill="#0f2269"/>
            </g>
          </g>
        </g>
        <g id="Group_1603" data-name="Group 1603" transform="translate(94.824 126.746)">
          <g id="Group_1602" data-name="Group 1602" transform="translate(0)">
            <g id="Group_1601" data-name="Group 1601">
              <path id="Path_6340" data-name="Path 6340" d="M408.9,283.866,422.3,278.13a14.4,14.4,0,0,0,.665,4.823l-10.957,5.967Z" transform="translate(-408.898 -278.13)" fill="#0f2269"/>
            </g>
          </g>
        </g>
        <g id="Group_1606" data-name="Group 1606" transform="translate(94.824 126.746)">
          <g id="Group_1605" data-name="Group 1605" transform="translate(0)">
            <g id="Group_1604" data-name="Group 1604">
              <path id="Path_6341" data-name="Path 6341" d="M408.9,283.866,422.3,278.13a14.4,14.4,0,0,0,.665,4.823l-10.957,5.967Z" transform="translate(-408.898 -278.13)" fill="#0f2269"/>
            </g>
          </g>
        </g>
        <g id="Group_1609" data-name="Group 1609" transform="translate(94.824 126.746)">
          <g id="Group_1608" data-name="Group 1608" transform="translate(0)">
            <g id="Group_1607" data-name="Group 1607">
              <path id="Path_6342" data-name="Path 6342" d="M408.9,283.866,422.3,278.13a14.4,14.4,0,0,0,.665,4.823l-10.957,5.967Z" transform="translate(-408.898 -278.13)" fill="#0f2269"/>
            </g>
          </g>
        </g>
        <g id="Group_1612" data-name="Group 1612" transform="translate(44.981 44.165)">
          <g id="Group_1611" data-name="Group 1611">
            <g id="Group_1610" data-name="Group 1610">
              <path id="Path_6343" data-name="Path 6343" d="M373.829,239.943l-22.873-10.665a3.9,3.9,0,0,1,3.3-7.073L366.9,228.1c1.4-11.4,6.2-36.935,21.647-48.891a3.9,3.9,0,0,1,4.777,6.174c-17.015,13.164-19.153,48.447-19.173,48.8Z" transform="translate(-348.702 -178.394)" fill="#0f2269"/>
            </g>
          </g>
        </g>
      </g>
      <g id="Group_1620" data-name="Group 1620" transform="translate(100.166 94.199)">
        <g id="Group_1616" data-name="Group 1616" transform="translate(2.4 3.118)">
          <g id="Group_1615" data-name="Group 1615">
            <g id="Group_1614" data-name="Group 1614">
              <path id="Path_6344" data-name="Path 6344" d="M475.792,326.562c-7.142,0-25.912-19.193-28.878-24.358a101.042,101.042,0,0,1-4.548-9.308h.005s-4.261-11.209-5.964-16.853c-.225-1.033-.424-2.192-.6-3.4.719-2.175,5.325-7.681,6.682-10.6,1.446-3.1,1.5-8.8,1.289-11.094s-6.778-8.982-7.515-10.479-4.182.257-3.185,4.943,3.181,6.264,3.119,7.089c-.486,2.353-3.862,4.311-5.408,6.106-4.779,5.546-3.762,8.983-4.312,12.687l-8.231,4.39s14.03,27.35,18.3,34.386c2.99,4.927,15.806,16.993,25.009,23.571A24.685,24.685,0,0,0,471,337.837a9.882,9.882,0,0,0,3.911-3.065C477.049,331.459,478.008,326.562,475.792,326.562Z" transform="translate(-418.248 -239.95)" fill="#e25316"/>
            </g>
          </g>
        </g>
        <g id="Group_1619" data-name="Group 1619" transform="translate(20.056 36.451)">
          <g id="Group_1618" data-name="Group 1618">
            <g id="Group_1617" data-name="Group 1617">
              <path id="Path_6345" data-name="Path 6345" d="M439.572,280.207c.025.106.33,11.5.356,11.613,1.218,5.288,4.558,12.079,12.792,31.072,2.756,6.359-.685,5.632-.685,5.632l20.582,17.322,6.1-3.8,1.8-6.906s-20.522-13.267-24.249-19.1" transform="translate(-439.572 -280.207)" fill="#d34319"/>
            </g>
          </g>
        </g>
        <path id="Path_6346" data-name="Path 6346" d="M473.269,322.744c-.066-.041-.141-.083-.207-.124a76.517,76.517,0,0,1-10.664-8.4c-6.392-5.814-12.023-12.048-13.273-14.225a98.2,98.2,0,0,1-4.322-8.835l-.008-.025c-.041-.107-4.182-11.012-5.863-16.526-.132-.647-.273-1.374-.4-2.179.547-.977,1.755-2.7,2.6-3.908a44.461,44.461,0,0,0,3.685-5.813c1.879-4.023,1.772-10.531,1.573-12.693-.215-2.294-2.326-4.96-5.788-9.074-.77-.912-1.813-2.154-2.062-2.559a4.066,4.066,0,0,0-3.643-2.2,5.212,5.212,0,0,0-4.007,2.062,8.262,8.262,0,0,0-1.366,7.17,18.653,18.653,0,0,0,2.674,6.492,28.031,28.031,0,0,1-2.476,2.4,24.491,24.491,0,0,0-2.285,2.2c-4.289,4.976-4.132,10.7-4.024,14.473.008.523.025,1.035.025,1.5l-5.407,2.914-2.683,1.441,1.375,2.716c.505.995,12.371,24.435,16.66,31.49,3.635,6,20.783,19.11,30.032,25.941.133.1.265.2.406.29a8.668,8.668,0,1,0,9.447-14.532Zm-4.6,13.489c-3.847-.136-6.735-4.265-8.669-6.069-4.085-3.811-20.071-14.35-23.946-20.743-4.272-7.03-16.535-31.273-16.535-31.273l4.554-2.443c.273.679.571,1.334.9,1.971a23.314,23.314,0,0,0,2.79,4.315,17.981,17.981,0,0,1-1.084-4.836c-.042-.736-.1-1.623-.166-2.418-.066-.77-.116-1.068-.141-2.185v-.017c-.1-3.22-.091-9.887,3.436-13.984,1.548-1.8,5.407-4.34,5.9-6.691.058-.828-2.128-2.4-3.122-7.088-.762-3.6,1.085-5.465,2.318-5.465a.917.917,0,0,1,.87.522c.737,1.49,7.3,8.181,7.51,10.474s.157,7.99-1.283,11.1c-1.358,2.915-5.97,8.421-6.691,10.6.183,1.208.381,2.367.6,3.4,1.706,5.64,5.962,16.85,5.962,16.85.87,2,1.722,3.842,2.5,5.416s1.474,2.9,2.045,3.891c1.805,3.139,8.173,10.657,14.5,16.08.058.05.166.141.306.257,1.25,1.067,3.767,2.922,3.8,2.948.464.314.919.612,1.366.885a40.7,40.7,0,0,0,3.361,2.318c.977.555,5.35,2.928,5.06,6.046C474.495,333.469,472.058,336.352,468.666,336.233Z" transform="translate(-415.35 -236.185)" fill="#fff"/>
        <path id="Path_6347" data-name="Path 6347" d="M483.319,343.2a5.676,5.676,0,0,1-2.269-.9A5.925,5.925,0,0,1,483.319,343.2Z" transform="translate(-426.65 -254.435)" fill="#fff"/>
        <path id="Path_6348" data-name="Path 6348" d="M474.459,337.747c-1.209-.837-2.459-1.814-3.709-2.882C471.4,335.386,472.828,336.528,474.459,337.747Z" transform="translate(-424.878 -253.157)" fill="#fff"/>
      </g>
      <g id="Group_1652" data-name="Group 1652" transform="translate(231.519 25.647)">
        <g id="Group_1624" data-name="Group 1624" transform="translate(3.976 10.638)">
          <g id="Group_1623" data-name="Group 1623">
            <g id="Group_1622" data-name="Group 1622">
              <g id="Group_1621" data-name="Group 1621">
                <path id="Path_6349" data-name="Path 6349" d="M588.982,215.012l-10.194-3.3c.185-.569,19.02-56.8,72.846-43.411L649.047,178.7C604.982,167.735,589.613,213.076,588.982,215.012Z" transform="translate(-578.788 -166.241)" fill="#ff9b00"/>
              </g>
            </g>
          </g>
        </g>
        <g id="Group_1627" data-name="Group 1627" transform="translate(0 1.327)">
          <g id="Group_1626" data-name="Group 1626">
            <g id="Group_1625" data-name="Group 1625">
              <path id="Path_6350" data-name="Path 6350" d="M649.978,158.117a15.426,15.426,0,1,1-15.383,16.945c-30.281.24-43.19,29.4-45.907,36.523-.3.8-.482,1.321-.535,1.5l-10.195-3.3c.176-.508,15.225-45.462,56.813-45.458.855,0,1.726.019,2.6.058.057,0,.117.009.173.012a15.424,15.424,0,0,1,12.432-6.276m0-3.122a18.648,18.648,0,0,0-13.87,6.221q-.67-.014-1.337-.014c-43.047,0-59.1,45.614-59.762,47.557l-1.023,3,3.01.994,10.194,3.3,3.034.983.918-3.054c.051-.165.208-.611.466-1.295,2.963-7.777,14.452-32.633,40.4-34.405a18.551,18.551,0,1,0,17.965-23.288Z" transform="translate(-573.986 -154.995)" fill="#fff"/>
            </g>
          </g>
        </g>
        <g id="Group_1631" data-name="Group 1631" transform="translate(3.972 10.655)">
          <g id="Group_1630" data-name="Group 1630">
            <g id="Group_1629" data-name="Group 1629">
              <g id="Group_1628" data-name="Group 1628">
                <path id="Path_6351" data-name="Path 6351" d="M651.624,168.3l-2.321,9.409-.25,1a57.343,57.343,0,0,0-10.677-1.642c-32.4-1.714-46.061,29.1-48.865,36.456-.3.8-.482,1.321-.535,1.5l-10.195-3.3c.179-.518,15.854-47.329,59.416-45.4A66.017,66.017,0,0,1,651.624,168.3Z" transform="translate(-578.783 -166.261)" fill="#f67815"/>
              </g>
            </g>
          </g>
        </g>
        <g id="Group_1635" data-name="Group 1635" transform="translate(9.149 10.644)">
          <g id="Group_1634" data-name="Group 1634">
            <g id="Group_1633" data-name="Group 1633">
              <g id="Group_1632" data-name="Group 1632">
                <path id="Path_6352" data-name="Path 6352" d="M657.878,168.3l-2.589,10.408c-1.679-.411-3.32-.749-4.909-1a50.472,50.472,0,0,0-10.927-.643c-32.4-1.714-46.061,29.1-48.864,36.456l-5.552-1.8c.16-.5,14.586-43.58,54.238-45.4A63.66,63.66,0,0,1,657.878,168.3Z" transform="translate(-585.036 -166.248)" fill="#f5720e"/>
              </g>
            </g>
          </g>
        </g>
        <g id="Group_1639" data-name="Group 1639" transform="translate(9.149 10.647)">
          <g id="Group_1638" data-name="Group 1638">
            <g id="Group_1637" data-name="Group 1637">
              <g id="Group_1636" data-name="Group 1636">
                <path id="Path_6353" data-name="Path 6353" d="M657.878,168.3l-2.589,10.408c-1.679-.411-3.32-.749-4.909-1a50.472,50.472,0,0,0-10.927-.643c-.911-.054-1.8-.071-2.678-.071-1.357,0-2.678.071-3.963.178-27.655,2.446-39.616,29.512-42.223,36.35l-5.552-1.8c.16-.5,14.586-43.58,54.238-45.4h.178c.5-.036.982-.054,1.5-.054A64.451,64.451,0,0,1,657.878,168.3Z" transform="translate(-585.036 -166.252)" fill="#e25316"/>
              </g>
            </g>
          </g>
        </g>
        <g id="Group_1642" data-name="Group 1642" transform="translate(56.925 8.999)">
          <g id="Group_1641" data-name="Group 1641" transform="translate(0)">
            <g id="Group_1640" data-name="Group 1640">
              <path id="Path_6354" data-name="Path 6354" d="M652.679,164.261a13.22,13.22,0,0,0-1.8,1.66,10.044,10.044,0,0,0-1,1.161,15.456,15.456,0,0,0-3.178,9.569c-1.357,0-2.677.071-3.963.178a15.275,15.275,0,0,1,6.641-10.854A13.563,13.563,0,0,1,652.679,164.261Z" transform="translate(-642.735 -164.261)" fill="#d34319"/>
            </g>
          </g>
        </g>
        <g id="Group_1645" data-name="Group 1645" transform="translate(56.088 0)">
          <g id="Group_1644" data-name="Group 1644" transform="translate(0)">
            <g id="Group_1643" data-name="Group 1643" transform="translate(0)">
              <ellipse id="Ellipse_1959" data-name="Ellipse 1959" cx="15.427" cy="15.427" rx="15.427" ry="15.427" transform="translate(0 10.866) rotate(-20.62)" fill="#e25316"/>
            </g>
          </g>
        </g>
        <g id="Group_1648" data-name="Group 1648" transform="translate(63.755 3.743)">
          <g id="Group_1647" data-name="Group 1647" transform="translate(0 0)">
            <g id="Group_1646" data-name="Group 1646" transform="translate(0 0)">
              <ellipse id="Ellipse_1960" data-name="Ellipse 1960" cx="9.078" cy="12.127" rx="9.078" ry="12.127" transform="translate(0 18.125) rotate(-86.615)" fill="#f67815"/>
            </g>
          </g>
        </g>
        <g id="Group_1651" data-name="Group 1651" transform="translate(60.945 19.537)">
          <g id="Group_1650" data-name="Group 1650" transform="translate(0)">
            <g id="Group_1649" data-name="Group 1649">
              <path id="Path_6355" data-name="Path 6355" d="M653.979,190.109a15.267,15.267,0,0,1-6.389-9.3,16.981,16.981,0,0,0,4.314,4.151,17.6,17.6,0,0,0,24.411-4.742,16.818,16.818,0,0,0,1.7-3.234,15.4,15.4,0,0,1-24.039,13.121Z" transform="translate(-647.59 -176.988)" fill="#d34319"/>
            </g>
          </g>
        </g>
      </g>
      <g id="Group_1686" data-name="Group 1686" transform="translate(180.808 0)">
        <g id="Group_1656" data-name="Group 1656" transform="translate(3.214 13.114)">
          <g id="Group_1655" data-name="Group 1655">
            <g id="Group_1654" data-name="Group 1654">
              <g id="Group_1653" data-name="Group 1653">
                <path id="Path_6356" data-name="Path 6356" d="M552.578,147.7a54.548,54.548,0,0,0-11.175,7.8c-.591.536-1.144,1.071-1.679,1.624-22.531,22.781-8.087,56.184-7.355,57.791l-9.784,4.392c-.232-.553-23.976-54.9,24.959-81.054Z" transform="translate(-516.624 -138.257)" fill="#f5720e"/>
              </g>
            </g>
          </g>
        </g>
        <g id="Group_1661" data-name="Group 1661" transform="translate(0 1.099)">
          <g id="Group_1658" data-name="Group 1658" transform="translate(3.215 3.122)">
            <g id="Group_1657" data-name="Group 1657">
              <path id="Path_6357" data-name="Path 6357" d="M567.95,141.662a15.418,15.418,0,0,0-30.782,1.514l-.086.073c-.321.249-.642.518-.946.785-.2.161-.375.321-.553.464-32.707,27.815-13.212,72.448-13,72.966l9.784-4.392c-.054-.125-.214-.482-.446-1.036-.054-.143-.107-.285-.178-.446-2.7-6.891-12.087-35.545,7.624-55.934.106-.125.231-.25.356-.375l.143-.142c.483-.5,1-1,1.537-1.482a.4.4,0,0,0,.039-.04,15.423,15.423,0,0,0,26.507-11.955Z" transform="translate(-516.625 -127.516)" fill="#f5720e"/>
            </g>
          </g>
          <g id="Group_1660" data-name="Group 1660">
            <g id="Group_1659" data-name="Group 1659">
              <path id="Path_6358" data-name="Path 6358" d="M520.256,220.983,519.03,218c-2.07-4.874-19.242-48.38,13.861-76.533l.527-.441a18.54,18.54,0,0,1,36.973-.277h0A18.545,18.545,0,0,1,540.9,157.221c-18.608,19.31-9.028,47.186-6.917,52.583.045.089.122.291.2.494.112.262.236.543.311.714l1.285,3Zm31.659-90.992q-.512,0-1.033.043a12.322,12.322,0,0,0-11.263,12.443l.023,1.432-1.315,1.155c-.272.212-.544.44-.8.665l-.659.555c-26.159,22.249-17.031,55.733-13.231,66.338l4.058-1.822c-3.076-8.545-11.23-37.22,8.709-57.912.139-.154.291-.309.445-.463l.142-.142c.474-.491,1.015-1.017,1.577-1.526l2.251-2.251,2.208,2.3a12.3,12.3,0,0,0,21.142-9.534h0A12.322,12.322,0,0,0,551.916,129.991Z" transform="translate(-512.742 -123.746)" fill="#fff"/>
            </g>
          </g>
        </g>
        <g id="Group_1665" data-name="Group 1665" transform="translate(3.215 13.114)">
          <g id="Group_1664" data-name="Group 1664">
            <g id="Group_1663" data-name="Group 1663">
              <g id="Group_1662" data-name="Group 1662">
                <path id="Path_6359" data-name="Path 6359" d="M552.578,147.7a55.457,55.457,0,0,0-11.033,7.659,1.03,1.03,0,0,1-.142.143c-.536.482-1.054.982-1.537,1.482l-.143.143c-22.531,22.781-8.087,56.184-7.355,57.791l-9.784,4.392c-.214-.517-20.3-46.489,14.5-74.215.125-.108.232-.2.357-.3a68.955,68.955,0,0,1,10.105-6.535Z" transform="translate(-516.625 -138.257)" fill="#ff9b00"/>
              </g>
            </g>
          </g>
        </g>
        <g id="Group_1669" data-name="Group 1669" transform="translate(3.215 13.114)">
          <g id="Group_1668" data-name="Group 1668">
            <g id="Group_1667" data-name="Group 1667">
              <g id="Group_1666" data-name="Group 1666">
                <path id="Path_6360" data-name="Path 6360" d="M552.578,147.7a54.151,54.151,0,0,0-9.229,6.141c-.626.482-1.232,1-1.8,1.518a1.053,1.053,0,0,1-.143.143c-.536.482-1.054.982-1.536,1.482l-.143.143c-.125.125-.25.25-.356.375-19.711,20.388-10.32,49.043-7.624,55.933.071.161.125.3.179.446.232.554.393.911.446,1.036l-9.783,4.392c-.215-.517-19.71-45.15,13-72.966.178-.143.357-.3.553-.465.3-.267.625-.536.946-.785.125-.108.232-.2.357-.3a68.954,68.954,0,0,1,10.106-6.535l4.535,8.5.142.268Z" transform="translate(-516.625 -138.257)" fill="#f67815"/>
              </g>
            </g>
          </g>
        </g>
        <g id="Group_1673" data-name="Group 1673" transform="translate(6.871 9.722)">
          <g id="Group_1672" data-name="Group 1672">
            <g id="Group_1671" data-name="Group 1671">
              <g id="Group_1670" data-name="Group 1670">
                <path id="Path_6361" data-name="Path 6361" d="M557,143.605c-1.106.589-2.16,1.2-3.177,1.821-.34.2-.661.411-.982.625a52.075,52.075,0,0,0-6.874,5.213,1.079,1.079,0,0,1-.142.142c-.3.268-.59.554-.875.84-.624.482-1.232,1-1.8,1.518a1.106,1.106,0,0,1-.144.143c-.536.482-1.053.982-1.535,1.481l-.144.143c-.41.411-.82.839-1.195,1.268-19.71,20.388-10.32,49.043-7.623,55.933l-5.5,2.483c-.215-.5-18.192-41.67,9.337-69.574.447-.446.91-.911,1.393-1.357,1.178-1.124,2.428-2.214,3.766-3.285.125-.108.232-.2.357-.3a68.914,68.914,0,0,1,10.1-6.534Z" transform="translate(-521.04 -134.161)" fill="#e25316"/>
              </g>
            </g>
          </g>
        </g>
        <g id="Group_1676" data-name="Group 1676" transform="translate(23.504 19.649)">
          <g id="Group_1675" data-name="Group 1675" transform="translate(0)">
            <g id="Group_1674" data-name="Group 1674">
              <path id="Path_6362" data-name="Path 6362" d="M545.759,156.718a1.039,1.039,0,0,1-.143.142c-.536.482-1.054.982-1.536,1.482a16.867,16.867,0,0,1-2.891-8.195,15.848,15.848,0,0,1,.106-3.7c.125-.108.232-.2.357-.3,0,.446.018.911.054,1.374A15.226,15.226,0,0,0,545.759,156.718Z" transform="translate(-541.129 -146.149)" fill="#d34319"/>
            </g>
          </g>
        </g>
        <g id="Group_1679" data-name="Group 1679" transform="translate(23.58 4.063)">
          <g id="Group_1678" data-name="Group 1678" transform="translate(0 0)">
            <g id="Group_1677" data-name="Group 1677" transform="translate(0)">
              <ellipse id="Ellipse_1961" data-name="Ellipse 1961" cx="15.427" cy="15.427" rx="15.427" ry="15.427" transform="translate(0 0.318) rotate(-0.591)" fill="#e25316"/>
            </g>
          </g>
        </g>
        <g id="Group_1682" data-name="Group 1682" transform="translate(20.388)">
          <g id="Group_1681" data-name="Group 1681" transform="translate(0)">
            <g id="Group_1680" data-name="Group 1680" transform="translate(0)">
              <ellipse id="Ellipse_1962" data-name="Ellipse 1962" cx="12.127" cy="9.079" rx="12.127" ry="9.079" transform="matrix(0.815, -0.579, 0.579, 0.815, 0, 14.039)" fill="#f67815"/>
            </g>
          </g>
        </g>
        <g id="Group_1685" data-name="Group 1685" transform="translate(29.642 9.739)">
          <g id="Group_1684" data-name="Group 1684">
            <g id="Group_1683" data-name="Group 1683">
              <path id="Path_6363" data-name="Path 6363" d="M559.341,159.461a15.268,15.268,0,0,1-10.8-3.249,16.982,16.982,0,0,0,5.962.536,17.6,17.6,0,0,0,16.068-18.978,16.875,16.875,0,0,0-.7-3.588,15.4,15.4,0,0,1-10.535,25.28Z" transform="translate(-548.541 -134.181)" fill="#d34319"/>
            </g>
          </g>
        </g>
      </g>
      <g id="Group_1699" data-name="Group 1699" transform="translate(142.147 74.641)">
        <g id="Group_1689" data-name="Group 1689" transform="translate(3.114 3.119)">
          <g id="Group_1688" data-name="Group 1688">
            <g id="Group_1687" data-name="Group 1687">
              <path id="Path_6364" data-name="Path 6364" d="M611.119,284.1c0,37.42-31.618,67.771-70.645,67.771A71.511,71.511,0,0,1,483,323.54,65.615,65.615,0,0,1,469.811,284.1c0-37.42,31.636-67.771,70.663-67.771a72.683,72.683,0,0,1,31.94,7.3C595.39,234.828,611.119,257.7,611.119,284.1Z" transform="translate(-469.811 -216.332)" fill="#f67815"/>
            </g>
          </g>
        </g>
        <g id="Group_1692" data-name="Group 1692" transform="translate(7.488 5.851)">
          <g id="Group_1691" data-name="Group 1691">
            <g id="Group_1690" data-name="Group 1690">
              <path id="Path_6365" data-name="Path 6365" d="M612.028,284.67c0,37.42-31.619,67.771-70.645,67.771a71.509,71.509,0,0,1-57.47-28.333,69,69,0,0,1-8.819-33.814c0-39.027,32.493-70.663,72.537-70.663a73.665,73.665,0,0,1,25.692,4.57C596.3,235.4,612.028,258.265,612.028,284.67Z" transform="translate(-475.094 -219.631)" fill="#e25316"/>
            </g>
          </g>
        </g>
        <g id="Group_1695" data-name="Group 1695" transform="translate(15.646 8.761)">
          <g id="Group_1694" data-name="Group 1694">
            <g id="Group_1693" data-name="Group 1693">
              <path id="Path_6366" data-name="Path 6366" d="M613.722,285.274c0,37.42-31.619,67.771-70.645,67.771a71.436,71.436,0,0,1-58.13-29.244,62.2,62.2,0,0,0,28.869,14.533c34.85,7.213,69.182-16.3,76.679-52.507a67.423,67.423,0,0,0-19.156-62.682C596.3,233.608,613.722,257.495,613.722,285.274Z" transform="translate(-484.947 -223.146)" fill="#d34319"/>
            </g>
          </g>
        </g>
        <g id="Group_1698" data-name="Group 1698">
          <g id="Group_1697" data-name="Group 1697">
            <g id="Group_1696" data-name="Group 1696">
              <path id="Path_6367" data-name="Path 6367" d="M539.826,215.687c39.021,0,70.654,30.34,70.654,67.766s-31.633,67.767-70.654,67.767-70.653-30.34-70.653-67.767,31.633-67.766,70.653-67.766m0-3.122c-40.679,0-73.775,31.8-73.775,70.887s33.1,70.888,73.775,70.888,73.775-31.8,73.775-70.888-33.095-70.887-73.775-70.887Z" transform="translate(-466.051 -212.565)" fill="#fff"/>
            </g>
          </g>
        </g>
      </g>
      <g id="Group_1713" data-name="Group 1713" transform="translate(191.682 93.471)">
        <g id="Group_1702" data-name="Group 1702" transform="translate(0 0)">
          <g id="Group_1701" data-name="Group 1701" transform="translate(0)">
            <g id="Group_1700" data-name="Group 1700" transform="translate(0)">
              <ellipse id="Ellipse_1963" data-name="Ellipse 1963" cx="19.373" cy="23.931" rx="19.373" ry="23.931" transform="translate(0 8.982) rotate(-13.404)" fill="#fff"/>
            </g>
          </g>
        </g>
        <g id="Group_1705" data-name="Group 1705" transform="translate(13.99 15.216)">
          <g id="Group_1704" data-name="Group 1704">
            <g id="Group_1703" data-name="Group 1703">
              <path id="Path_6368" data-name="Path 6368" d="M563.15,263.858c-1.623-6.806-7.4-11.26-12.914-9.947s-8.662,7.895-7.04,14.7,7.4,11.259,12.914,9.946S564.772,270.664,563.15,263.858Z" transform="translate(-542.77 -253.682)" fill="#0f2269"/>
            </g>
          </g>
        </g>
        <g id="Group_1709" data-name="Group 1709" transform="translate(3.251 3.411)">
          <g id="Group_1708" data-name="Group 1708">
            <g id="Group_1707" data-name="Group 1707">
              <g id="Group_1706" data-name="Group 1706">
                <path id="Path_6369" data-name="Path 6369" d="M569.787,259.293a26.525,26.525,0,0,0-8.714-14.245c-4.329-3.565-10.237-5.271-15.5-3.788a15.479,15.479,0,0,0-6.839,4.074,19.592,19.592,0,0,0-4.251,6.731,27.839,27.839,0,0,0,7.058,29.594,19.684,19.684,0,0,0,6.828,4.087,15.463,15.463,0,0,0,7.937.554c5.363-1.046,9.865-5.232,12.124-10.364A26.519,26.519,0,0,0,569.787,259.293Zm0,0a28.493,28.493,0,0,1-.951,16.813,21.133,21.133,0,0,1-4.622,7.265,17.027,17.027,0,0,1-7.543,4.455,17.328,17.328,0,0,1-8.906-.016,21.083,21.083,0,0,1-7.969-4.1,28.507,28.507,0,0,1-7.782-32.681,21.181,21.181,0,0,1,5.263-7.249,17.327,17.327,0,0,1,7.937-4.03,17.028,17.028,0,0,1,8.738.572,21.178,21.178,0,0,1,7.4,4.4A28.481,28.481,0,0,1,569.787,259.293Z" transform="translate(-529.801 -239.424)" fill="#0f2269"/>
              </g>
            </g>
          </g>
        </g>
        <g id="Group_1712" data-name="Group 1712" transform="translate(24.601 14.835)">
          <g id="Group_1711" data-name="Group 1711">
            <g id="Group_1710" data-name="Group 1710">
              <path id="Path_6370" data-name="Path 6370" d="M564.355,256.636a4.444,4.444,0,1,0-3.293,5.354A4.445,4.445,0,0,0,564.355,256.636Z" transform="translate(-555.587 -253.222)" fill="#fff"/>
            </g>
          </g>
        </g>
      </g>
      <g id="Group_1727" data-name="Group 1727" transform="translate(245.063 82.09)">
        <g id="Group_1716" data-name="Group 1716" transform="translate(0 0)">
          <g id="Group_1715" data-name="Group 1715">
            <g id="Group_1714" data-name="Group 1714" transform="translate(0)">
              <ellipse id="Ellipse_1964" data-name="Ellipse 1964" cx="16.66" cy="20.58" rx="16.66" ry="20.58" transform="translate(0 11.431) rotate(-20.064)" fill="#fff"/>
            </g>
          </g>
        </g>
        <g id="Group_1719" data-name="Group 1719" transform="translate(13.618 14.372)">
          <g id="Group_1718" data-name="Group 1718">
            <g id="Group_1717" data-name="Group 1717">
              <path id="Path_6371" data-name="Path 6371" d="M624.166,246.567c-2.064-5.653-7.447-8.879-12.023-7.209s-6.611,7.608-4.546,13.261,7.446,8.879,12.022,7.208S626.231,252.219,624.166,246.567Z" transform="translate(-606.79 -238.918)" fill="#0f2269"/>
            </g>
          </g>
        </g>
        <g id="Group_1723" data-name="Group 1723" transform="translate(4.08 4.302)">
          <g id="Group_1722" data-name="Group 1722">
            <g id="Group_1721" data-name="Group 1721">
              <g id="Group_1720" data-name="Group 1720">
                <path id="Path_6372" data-name="Path 6372" d="M629.55,241.785a22.687,22.687,0,0,0-8.882-11.273c-4.061-2.592-9.264-3.415-13.561-1.612-4.331,1.77-7.192,5.882-8.252,10.285a23.908,23.908,0,0,0,8.906,24.367c3.65,2.675,8.481,3.98,12.932,2.544,4.447-1.388,7.892-5.369,9.331-9.967A22.681,22.681,0,0,0,629.55,241.785Zm0,0a24.664,24.664,0,0,1,.893,14.465,18.283,18.283,0,0,1-3.2,6.7,14.718,14.718,0,0,1-6.015,4.616c-4.843,2.009-10.608,1.027-14.966-1.779a24.577,24.577,0,0,1-9.984-27.347c1.53-4.951,5.3-9.415,10.293-11a14.725,14.725,0,0,1,7.571-.348,18.32,18.32,0,0,1,6.766,3.06A24.637,24.637,0,0,1,629.55,241.785Z" transform="translate(-595.271 -226.756)" fill="#0f2269"/>
              </g>
            </g>
          </g>
        </g>
        <g id="Group_1726" data-name="Group 1726" transform="translate(22.016 13.509)">
          <g id="Group_1725" data-name="Group 1725" transform="translate(0)">
            <g id="Group_1724" data-name="Group 1724">
              <ellipse id="Ellipse_1965" data-name="Ellipse 1965" cx="3.822" cy="3.822" rx="3.822" ry="3.822" fill="#fff"/>
            </g>
          </g>
        </g>
      </g>
      <g id="Group_1763" data-name="Group 1763" transform="translate(231.71 146.351)">
        <g id="Group_1731" data-name="Group 1731" transform="translate(42.89)">
          <g id="Group_1730" data-name="Group 1730" transform="translate(0)">
            <g id="Group_1729" data-name="Group 1729">
              <g id="Group_1728" data-name="Group 1728">
                <path id="Path_6373" data-name="Path 6373" d="M626.017,300.75a7.952,7.952,0,0,1,4.779-1.58,4.832,4.832,0,0,1,2.574.687A3.219,3.219,0,0,1,634.828,302a4.926,4.926,0,0,0-4.048-1.66A43.06,43.06,0,0,0,626.017,300.75Z" transform="translate(-626.017 -299.17)" fill="#0f2269"/>
              </g>
            </g>
          </g>
        </g>
        <g id="Group_1734" data-name="Group 1734" transform="translate(0.305 0.227)">
          <g id="Group_1733" data-name="Group 1733">
            <g id="Group_1732" data-name="Group 1732">
              <path id="Path_6374" data-name="Path 6374" d="M574.586,314.846s14.91,1.867,26.652-2.636,21.888-12.765,21.888-12.765,2.728,5.085.508,9.114-20.678,18.759-38.112,18.642C585.522,327.2,583.726,316.072,574.586,314.846Z" transform="translate(-574.586 -299.444)" fill="#0f2269"/>
            </g>
          </g>
        </g>
        <g id="Group_1741" data-name="Group 1741" transform="translate(5.04 24.744)">
          <g id="Group_1737" data-name="Group 1737" transform="translate(0 1.515)">
            <g id="Group_1736" data-name="Group 1736">
              <g id="Group_1735" data-name="Group 1735">
                <path id="Path_6375" data-name="Path 6375" d="M580.3,332.335a55.866,55.866,0,0,0,9.726-1.451" transform="translate(-580.305 -330.884)" fill="#0f2269"/>
              </g>
            </g>
          </g>
          <g id="Group_1740" data-name="Group 1740">
            <g id="Group_1739" data-name="Group 1739">
              <g id="Group_1738" data-name="Group 1738">
                <path id="Path_6376" data-name="Path 6376" d="M580.3,332.02a54.279,54.279,0,0,0,9.352-2.966l.747,3.031A55.841,55.841,0,0,1,580.3,332.02Z" transform="translate(-580.305 -329.054)" fill="#0f2269"/>
              </g>
            </g>
          </g>
        </g>
        <g id="Group_1748" data-name="Group 1748" transform="translate(0 15.527)">
          <g id="Group_1744" data-name="Group 1744">
            <g id="Group_1743" data-name="Group 1743">
              <g id="Group_1742" data-name="Group 1742">
                <path id="Path_6377" data-name="Path 6377" d="M574.218,317.922a55.914,55.914,0,0,0,9.574,2.246" transform="translate(-574.218 -317.922)" fill="#0f2269"/>
              </g>
            </g>
          </g>
          <g id="Group_1747" data-name="Group 1747" transform="translate(0)">
            <g id="Group_1746" data-name="Group 1746">
              <g id="Group_1745" data-name="Group 1745">
                <path id="Path_6378" data-name="Path 6378" d="M574.218,317.922a54.173,54.173,0,0,0,9.786.7l-.425,3.093A55.835,55.835,0,0,1,574.218,317.922Z" transform="translate(-574.218 -317.922)" fill="#0f2269"/>
              </g>
            </g>
          </g>
        </g>
        <g id="Group_1751" data-name="Group 1751" transform="translate(11.305 4.6)">
          <g id="Group_1750" data-name="Group 1750">
            <g id="Group_1749" data-name="Group 1749">
              <path id="Path_6379" data-name="Path 6379" d="M587.871,318.85s13.649-1.661,21.182-5.729,14.9-8.395,14.9-8.395l-.3,3.687a53.59,53.59,0,0,1-14.6,11.637,87.719,87.719,0,0,1-17.069,6.522Z" transform="translate(-587.871 -304.726)" fill="#fff"/>
            </g>
          </g>
        </g>
        <g id="Group_1758" data-name="Group 1758" transform="translate(9.567 19.884)">
          <g id="Group_1754" data-name="Group 1754" transform="translate(0 0.158)">
            <g id="Group_1753" data-name="Group 1753">
              <g id="Group_1752" data-name="Group 1752">
                <path id="Path_6380" data-name="Path 6380" d="M585.772,326s12.015-.956,15.117-2.626" transform="translate(-585.772 -323.375)" fill="#0f2269"/>
              </g>
            </g>
          </g>
          <g id="Group_1757" data-name="Group 1757" transform="translate(0.22)">
            <g id="Group_1756" data-name="Group 1756">
              <g id="Group_1755" data-name="Group 1755">
                <path id="Path_6381" data-name="Path 6381" d="M586.037,325.031c2.546-.084,5.109-.238,7.656-.468,1.274-.123,2.545-.266,3.81-.455a16.442,16.442,0,0,0,3.714-.924,16.609,16.609,0,0,1-3.635,1.306c-1.25.32-2.512.593-3.777.846-2.535.49-5.075.9-7.645,1.251Z" transform="translate(-586.037 -323.184)" fill="#0f2269"/>
              </g>
            </g>
          </g>
        </g>
        <g id="Group_1762" data-name="Group 1762" transform="translate(38.66 4.919)">
          <g id="Group_1761" data-name="Group 1761" transform="translate(0)">
            <g id="Group_1760" data-name="Group 1760">
              <g id="Group_1759" data-name="Group 1759">
                <path id="Path_6382" data-name="Path 6382" d="M630.855,306.321c-1.607,1.133-3.221,2.235-4.86,3.311-.822.534-1.644,1.067-2.486,1.572a17.268,17.268,0,0,1-2.6,1.363,17.306,17.306,0,0,0,2.379-1.683c.759-.608,1.5-1.241,2.237-1.876,1.472-1.275,2.924-2.58,4.347-3.9Z" transform="translate(-620.908 -305.111)" fill="#0f2269"/>
              </g>
            </g>
          </g>
        </g>
      </g>
      <g id="Group_1766" data-name="Group 1766" transform="translate(94.824 128.93)">
        <g id="Group_1765" data-name="Group 1765" transform="translate(0)">
          <g id="Group_1764" data-name="Group 1764">
            <path id="Path_6383" data-name="Path 6383" d="M408.9,283.866,422.3,278.13a14.4,14.4,0,0,0,.665,4.823l-10.957,5.967Z" transform="translate(-408.898 -278.13)" fill="#0f2269"/>
          </g>
        </g>
      </g>
      <g id="Group_1769" data-name="Group 1769" transform="translate(97.017 127.53)">
        <g id="Group_1768" data-name="Group 1768" transform="translate(0)">
          <g id="Group_1767" data-name="Group 1767">
            <path id="Path_6384" data-name="Path 6384" d="M417.787,279.559a3.12,3.12,0,1,1-3.12-3.12A3.12,3.12,0,0,1,417.787,279.559Z" transform="translate(-411.547 -276.439)" fill="#fff"/>
          </g>
        </g>
      </g>
    </g>
    <path id="Path_7339" data-name="Path 7339" d="M2.584,0A2.585,2.585,0,0,0,0,2.6V80.279a2.6,2.6,0,0,0,2.584,2.584H60.569a2.6,2.6,0,0,0,2.584-2.584V2.6A2.6,2.6,0,0,0,60.569,0ZM13.476,11.666H26.414A2.59,2.59,0,0,1,29,14.259V27.187a2.59,2.59,0,0,1-2.584,2.593H13.476a2.59,2.59,0,0,1-2.584-2.593V14.259A2.59,2.59,0,0,1,13.476,11.666Zm2.6,5.177v7.751h7.731V16.843Zm33.812,1.292h.029a2.589,2.589,0,1,1-.117,5.177l-.166-.01H34.272a2.589,2.589,0,0,1-.264-5.158,1.193,1.193,0,0,1,.264,0H49.637a1.129,1.129,0,0,1,.254-.01Zm-34.546,16.9a2.6,2.6,0,0,1,1.859.783l2.74,2.74,2.74-2.74a2.588,2.588,0,0,1,4.443,1.732,2.542,2.542,0,0,1-.793,1.938l-2.73,2.73,2.73,2.73A2.589,2.589,0,1,1,22.764,48.7l-.078-.069-2.74-2.74-2.74,2.74a2.6,2.6,0,1,1-3.67-3.68l2.73-2.73-2.73-2.73a2.584,2.584,0,0,1-.069-3.66A2.613,2.613,0,0,1,15.345,35.036Zm18.663,4.609a1.193,1.193,0,0,1,.264,0H49.637a2.589,2.589,0,0,1,0,5.177H34.272a2.592,2.592,0,0,1-.264-5.177ZM13.222,53.1H26.414A2.6,2.6,0,0,1,29,55.685V68.6A2.59,2.59,0,0,1,26.414,71.2H13.476A2.59,2.59,0,0,1,10.892,68.6V55.685A2.6,2.6,0,0,1,13.222,53.1Zm2.858,5.157V66.02h7.731V58.259Zm17.929,1.3a1.194,1.194,0,0,1,.264,0H49.637a2.589,2.589,0,0,1,0,5.177H34.272a2.592,2.592,0,0,1-.264-5.177Z" transform="matrix(0.839, -0.545, 0.545, 0.839, 681.67, 292.508)" fill="#219ebc"/>
    <g id="Group_2098" data-name="Group 2098" transform="translate(240.576 178.383) rotate(-23)" style="isolation: isolate">
      <path id="Path_6407" data-name="Path 6407" d="M15.564,0a4.036,4.036,0,0,0-4.048,4.048V5.758H31.65A6.39,6.39,0,0,1,38,12.109V28.2a6.269,6.269,0,0,1-.486,2.411L42.607,35.7V25.334h1.709a4.036,4.036,0,0,0,4.048-4.048V4.048A4.036,4.036,0,0,0,44.317,0ZM4.048,8.061A4.036,4.036,0,0,0,0,12.109V28.2a4.036,4.036,0,0,0,4.048,4.048H5.758V42.607L16.122,32.243H31.65A4.036,4.036,0,0,0,35.7,28.2V12.109A4.036,4.036,0,0,0,31.65,8.061Zm5.74,9.788a2.3,2.3,0,1,1-2.3,2.3A2.3,2.3,0,0,1,9.788,17.849Zm8.061,0a2.3,2.3,0,1,1-2.3,2.3A2.3,2.3,0,0,1,17.849,17.849Zm8.061,0a2.3,2.3,0,1,1-2.3,2.3A2.3,2.3,0,0,1,25.91,17.849Z" fill="#219ebc"/>
    </g>
    <g id="Group_2099" data-name="Group 2099" transform="matrix(0.951, -0.309, 0.309, 0.951, 240.576, 378.703)" style="isolation: isolate">
      <path id="Path_7336" data-name="Path 7336" d="M29.423,0H14V3.983H29.423ZM30.7,6.538H12.72a1.275,1.275,0,0,1-1.275-1.275V3.271H0V58.612H43.422V3.271H31.978V5.263A1.275,1.275,0,0,1,30.7,6.538ZM7.235,41.02a1.278,1.278,0,0,1,1.279-1.275H34.908a1.277,1.277,0,0,1,0,2.555H8.514A1.282,1.282,0,0,1,7.235,41.02Zm0,9.077a1.282,1.282,0,0,1,1.279-1.279H34.908a1.277,1.277,0,0,1,0,2.555H8.514A1.278,1.278,0,0,1,7.235,50.1ZM11.8,22.307a1.273,1.273,0,0,0,.157,1.789l7.618,6.419a1.276,1.276,0,0,0,1.789-.149L31.621,18.243A1.273,1.273,0,1,0,29.679,16.6L20.234,27.749l-6.645-5.6A1.274,1.274,0,0,0,11.8,22.307Z" transform="translate(0 0)" fill="#219ebc" fill-rule="evenodd"/>
    </g>
    <g id="Group_2100" data-name="Group 2100" transform="translate(221.606 718.699)" style="isolation: isolate">
      <g id="Group_1812" data-name="Group 1812" transform="translate(0 2.147)">
        <g id="Group_1811" data-name="Group 1811">
          <path id="Path_6395" data-name="Path 6395" d="M518.275,510.173q-6.117,0-8.638-2.414t-2.52-7.134q0-1.4.16-4.453t.484-7.241q.319-4.185.7-9.123t.805-10.084q.536-6.329.91-10.891t.59-7.832q.217-3.272.377-5.472t.213-3.862q.054-1.662.108-3.057t.052-3.005a1.4,1.4,0,0,1,.539-1.234,1.854,1.854,0,0,1,1.071-.375q2.788,0,6.116-.161t6.652-.378q3.326-.21,6.439-.373t5.472-.162a37.144,37.144,0,0,1,11.8,1.664,18.557,18.557,0,0,1,12.5,12.5,33.682,33.682,0,0,1,1.447,10.3,44.335,44.335,0,0,1-1.663,12.179,29.764,29.764,0,0,1-5.2,10.353,25.353,25.353,0,0,1-9.118,7.188,30.421,30.421,0,0,1-13.305,2.683,27.523,27.523,0,0,1-7.831-.966l-1.5,19.742a2.373,2.373,0,0,1-.43,1.234,1.676,1.676,0,0,1-1.289.375Zm17.381-61.159q-1.4,0-3.111.161t-3.646.377q-.217,4.5-.536,10.943t-.86,13.519a20.263,20.263,0,0,0,3.166.59,27.7,27.7,0,0,0,2.844.161A9.7,9.7,0,0,0,539.573,473a12.437,12.437,0,0,0,3.594-4.345,18.1,18.1,0,0,0,1.716-5.366,32.411,32.411,0,0,0,.429-4.827q0-4.614-2.092-7.029T535.656,449.014Z" transform="translate(-507.117 -432.921)" fill="#0f2269"/>
        </g>
      </g>
      <g id="Group_1814" data-name="Group 1814" transform="translate(56.76 19.314)">
        <g id="Group_1813" data-name="Group 1813">
          <path id="Path_6396" data-name="Path 6396" d="M589.65,474.152c-.429,0-.913-.017-1.449-.054a10.563,10.563,0,0,1-1.554-.215,5.3,5.3,0,0,1-1.291-.43.79.79,0,0,1-.535-.7q0-1.394.108-2.576c.069-.785.106-1.609.106-2.466a9.942,9.942,0,0,0-.641-3.863,2.527,2.527,0,0,0-2.577-1.5q-3,0-4.988,3.916t-2.521,11.751q-.216,3.431-.591,7.777t-.7,8.368q-.322,4.023-.539,7.136t-.212,4.079a1.855,1.855,0,0,1-.752,1.609,2.713,2.713,0,0,1-1.61.536h-3.862a17.471,17.471,0,0,1-5.419-.7,7.984,7.984,0,0,1-3.325-1.986,6.972,6.972,0,0,1-1.717-3.164,17.47,17.47,0,0,1-.482-4.347q0-1.61.158-4.559t.591-8.155q.428-5.2,1.02-13.2t1.45-19.8q.21-3.111,2.252-3.112h4.183a16.98,16.98,0,0,1,5.042.642,9.248,9.248,0,0,1,3.328,1.77A6.743,6.743,0,0,1,575,453.551a13.434,13.434,0,0,1,.806,3.111,17.193,17.193,0,0,1,3.058-4.24,18.283,18.283,0,0,1,3.7-2.9,14.494,14.494,0,0,1,3.969-1.609,16.349,16.349,0,0,1,3.757-.483,12.227,12.227,0,0,1,4.129.751,11.793,11.793,0,0,1,3.809,2.254,10.669,10.669,0,0,1,2.737,3.863,14.006,14.006,0,0,1,1.02,5.579,17.227,17.227,0,0,1-.858,5.472,14.489,14.489,0,0,1-2.468,4.56,11.367,11.367,0,0,1-9.013,4.24Z" transform="translate(-555.102 -447.434)" fill="#0f2269"/>
        </g>
      </g>
      <g id="Group_1816" data-name="Group 1816" transform="translate(101.286 19.314)">
        <g id="Group_1815" data-name="Group 1815">
          <path id="Path_6397" data-name="Path 6397" d="M618.924,508.591a38.19,38.19,0,0,1-9.389-1.179,22.316,22.316,0,0,1-8.37-4.076,21.68,21.68,0,0,1-6.059-7.727,27.516,27.516,0,0,1-2.361-12.123,57.779,57.779,0,0,1,.429-6.439,42.086,42.086,0,0,1,1.664-7.724,40.9,40.9,0,0,1,3.432-7.888,26.794,26.794,0,0,1,5.742-7.026,28.046,28.046,0,0,1,8.583-5.043,33.616,33.616,0,0,1,12.015-1.931,30.109,30.109,0,0,1,9.444,1.287,16.8,16.8,0,0,1,6.224,3.488,13.141,13.141,0,0,1,3.433,5.1,17.805,17.805,0,0,1,1.071,6.223A16.468,16.468,0,0,1,642.8,471.9a18.429,18.429,0,0,1-5.15,5.739,25.494,25.494,0,0,1-7.026,3.594,56.772,56.772,0,0,1-7.62,1.984,53.046,53.046,0,0,1-6.92.86q-3.164.162-4.883.16a14.021,14.021,0,0,0,.591,4.024,10.262,10.262,0,0,0,1.771,3.489,9.007,9.007,0,0,0,3.11,2.466,10.466,10.466,0,0,0,4.722.967,8.633,8.633,0,0,0,4.345-.913,9.812,9.812,0,0,0,2.522-2.038c.645-.751,1.2-1.43,1.664-2.041a2.246,2.246,0,0,1,1.876-.912,11.354,11.354,0,0,1,1.876.27,8.388,8.388,0,0,1,2.738,1.126,8.659,8.659,0,0,1,2.468,2.362,6.5,6.5,0,0,1,1.072,3.862,7.98,7.98,0,0,1-1.931,5.365,14.193,14.193,0,0,1-4.989,3.647,27.638,27.638,0,0,1-6.813,2.04A43.309,43.309,0,0,1,618.924,508.591Zm2.038-46.886a6.2,6.2,0,0,0-4.024,1.341,11.329,11.329,0,0,0-2.789,3.379,17.74,17.74,0,0,0-1.716,4.5q-.59,2.47-.912,4.722A24.26,24.26,0,0,0,622.3,473.4q4.128-2.146,4.131-6.116a6.115,6.115,0,0,0-1.342-3.864A4.923,4.923,0,0,0,620.962,461.705Z" transform="translate(-592.745 -447.434)" fill="#0f2269"/>
        </g>
      </g>
      <g id="Group_1818" data-name="Group 1818" transform="translate(153.107 19.314)">
        <g id="Group_1817" data-name="Group 1817">
          <path id="Path_6398" data-name="Path 6398" d="M674.967,447.434q10.084,0,15.182,6.223t5.1,19.635a52.78,52.78,0,0,1-1.931,14.915,34.58,34.58,0,0,1-5.364,11.106,23.417,23.417,0,0,1-8.049,6.92,21.612,21.612,0,0,1-9.977,2.359q-5.692,0-8.906-2.466a16.189,16.189,0,0,1-5.044-6.975q-.323,3.86-.537,5.9t-.32,3.273q-.108,1.231-.162,2.2t-.215,2.576q-.158,1.609-.375,4.4t-.644,7.725a2.832,2.832,0,0,1-.536,1.716,2.7,2.7,0,0,1-1.824.429H647.5a17.505,17.505,0,0,1-5.418-.7,8,8,0,0,1-3.327-1.986,6.992,6.992,0,0,1-1.716-3.164,17.5,17.5,0,0,1-.484-4.346q0-1.075.323-5.794t.8-11.318q.482-6.6,1.074-14.217t1.128-14.539q.536-6.922.909-12.286t.591-7.4c.07-1.572.25-2.5.537-2.789a2.792,2.792,0,0,1,1.717-.323h4.186q5.792,0,8.421,2.412a7.543,7.543,0,0,1,2.63,5.742,15.761,15.761,0,0,1,6.384-7.081A19.994,19.994,0,0,1,674.967,447.434Zm-7.833,14.271a8.549,8.549,0,0,0-8.046,4.721q-2.577,4.722-2.578,12.874a39.113,39.113,0,0,0,.379,5.473,17.607,17.607,0,0,0,1.341,4.828,8.793,8.793,0,0,0,2.628,3.434,6.725,6.725,0,0,0,4.238,1.286q4.61,0,7.726-4.5t3.112-14.164a35.556,35.556,0,0,0-.376-5.2A14.8,14.8,0,0,0,674.216,466a8.11,8.11,0,0,0-2.683-3.112A7.621,7.621,0,0,0,667.133,461.705Z" transform="translate(-636.555 -447.434)" fill="#0f2269"/>
        </g>
      </g>
      <g id="Group_1820" data-name="Group 1820" transform="translate(212.656 60.3)">
        <g id="Group_1819" data-name="Group 1819">
          <path id="Path_6399" data-name="Path 6399" d="M697.412,482.084q4.509,0,6.441,2.2a9.066,9.066,0,0,1,1.931,6.171,18.817,18.817,0,0,1-.43,3.7,11.446,11.446,0,0,1-1.555,3.863,9.485,9.485,0,0,1-3.165,3,10.28,10.28,0,0,1-5.364,1.234q-4.939,0-6.656-2.521a10.92,10.92,0,0,1-1.714-6.277,16.435,16.435,0,0,1,.534-4.183,10.671,10.671,0,0,1,1.721-3.65,8.278,8.278,0,0,1,3.217-2.574A11.737,11.737,0,0,1,697.412,482.084Z" transform="translate(-686.898 -482.084)" fill="#0f2269"/>
        </g>
      </g>
      <g id="Group_1822" data-name="Group 1822" transform="translate(235.188 2.147)">
        <g id="Group_1821" data-name="Group 1821">
          <path id="Path_6400" data-name="Path 6400" d="M737.6,432.921q10.082,0,14.968,4.4a14.74,14.74,0,0,1,4.882,11.482q0,6.009-3.328,9.173t-9.548,3.165a5.044,5.044,0,0,1-2.469-.376,1.8,1.8,0,0,1-.536-1.556q0-1.072-.162-2.789a11.785,11.785,0,0,0-.805-3.325,6.629,6.629,0,0,0-2.037-2.737,5.985,5.985,0,0,0-3.863-1.128,9.656,9.656,0,0,0-6.114,2.095,6.55,6.55,0,0,0-2.682,5.418,5.84,5.84,0,0,0,2.2,4.719,25.456,25.456,0,0,0,5.526,3.38q3.321,1.559,7.245,3.166a30.235,30.235,0,0,1,7.24,4.237,21.913,21.913,0,0,1,5.524,6.545,20.1,20.1,0,0,1,2.2,9.926,24.9,24.9,0,0,1-1.558,8.851,20.022,20.022,0,0,1-4.614,7.191,20.953,20.953,0,0,1-7.727,4.775,31.525,31.525,0,0,1-10.89,1.716,39.627,39.627,0,0,1-9.923-1.179,37.108,37.108,0,0,1-7.94-2.953,19.467,19.467,0,0,1-5.314-3.861,5.958,5.958,0,0,1-1.928-3.809,45.41,45.41,0,0,1,.8-10.193q.805-3.111,2.95-3.111a5.263,5.263,0,0,1,3.167,1.286q1.662,1.288,3.808,2.9a26.553,26.553,0,0,0,4.988,2.9,15.88,15.88,0,0,0,6.6,1.286,16.161,16.161,0,0,0,2.951-.268,8.071,8.071,0,0,0,2.573-.911,5.288,5.288,0,0,0,1.826-1.716,4.65,4.65,0,0,0,.7-2.577,5.192,5.192,0,0,0-2.037-4.29,23,23,0,0,0-5.15-2.952q-3.112-1.34-6.707-2.789a26.047,26.047,0,0,1-6.7-3.97,19.9,19.9,0,0,1-5.154-6.492,22.3,22.3,0,0,1-2.038-10.192,24.37,24.37,0,0,1,2.631-11.8,23.783,23.783,0,0,1,6.76-7.888,26.721,26.721,0,0,1,9.335-4.4A41.418,41.418,0,0,1,737.6,432.921Z" transform="translate(-705.947 -432.921)" fill="#0f2269"/>
        </g>
      </g>
      <g id="Group_1824" data-name="Group 1824" transform="translate(287.33 4.613)">
        <g id="Group_1823" data-name="Group 1823">
          <path id="Path_6401" data-name="Path 6401" d="M774.7,465.265q-.319,4.08-.7,8.047t-.7,7.51q-.325,3.542-.484,6.33t-.163,4.292a7.1,7.1,0,0,0,.647,3.7,2.433,2.433,0,0,0,2.144.913,4.5,4.5,0,0,0,2.041-.43,11.886,11.886,0,0,0,1.609-.966c.5-.357.948-.678,1.343-.965a2.217,2.217,0,0,1,1.34-.428,1.787,1.787,0,0,1,1.394.857c.427.573.644,1.9.644,3.97q0,5.9-3.218,9.334t-11.053,3.434q-7.726,0-11.427-3.6t-3.7-11q0-1.61.161-3.812t.484-5.739q.325-3.539.805-8.69t1.019-12.768h-5.689q-.857,0-1.019-.374a3.044,3.044,0,0,1-.159-1.129l.323-5.472a22.411,22.411,0,0,1,.374-2.734,5.9,5.9,0,0,1,1.075-2.414,5.53,5.53,0,0,1,2.306-1.719,10.237,10.237,0,0,1,3.972-.643q.746-1.931,1.716-4.612t1.931-5.2a39.314,39.314,0,0,1,1.876-4.237c.609-1.143,1.164-1.719,1.664-1.719h3.111q4.51,0,6.225,2.79a12.48,12.48,0,0,1,1.718,6.654q0,2.145-.323,6.329H787.26q1.714,0,1.714,1.5l-.427,5.794a9.248,9.248,0,0,1-1.771,5.2q-1.557,1.988-6.385,1.985Z" transform="translate(-750.028 -435.006)" fill="#0f2269"/>
        </g>
      </g>
      <g id="Group_1826" data-name="Group 1826" transform="translate(326.707 20.387)">
        <g id="Group_1825" data-name="Group 1825">
          <path id="Path_6402" data-name="Path 6402" d="M803.489,457.46q0,2.253-.376,6.33t-.751,8.478q-.377,4.4-.748,8.261t-.379,5.581a8.433,8.433,0,0,0,1.878,5.846,6.634,6.634,0,0,0,5.2,2.092,6.2,6.2,0,0,0,4.881-2.3,17.662,17.662,0,0,0,3.221-6.01,53.211,53.211,0,0,0,1.983-8.422q.754-4.719,1.128-9.548t.643-9.389q.269-4.561.589-7.886a2.862,2.862,0,0,1,.646-1.5,2.107,2.107,0,0,1,1.715-.643h3.863a17.568,17.568,0,0,1,5.42.7,8.021,8.021,0,0,1,3.325,1.987,7.021,7.021,0,0,1,1.718,3.164,17.635,17.635,0,0,1,.481,4.346q0,1.61-.161,4.56t-.59,8.154q-.428,5.206-1.019,13.2t-1.449,19.8a8.959,8.959,0,0,1-.482,2.683c-.178.288-.771.429-1.771.429h-4.182a15.894,15.894,0,0,1-5.314-.75,9.88,9.88,0,0,1-3.38-1.932,6.559,6.559,0,0,1-1.823-2.789,13.018,13.018,0,0,1-.643-3.326,21.641,21.641,0,0,1-3.593,4.721,17.923,17.923,0,0,1-4.133,3.056,17.236,17.236,0,0,1-4.4,1.61,21.021,21.021,0,0,1-4.4.482,18.826,18.826,0,0,1-7.3-1.342,16.1,16.1,0,0,1-5.419-3.594,15.374,15.374,0,0,1-3.378-5.363,18.549,18.549,0,0,1-1.181-6.654q0-1.393.162-4.56t.428-7.135q.267-3.967.591-8.423t.587-8.423q.269-3.969.539-6.974t.374-4.292a4.761,4.761,0,0,1,.86-2.629,2.817,2.817,0,0,1,2.146-.7h3.433a19.48,19.48,0,0,1,5.474.643,8.255,8.255,0,0,1,3.379,1.825,6.326,6.326,0,0,1,1.717,2.843A13.75,13.75,0,0,1,803.489,457.46Z" transform="translate(-783.318 -448.341)" fill="#0f2269"/>
        </g>
      </g>
      <g id="Group_1828" data-name="Group 1828" transform="translate(384.216)">
        <g id="Group_1827" data-name="Group 1827">
          <path id="Path_6403" data-name="Path 6403" d="M852.755,511.578a21.577,21.577,0,0,1-7.994-1.5,17.182,17.182,0,0,1-6.653-4.721A23.431,23.431,0,0,1,833.6,497.2a37.393,37.393,0,0,1-1.666-11.908,62.742,62.742,0,0,1,.432-6.922,48.829,48.829,0,0,1,1.5-7.671,37.453,37.453,0,0,1,3-7.51,25.451,25.451,0,0,1,4.882-6.491,22.557,22.557,0,0,1,7.083-4.562,25.217,25.217,0,0,1,9.71-1.715,17.291,17.291,0,0,1,8.636,1.878q3.273,1.876,4.13,6.492.217-4.188.43-7.3t.376-5.794q.162-2.681.375-5.366t.428-6.117q.109-2.358.54-2.789a.953.953,0,0,1,.536-.267,8.526,8.526,0,0,1,1.181-.054h4.184a16.5,16.5,0,0,1,5.364.751,8.993,8.993,0,0,1,3.435,2.041,7.315,7.315,0,0,1,1.821,2.95,11.293,11.293,0,0,1,.539,3.486q-.432,5.368-.752,9.818t-.752,10.138q-.43,5.69-.856,11.751t-.862,12.017q-.427,5.954-.857,10.944t-.7,8.584q-.271,3.6-.376,4.775a4.308,4.308,0,0,1-.536,1.715c-.216.287-.823.429-1.825.429h-3.864a22.8,22.8,0,0,1-4.237-.374,9.759,9.759,0,0,1-3.433-1.289,6.237,6.237,0,0,1-2.254-2.466,8.76,8.76,0,0,1-.8-4.024A16.113,16.113,0,0,1,862.57,509,17.509,17.509,0,0,1,852.755,511.578Zm9.332-46.887a8.648,8.648,0,0,0-8.1,4.772q-2.631,4.779-2.628,12.823a39.086,39.086,0,0,0,.376,5.471,17.582,17.582,0,0,0,1.341,4.828,8.778,8.778,0,0,0,2.63,3.434,6.722,6.722,0,0,0,4.236,1.286q4.612,0,7.726-4.505t3.111-14.164a40.763,40.763,0,0,0-.322-5.2,13.827,13.827,0,0,0-1.285-4.452,8.127,8.127,0,0,0-2.684-3.112A7.616,7.616,0,0,0,862.088,464.691Z" transform="translate(-831.936 -431.106)" fill="#0f2269"/>
        </g>
      </g>
      <g id="Group_1830" data-name="Group 1830" transform="translate(444.3 20.387)">
        <g id="Group_1829" data-name="Group 1829">
          <path id="Path_6404" data-name="Path 6404" d="M904.189,458.212q0,2.469-.32,5.847t-.7,6.759q-.382,3.381-.7,6.33a45.19,45.19,0,0,0-.319,4.559q0,4.082,1.983,6.063a6.625,6.625,0,0,0,4.882,1.986q5.041,0,8.049-5.257t3.756-13.949l1.714-20.064a2.119,2.119,0,0,1,.806-1.662,2.666,2.666,0,0,1,1.554-.484h3.864a22.925,22.925,0,0,1,4.237.375,9.241,9.241,0,0,1,3.488,1.4,7.072,7.072,0,0,1,2.363,2.734,9.893,9.893,0,0,1,.857,4.4q0,1.073-.162,4.022t-.536,8.478q-.38,5.528-1.019,13.947t-1.5,20.547a28.145,28.145,0,0,1-3.165,11.751,21.8,21.8,0,0,1-6.6,7.4,24.863,24.863,0,0,1-8.9,3.809,47.454,47.454,0,0,1-10.088,1.074,48.456,48.456,0,0,1-10.031-.967,31.287,31.287,0,0,1-7.886-2.68,16.5,16.5,0,0,1-5.2-3.972,7.414,7.414,0,0,1-1.877-4.828,6.663,6.663,0,0,1,.914-3.539,7.489,7.489,0,0,1,2.411-2.468,11.419,11.419,0,0,1,3.489-1.451,17.551,17.551,0,0,1,4.129-.48,1.619,1.619,0,0,1,1.557,1.071,12.886,12.886,0,0,0,1.5,2.416,8.761,8.761,0,0,0,3.274,2.414,16.388,16.388,0,0,0,6.757,1.074,10.16,10.16,0,0,0,6.44-1.932A12.815,12.815,0,0,0,917.011,508a22.63,22.63,0,0,0,1.771-6.546,56.8,56.8,0,0,0,.429-6.759,19.426,19.426,0,0,1-3.81,4.882,17.046,17.046,0,0,1-4.343,2.9,16.545,16.545,0,0,1-4.507,1.341,30.223,30.223,0,0,1-4.293.322,23.14,23.14,0,0,1-7.242-1.073,13.715,13.715,0,0,1-5.633-3.487,16.061,16.061,0,0,1-3.646-6.278,29.653,29.653,0,0,1-1.29-9.334q0-2.034.215-5.418t.537-7.619q.323-4.237.7-9.174t.806-10.086q.215-3.325,3.006-3.325h3.432a19.934,19.934,0,0,1,5.58.643,7.9,7.9,0,0,1,3.38,1.879,6.3,6.3,0,0,1,1.661,3.112A19.029,19.029,0,0,1,904.189,458.212Z" transform="translate(-882.731 -448.341)" fill="#0f2269"/>
        </g>
      </g>
    </g>
    <path id="Path_7341" data-name="Path 7341" d="M238.509,265.921l.432,6.73,5.789,3.46-6.268,2.49-1.5,6.575-4.306-5.191-6.717.6,3.607-5.7-2.65-6.2,6.535,1.669Z" transform="translate(492.731 385.598)" fill="#ffe600"/>
    <path id="Path_7345" data-name="Path 7345" d="M238.509,265.921l.432,6.73,5.789,3.46-6.268,2.49-1.5,6.575-4.306-5.191-6.717.6,3.607-5.7-2.65-6.2,6.535,1.669Z" transform="translate(644.305 -159.402)" fill="#ffe600"/>
    <path id="Path_7342" data-name="Path 7342" d="M238.509,265.921l.432,6.73,5.789,3.46-6.268,2.49-1.5,6.575-4.306-5.191-6.717.6,3.607-5.7-2.65-6.2,6.535,1.669Z" transform="translate(10.731 -247.242)" fill="#ffe600"/>
    <path id="Path_7343" data-name="Path 7343" d="M235.6,265.921l.332,5.173,4.449,2.659-4.817,1.914-1.154,5.053-3.309-3.99-5.163.464,2.772-4.38-2.037-4.767,5.022,1.283Z" transform="translate(-191.269 254.598)" fill="#ffe600"/>
    <path id="Path_7344" data-name="Path 7344" d="M235.6,265.921l.332,5.173,4.449,2.659-4.817,1.914-1.154,5.053-3.309-3.99-5.163.464,2.772-4.38-2.037-4.767,5.022,1.283Z" transform="translate(621.731 109.268)" fill="#ffe600"/>
    <path id="Path_7349" data-name="Path 7349" d="M235.6,265.921l.332,5.173,4.449,2.659-4.817,1.914-1.154,5.053-3.309-3.99-5.163.464,2.772-4.38-2.037-4.767,5.022,1.283Z" transform="translate(-147.269 51.852)" fill="#ffe600"/>
    <path id="Path_7348" data-name="Path 7348" d="M235.6,265.921l.332,5.173,4.449,2.659-4.817,1.914-1.154,5.053-3.309-3.99-5.163.464,2.772-4.38-2.037-4.767,5.022,1.283Z" transform="translate(337.685 -202.861)" fill="#ffe600"/>
  </g>
</svg>
