<svg xmlns="http://www.w3.org/2000/svg" width="137.671" height="88.76" viewBox="0 0 137.671 88.76">
  <g id="Group_2090" data-name="Group 2090" transform="translate(9213.12 8241.152)" style="isolation: isolate">
    <ellipse id="Ellipse_2094" data-name="Ellipse 2094" cx="42.086" cy="42.086" rx="42.086" ry="42.086" transform="translate(-9208 -8237.004)" fill="#98c026"/>
    <g id="Group_1459" data-name="Group 1459" transform="translate(-9187.461 -8237.601)">
      <g id="Group_1458" data-name="Group 1458">
        <path id="Path_6296" data-name="Path 6296" d="M347.08,219.626a42.191,42.191,0,0,0,19.863,5.139,42.458,42.458,0,0,0,10.209-.863,41.127,41.127,0,0,0,18.222-9.007l.969-.842.929-.886.465-.443.444-.464.886-.929a42.453,42.453,0,0,0,3.21-4,41.261,41.261,0,0,0,7.2-29.221,41.886,41.886,0,0,0-.972-5.038l-.351-1.235-.176-.617-.206-.608-.411-1.216-.468-1.2a41.451,41.451,0,0,0-11.961-16.44,41.087,41.087,0,0,0-18.352-8.742,42.951,42.951,0,0,0-10.239-1.071,43.847,43.847,0,0,0-10.281,1.454,42.092,42.092,0,0,1,20.8-1.794A38.32,38.32,0,0,1,382,142.958l1.259.426,1.236.487c.832.306,1.625.706,2.436,1.061a43.73,43.73,0,0,1,8.928,5.717,42.887,42.887,0,0,1,12.377,17.011l.484,1.238.426,1.259.213.629.183.639.363,1.278a43.32,43.32,0,0,1,1.007,5.214,42.7,42.7,0,0,1-7.455,30.238,43.915,43.915,0,0,1-3.321,4.143l-.917.962-.459.48-.481.458-.962.917-1,.871a42.565,42.565,0,0,1-18.858,9.321c-.43.106-.87.164-1.305.248s-.87.167-1.31.222l-1.318.168c-.22.027-.439.059-.659.08l-.662.05-1.325.1-1.327.048a25.4,25.4,0,0,1-2.656-.013,41.022,41.022,0,0,1-19.807-6.586Z" transform="translate(-347.08 -141.045)" fill="#ffe600"/>
      </g>
    </g>
    <g id="Group_1462" data-name="Group 1462" transform="translate(-9206.234 -8225.818)">
      <g id="Group_1461" data-name="Group 1461">
        <g id="Group_1460" data-name="Group 1460">
          <path id="Path_6297" data-name="Path 6297" d="M258.192,202.846l-.145,4.651,3.749,2.756-4.468,1.3-1.463,4.418-2.617-3.848L248.6,212.1l2.851-3.678-1.413-4.434,4.379,1.575Z" transform="translate(-248.596 -202.846)" fill="#ffe600"/>
        </g>
      </g>
    </g>
    <g id="Group_1465" data-name="Group 1465" transform="translate(-9210.554 -8213.797)">
      <g id="Group_1464" data-name="Group 1464">
        <g id="Group_1463" data-name="Group 1463">
          <path id="Path_6298" data-name="Path 6298" d="M233.489,265.921l.259,4.042,3.477,2.078-3.764,1.5-.9,3.949-2.586-3.118-4.034.363,2.166-3.423-1.592-3.725,3.925,1Z" transform="translate(-225.939 -265.921)" fill="#ffe600"/>
        </g>
      </g>
    </g>
    <g id="Group_1468" data-name="Group 1468" transform="translate(-9213.12 -8202.157)">
      <g id="Group_1467" data-name="Group 1467">
        <g id="Group_1466" data-name="Group 1466">
          <path id="Path_6299" data-name="Path 6299" d="M218.019,326.979l1.219,3.385,3.479.915-2.843,2.205.205,3.592-2.976-2.022-3.353,1.3,1-3.455-2.277-2.785,3.6-.113Z" transform="translate(-212.477 -326.979)" fill="#ffe600"/>
        </g>
      </g>
    </g>
    <g id="Group_1471" data-name="Group 1471" transform="translate(-9211.604 -8190.082)">
      <g id="Group_1470" data-name="Group 1470">
        <g id="Group_1469" data-name="Group 1469">
          <path id="Path_6300" data-name="Path 6300" d="M224.647,390.313l1.662,2.7,3.168.163-2.057,2.415.824,3.064-2.933-1.209-2.659,1.73.244-3.163-2.467-1.994,3.084-.745Z" transform="translate(-220.429 -390.313)" fill="#ffe600"/>
        </g>
      </g>
    </g>
    <g id="Group_1474" data-name="Group 1474" transform="translate(-9206.473 -8178.535)">
      <g id="Group_1473" data-name="Group 1473">
        <g id="Group_1472" data-name="Group 1472">
          <path id="Path_6301" data-name="Path 6301" d="M249.767,450.875l1.918,1.716,2.5-.607-1.039,2.355,1.35,2.191-2.561-.261-1.667,1.962-.543-2.516-2.38-.979,2.225-1.294Z" transform="translate(-247.347 -450.875)" fill="#ffe600"/>
        </g>
      </g>
    </g>
    <g id="Group_1477" data-name="Group 1477" transform="translate(-9199.693 -8169.446)">
      <g id="Group_1476" data-name="Group 1476">
        <g id="Group_1475" data-name="Group 1475">
          <path id="Path_6302" data-name="Path 6302" d="M283.687,498.961l1.964.781,1.757-1.175-.136,2.109,1.661,1.308-2.048.522-.731,1.984-1.13-1.787-2.112-.082,1.35-1.627Z" transform="translate(-282.912 -498.567)" fill="#ffe600"/>
        </g>
      </g>
    </g>
    <g id="Group_1480" data-name="Group 1480" transform="translate(-9192.971 -8163.717)">
      <g id="Group_1479" data-name="Group 1479">
        <g id="Group_1478" data-name="Group 1478">
          <path id="Path_6303" data-name="Path 6303" d="M318.209,529.508l1.656.306,1.191-1.191.221,1.669,1.5.764-1.52.726L321,533.446l-1.16-1.221-1.663.264.8-1.481Z" transform="translate(-318.172 -528.623)" fill="#ffe600"/>
        </g>
      </g>
    </g>
    <g id="Group_1506" data-name="Group 1506" transform="translate(-9170.527 -8181.58)">
      <g id="Group_1483" data-name="Group 1483" transform="translate(1.11 1.009)">
        <g id="Group_1482" data-name="Group 1482">
          <g id="Group_1481" data-name="Group 1481">
            <path id="Path_6304" data-name="Path 6304" d="M454.632,461.267c-.407,0-.839,0-1.27-.008-.074,0-.148,0-.226-.008-1.069-.033-2.137-.111-2.943-.21-.193-.021-.37-.045-.53-.066a.025.025,0,0,0-.016,0,2.568,2.568,0,0,1-.806-.2c-.691-.559-.711-7.321-.559-10.5.033-.736-4-3.654-6.544-6.4l5.738-3.666c1.4,2.413,4.62,7,4.513,8.817-.053.949-.37,5.853-.46,8.812,0,0,.115.008,2,.284a5.607,5.607,0,0,1,.818.177l.074.025c.066.021.132.041.193.066a3.994,3.994,0,0,1,.7.321c.127.078.247.156.358.239a.086.086,0,0,0,.025.016c.049.041.1.078.144.119s.1.091.148.136l.131.131c.021.025.045.049.061.07a.51.51,0,0,1,.074.091,1.311,1.311,0,0,1,.136.185,1.013,1.013,0,0,1,.078.123,2.048,2.048,0,0,1,.193.415C456.876,460.9,456.149,461.242,454.632,461.267Z" transform="translate(-441.738 -440.206)" fill="#e25316"/>
          </g>
        </g>
      </g>
      <g id="Group_1486" data-name="Group 1486" transform="translate(10.816 18.642)">
        <g id="Group_1485" data-name="Group 1485">
          <g id="Group_1484" data-name="Group 1484">
            <path id="Path_6305" data-name="Path 6305" d="M496.946,536.035a.56.56,0,0,0,.148-.625,2.18,2.18,0,0,0-.193-.423.988.988,0,0,0-.078-.123,1.6,1.6,0,0,0-.136-.189.488.488,0,0,0-.074-.09c-.016-.021-.041-.045-.061-.07l-.132-.136c-.045-.045-.094-.09-.148-.136s-.094-.082-.144-.123a.094.094,0,0,1-.025-.016c-.111-.082-.23-.16-.358-.243a3.986,3.986,0,0,0-.7-.325c-.062-.025-.127-.045-.193-.066l-.074-.025a5.124,5.124,0,0,0-.818-.181c-1.882-.279-1.175-.287-1.175-.287,0-.091,0-.177.008-.271.131.021.559.078,1.944.279a5.567,5.567,0,0,1,.818.177l.074.024c.066.021.131.041.193.066a3.988,3.988,0,0,1,.7.321c.127.078.247.156.358.239a.086.086,0,0,0,.025.016c.049.041.1.078.144.119s.1.091.148.136l.132.131c.021.025.045.049.062.07a.482.482,0,0,1,.074.091,1.3,1.3,0,0,1,.136.185,1.026,1.026,0,0,1,.078.123,2.045,2.045,0,0,1,.193.415C498.023,535.575,497.7,535.887,496.946,536.035Z" transform="translate(-492.652 -532.706)" fill="#f67815"/>
          </g>
        </g>
      </g>
      <g id="Group_1489" data-name="Group 1489" transform="translate(1.155 4.729)">
        <g id="Group_1488" data-name="Group 1488">
          <g id="Group_1487" data-name="Group 1487">
            <path id="Path_6306" data-name="Path 6306" d="M448.469,466.041c-.456-.966-4.123-3.72-6.494-6.318l0,0C444.5,462.42,448.42,465.273,448.469,466.041Z" transform="translate(-441.975 -459.72)" fill="#f5720e"/>
          </g>
        </g>
      </g>
      <g id="Group_1492" data-name="Group 1492" transform="translate(10.901 8.683)">
        <g id="Group_1491" data-name="Group 1491">
          <g id="Group_1490" data-name="Group 1490">
            <path id="Path_6307" data-name="Path 6307" d="M493.151,490.421l-.053,0c.09-2.959.407-7.863.46-8.813a3.344,3.344,0,0,0-.206-1.143,3.458,3.458,0,0,1,.251,1.278C493.55,482.677,493.25,487.4,493.151,490.421Z" transform="translate(-493.098 -480.462)" fill="#f5720e"/>
          </g>
        </g>
      </g>
      <g id="Group_1495" data-name="Group 1495" transform="translate(0.899 0.897)">
        <g id="Group_1494" data-name="Group 1494">
          <g id="Group_1493" data-name="Group 1493">
            <path id="Path_6308" data-name="Path 6308" d="M448.537,449.207c-.152,3.181-.69,10.724,0,11.287a2.571,2.571,0,0,1-.806-.2c-.691-.559-.711-7.321-.559-10.5.033-.736-4-3.654-6.543-6.4l5.944-3.779c.165.279.35.592.555.925l-3.281,2.233C446.391,445.521,448.57,448.476,448.537,449.207Z" transform="translate(-440.629 -439.617)" fill="#d34319"/>
          </g>
        </g>
      </g>
      <g id="Group_1498" data-name="Group 1498">
        <g id="Group_1497" data-name="Group 1497">
          <g id="Group_1496" data-name="Group 1496">
            <path id="Path_6309" data-name="Path 6309" d="M442.763,435.922c1.4,2.414,4.618,7,4.515,8.815-.054.952-.373,5.853-.464,8.815,0,0,.116.008,2,.28a3.593,3.593,0,0,1,3.134,2.116c.214.668-.514,1.01-2.032,1.032-.13,0-.263,0-.4,0a22.472,22.472,0,0,1-5.392-.492c-.692-.563-.711-7.323-.56-10.5.035-.735-4-3.654-6.542-6.4l5.737-3.664m.246-1.01-.632.4-5.737,3.664-.724.463.584.631c1.17,1.263,2.612,2.531,3.884,3.65a21.821,21.821,0,0,1,2.461,2.345c-.069,1.531-.1,4-.032,6.176.141,4.219.575,4.571.861,4.8.744.6,5.8.654,5.845.654.138,0,.274,0,.408,0,1.352-.02,2.161-.279,2.547-.816a1.267,1.267,0,0,0,.159-1.153,4.278,4.278,0,0,0-3.716-2.608c-.456-.066-.965-.139-1.363-.194.09-2.4.289-5.65.389-7.287.024-.392.042-.691.052-.862.086-1.515-1.444-4.1-3.454-7.324-.435-.7-.846-1.357-1.156-1.893l-.376-.649Z" transform="translate(-435.915 -434.913)" fill="#fff"/>
          </g>
        </g>
      </g>
      <g id="Group_1502" data-name="Group 1502" transform="translate(10.454 18.018)">
        <g id="Group_1501" data-name="Group 1501">
          <g id="Group_1500" data-name="Group 1500">
            <g id="Group_1499" data-name="Group 1499">
              <path id="Path_6310" data-name="Path 6310" d="M490.754,530.73a3.143,3.143,0,0,1,.431-.71,2.3,2.3,0,0,1,.691-.587l.214.686A2.329,2.329,0,0,0,490.754,530.73Z" transform="translate(-490.754 -529.433)" fill="#fff"/>
            </g>
          </g>
        </g>
      </g>
      <g id="Group_1505" data-name="Group 1505" transform="translate(6.691 10.148)">
        <g id="Group_1504" data-name="Group 1504">
          <g id="Group_1503" data-name="Group 1503">
            <path id="Path_6311" data-name="Path 6311" d="M471.267,488.145a6.043,6.043,0,0,0,.833.784,2.23,2.23,0,0,0,1.029.5A2.318,2.318,0,0,1,472,489.08a6.3,6.3,0,0,1-.989-.681Z" transform="translate(-471.013 -488.145)" fill="#fff"/>
          </g>
        </g>
      </g>
    </g>
    <g id="Group_1519" data-name="Group 1519" transform="translate(-9187.837 -8196.735)">
      <g id="Group_1509" data-name="Group 1509" transform="translate(0.719 0.719)">
        <g id="Group_1508" data-name="Group 1508">
          <g id="Group_1507" data-name="Group 1507">
            <path id="Path_6312" data-name="Path 6312" d="M375.854,369.925c.794,5.53-4.587,10.879-12.019,11.947s-14.1-2.551-14.9-8.081,6.679-13.417,14.111-14.485S375.06,364.394,375.854,369.925Z" transform="translate(-348.882 -359.184)" fill="#e25316"/>
          </g>
        </g>
      </g>
      <g id="Group_1512" data-name="Group 1512" transform="translate(1.276 5.111)">
        <g id="Group_1511" data-name="Group 1511">
          <g id="Group_1510" data-name="Group 1510">
            <path id="Path_6313" data-name="Path 6313" d="M366.2,400.522c-6.585.946-12.565-1.784-14.4-6.26,3.1,3.115,8.862,4.044,14.476,1.956,6.934-2.581,11.044-8.8,9.293-13.991a14.024,14.024,0,0,1,2.647,6.346C379.014,394.106,373.633,399.453,366.2,400.522Z" transform="translate(-351.804 -382.227)" fill="#d34319"/>
          </g>
        </g>
      </g>
      <g id="Group_1515" data-name="Group 1515" transform="translate(0.725 0.719)">
        <g id="Group_1514" data-name="Group 1514">
          <g id="Group_1513" data-name="Group 1513">
            <path id="Path_6314" data-name="Path 6314" d="M369.224,360.2a15.764,15.764,0,0,0-2.972.057c-7.888.871-16.125,7.218-17.337,12.52.148-5.438,7.172-12.471,14.164-13.474A10.4,10.4,0,0,1,369.224,360.2Z" transform="translate(-348.915 -359.186)" fill="#f67815"/>
          </g>
        </g>
      </g>
      <g id="Group_1518" data-name="Group 1518">
        <g id="Group_1517" data-name="Group 1517">
          <g id="Group_1516" data-name="Group 1516">
            <path id="Path_6315" data-name="Path 6315" d="M361.666,356.133c6.448,0,10.4,5.637,11.135,10.741.794,5.531-4.587,10.879-12.019,11.947a18.239,18.239,0,0,1-2.591.187c-6.334,0-11.6-3.39-12.3-8.268-.794-5.531,6.679-13.417,14.111-14.485a11.719,11.719,0,0,1,1.668-.122m0-.719h0a12.506,12.506,0,0,0-1.77.129c-7.746,1.112-15.587,9.262-14.721,15.3.74,5.148,6.213,8.884,13.015,8.884a19.022,19.022,0,0,0,2.693-.194c7.813-1.122,13.478-6.846,12.628-12.76-.811-5.644-5.14-11.358-11.846-11.358Z" transform="translate(-345.109 -355.414)" fill="#fff"/>
          </g>
        </g>
      </g>
    </g>
    <g id="Group_1556" data-name="Group 1556" transform="translate(-9154.154 -8195.72)">
      <g id="Group_1522" data-name="Group 1522" transform="translate(0.719 0.253)">
        <g id="Group_1521" data-name="Group 1521">
          <g id="Group_1520" data-name="Group 1520">
            <path id="Path_6316" data-name="Path 6316" d="M526.66,365.277s3.387,5.165,6.62,5.586a15.513,15.513,0,0,0,6.777-.786,2.2,2.2,0,0,1,.087-1.787,3.779,3.779,0,0,1,2.111-1.081,3.739,3.739,0,0,1,1.2-3.764c2.048-1.625,3.734-1.6,4.211-.991s-.128,1.948-1.03,2.546a7.059,7.059,0,0,0-2.143,2.234s2.532-.138,3.1,1.372-1.3,1.7-2.355,3.551-1.857,2.79-3.851,3.28c-1.663.408-6.642-.126-8.935-.857-1.71-.545-6.059-4.174-6.709-5.88S526.66,365.277,526.66,365.277Z" transform="translate(-525.584 -362.072)" fill="#e25316"/>
          </g>
        </g>
      </g>
      <g id="Group_1525" data-name="Group 1525" transform="translate(0.531 4.549)">
        <g id="Group_1524" data-name="Group 1524">
          <g id="Group_1523" data-name="Group 1523">
            <path id="Path_6317" data-name="Path 6317" d="M526.852,384.607a.626.626,0,0,1,.4.682c-.022.817-.392,2.288.437,3.267a14.941,14.941,0,0,0,3.962,3.4,17.708,17.708,0,0,0,6.393,1.845l-6.227-.446-3.851-2.252-1.991-2.261-1.382-1.478Z" transform="translate(-524.596 -384.607)" fill="#d34319"/>
          </g>
        </g>
      </g>
      <g id="Group_1528" data-name="Group 1528" transform="translate(19.224 0.589)">
        <g id="Group_1527" data-name="Group 1527">
          <g id="Group_1526" data-name="Group 1526">
            <path id="Path_6318" data-name="Path 6318" d="M625.121,363.964s1.235.6.54,1.233-2.424,1.609-3,2.6l1.036.315,2.733-2.066.389-1.032-.624-1.177Z" transform="translate(-622.657 -363.834)" fill="#f67815"/>
          </g>
        </g>
      </g>
      <g id="Group_1531" data-name="Group 1531" transform="translate(14.663 11.702)">
        <g id="Group_1530" data-name="Group 1530">
          <g id="Group_1529" data-name="Group 1529">
            <path id="Path_6319" data-name="Path 6319" d="M599.134,422.134s.335,1.119,1.1,1.275a4.616,4.616,0,0,0,3.167-1.051l-.607.983-2.151,1.032H599.4l-.664-1.5Z" transform="translate(-598.732 -422.134)" fill="#ef5413"/>
          </g>
        </g>
      </g>
      <g id="Group_1534" data-name="Group 1534" transform="translate(17.941 5.034)">
        <g id="Group_1533" data-name="Group 1533">
          <g id="Group_1532" data-name="Group 1532">
            <path id="Path_6320" data-name="Path 6320" d="M615.924,387.479s2.674.389,3.631,1.2a1.055,1.055,0,0,1,.105,1.666,6.466,6.466,0,0,0-1.332,1.85,4.906,4.906,0,0,1-.481,1.111l1.6-1.661,1.915-1.732-.315-1.325-1.5-.853-2.729-.577Z" transform="translate(-615.924 -387.153)" fill="#f67815"/>
          </g>
        </g>
      </g>
      <g id="Group_1537" data-name="Group 1537" transform="translate(16.889 1.519)">
        <g id="Group_1536" data-name="Group 1536">
          <g id="Group_1535" data-name="Group 1535">
            <path id="Path_6321" data-name="Path 6321" d="M612.743,368.712a6.059,6.059,0,0,0-1.4,2.918l-.118.335-.813-.144.538-2.164Z" transform="translate(-610.408 -368.712)" fill="#ef5413"/>
          </g>
        </g>
      </g>
      <g id="Group_1540" data-name="Group 1540">
        <g id="Group_1539" data-name="Group 1539">
          <g id="Group_1538" data-name="Group 1538">
            <path id="Path_6322" data-name="Path 6322" d="M543.2,361.465a2.1,2.1,0,0,1,1.237.383c.665.472-.387,1.641-1.29,2.239a4.951,4.951,0,0,0-1.713,2.091s2.6.328,3.109,1.356c.716,1.446-1.3,1.7-2.355,3.551s-1.857,2.79-3.851,3.28a7.63,7.63,0,0,1-1.679.141,29.189,29.189,0,0,1-7.256-1c-1.71-.545-6.059-4.174-6.709-5.88s.918-3.423.918-3.423,3.387,5.164,6.62,5.586a12.587,12.587,0,0,0,1.626.1A15.885,15.885,0,0,0,537,369a2.2,2.2,0,0,1,.087-1.787,3.779,3.779,0,0,1,2.111-1.082,3.426,3.426,0,0,1,1.27-3.482,4.517,4.517,0,0,1,2.725-1.189m0-.719a5.261,5.261,0,0,0-3.172,1.345,4.1,4.1,0,0,0-1.621,3.5,3.818,3.818,0,0,0-1.883,1.187,2.336,2.336,0,0,0-.365,1.749,15.548,15.548,0,0,1-4.3.647,11.943,11.943,0,0,1-1.533-.1c-2.379-.311-5.218-3.908-6.112-5.268l-.508-.773-.624.683c-.076.083-1.857,2.068-1.058,4.164.72,1.889,5.25,5.7,7.162,6.308a29.754,29.754,0,0,0,7.474,1.033,8.219,8.219,0,0,0,1.851-.162c2.215-.544,3.152-1.6,4.3-3.622a5.391,5.391,0,0,1,1.359-1.464c.713-.59,1.691-1.4,1.016-2.762a3.988,3.988,0,0,0-2.631-1.558,4.03,4.03,0,0,1,.988-.971c.184-.122,1.8-1.227,1.821-2.417a1.18,1.18,0,0,0-.511-1.006,2.835,2.835,0,0,0-1.654-.515Z" transform="translate(-521.811 -360.746)" fill="#fff"/>
          </g>
        </g>
      </g>
      <g id="Group_1543" data-name="Group 1543" transform="translate(14.782 10.232)">
        <g id="Group_1542" data-name="Group 1542">
          <g id="Group_1541" data-name="Group 1541">
            <path id="Path_6323" data-name="Path 6323" d="M599.355,415.053a3.443,3.443,0,0,1,1-.445,5.171,5.171,0,0,1,1.013-.177,6,6,0,0,1,1.007.02,7.31,7.31,0,0,1,.975.174,7.178,7.178,0,0,0-.977.006,5.761,5.761,0,0,0-.947.155,4.74,4.74,0,0,0-.878.326,2.9,2.9,0,0,0-.72.485Z" transform="translate(-599.355 -414.419)" fill="#fff"/>
          </g>
        </g>
      </g>
      <g id="Group_1546" data-name="Group 1546" transform="translate(13.828 7.659)">
        <g id="Group_1545" data-name="Group 1545">
          <g id="Group_1544" data-name="Group 1544">
            <path id="Path_6324" data-name="Path 6324" d="M596.063,407.763a2.315,2.315,0,0,1-1.339-1.679,2.679,2.679,0,0,1,.612-1.889,2,2,0,0,1-.959-1.321,2.546,2.546,0,0,1,.694-1.954l.52.5a1.85,1.85,0,0,0-.505,1.338,1.559,1.559,0,0,0,.965,1.024l.451.226-.361.353a2.331,2.331,0,0,0-.705,1.634,1.652,1.652,0,0,0,.974,1.143Z" transform="translate(-594.352 -400.921)" fill="#fff"/>
          </g>
        </g>
      </g>
      <g id="Group_1549" data-name="Group 1549" transform="translate(13.957 7.586)">
        <g id="Group_1548" data-name="Group 1548">
          <g id="Group_1547" data-name="Group 1547">
            <path id="Path_6325" data-name="Path 6325" d="M595.024,401.176a2.848,2.848,0,0,1,.583-.3,4.322,4.322,0,0,1,.583-.184,5.7,5.7,0,0,1,1.179-.152,6.97,6.97,0,0,1,1.163.074c.191.025.379.069.567.1l.556.141-.568-.052c-.19,0-.378-.018-.567-.013a6.762,6.762,0,0,0-1.114.1,5.242,5.242,0,0,0-1.049.307,3.8,3.8,0,0,0-.476.237,2.256,2.256,0,0,0-.394.283Z" transform="translate(-595.024 -400.539)" fill="#fff"/>
          </g>
        </g>
      </g>
      <g id="Group_1552" data-name="Group 1552" transform="translate(15.149 13.275)">
        <g id="Group_1551" data-name="Group 1551">
          <g id="Group_1550" data-name="Group 1550">
            <path id="Path_6326" data-name="Path 6326" d="M601.278,430.384a1.2,1.2,0,0,0,.99.412l-.325.244-.544-.256Z" transform="translate(-601.278 -430.384)" fill="#fff"/>
          </g>
        </g>
      </g>
      <g id="Group_1555" data-name="Group 1555" transform="translate(17.079 4.437)">
        <g id="Group_1554" data-name="Group 1554">
          <g id="Group_1553" data-name="Group 1553">
            <path id="Path_6327" data-name="Path 6327" d="M611.444,385.032a8.308,8.308,0,0,1,2.637,0l.59-.774a6.279,6.279,0,0,0-3.266,0Z" transform="translate(-611.406 -384.023)" fill="#fff"/>
          </g>
        </g>
      </g>
    </g>
    <g id="Group_1569" data-name="Group 1569" transform="translate(-9169.082 -8203.327)">
      <g id="Group_1559" data-name="Group 1559" transform="translate(0.268 0.545)">
        <g id="Group_1558" data-name="Group 1558" transform="translate(0 0)">
          <g id="Group_1557" data-name="Group 1557" transform="translate(0)">
            <ellipse id="Ellipse_1955" data-name="Ellipse 1955" cx="7.405" cy="6.939" rx="7.405" ry="6.939" transform="translate(0 6.542) rotate(-26.215)" fill="#d34319"/>
          </g>
        </g>
      </g>
      <g id="Group_1562" data-name="Group 1562" transform="translate(0 0)">
        <g id="Group_1561" data-name="Group 1561">
          <g id="Group_1560" data-name="Group 1560">
            <ellipse id="Ellipse_1956" data-name="Ellipse 1956" cx="7.405" cy="5.962" rx="7.405" ry="5.962" transform="translate(0 6.542) rotate(-26.215)" fill="#e25316"/>
          </g>
        </g>
      </g>
      <g id="Group_1565" data-name="Group 1565" transform="translate(2.569 3.121)">
        <g id="Group_1564" data-name="Group 1564">
          <g id="Group_1563" data-name="Group 1563">
            <path id="Path_6328" data-name="Path 6328" d="M462.378,337.208a12.585,12.585,0,0,0-2.063,2.109,14.285,14.285,0,0,0-1.518,2.427,11.95,11.95,0,0,0-.964,2.672,6.732,6.732,0,0,0-.123,2.913,4.517,4.517,0,0,1-.717-3.025,7.969,7.969,0,0,1,.838-3.038,8.828,8.828,0,0,1,1.863-2.523A6.215,6.215,0,0,1,462.378,337.208Z" transform="translate(-456.98 -337.208)" fill="#f67815"/>
          </g>
        </g>
      </g>
      <g id="Group_1568" data-name="Group 1568" transform="translate(1.937 2.289)">
        <g id="Group_1567" data-name="Group 1567">
          <g id="Group_1566" data-name="Group 1566">
            <path id="Path_6329" data-name="Path 6329" d="M462.075,333.56a6.9,6.9,0,0,1,6.272,3.762,7.183,7.183,0,0,1-3.579,9.5,7.774,7.774,0,0,1-3.436.808,6.9,6.9,0,0,1-6.272-3.762,7.184,7.184,0,0,1,3.579-9.5,7.772,7.772,0,0,1,3.436-.808m0-.719a8.546,8.546,0,0,0-3.754.883,8.33,8.33,0,0,0-4.155,4.528,7.393,7.393,0,0,0,.249,5.931,7.6,7.6,0,0,0,6.917,4.164,8.55,8.55,0,0,0,3.754-.882,8.33,8.33,0,0,0,4.155-4.528,7.392,7.392,0,0,0-.249-5.931,7.6,7.6,0,0,0-6.917-4.164Z" transform="translate(-453.665 -332.841)" fill="#fff"/>
          </g>
        </g>
      </g>
    </g>
    <g id="Group_1587" data-name="Group 1587" transform="translate(-9186.822 -8181.917)">
      <ellipse id="Ellipse_1957" data-name="Ellipse 1957" cx="4.275" cy="4.275" rx="4.275" ry="4.275" transform="translate(7.697)" fill="#fff"/>
      <g id="Group_1572" data-name="Group 1572" transform="translate(0.719 5.072)">
        <g id="Group_1571" data-name="Group 1571">
          <g id="Group_1570" data-name="Group 1570">
            <path id="Path_6330" data-name="Path 6330" d="M368.261,461.274s-2.471,5.16-3.306,6.716-5.667,4.9-5.667,4.9-.5.308.44.611a10.125,10.125,0,0,1,1.656.7c1.33.711,2.1,1.57,1.507,2.024-1.492,1.15-2.4,1.374-5.7.07-2.864-1.13-3.557-2.49-2.545-3.439,1.626-1.525,6.481-5.961,6.481-5.961l.691-7.136Z" transform="translate(-354.205 -459.752)" fill="#f67815"/>
          </g>
        </g>
      </g>
      <g id="Group_1575" data-name="Group 1575" transform="translate(0.173 2.823)">
        <g id="Group_1574" data-name="Group 1574">
          <g id="Group_1573" data-name="Group 1573">
            <path id="Path_6331" data-name="Path 6331" d="M366.586,450.205s-2.647,7.334-3.577,8.841-6.492,4.622-6.492,4.622-.521.279.41.635a10.324,10.324,0,0,1,1.631.79c1.3.786,2.024,1.688,1.405,2.107-1.57,1.063-2.495,1.235-5.755-.256-2.824-1.291-3.447-2.689-2.372-3.579,1.726-1.429,6.873-5.581,6.873-5.581l3.724-9.827Z" transform="translate(-351.34 -447.957)" fill="#e25316"/>
          </g>
        </g>
      </g>
      <g id="Group_1578" data-name="Group 1578" transform="translate(0 4.183)">
        <g id="Group_1577" data-name="Group 1577">
          <g id="Group_1576" data-name="Group 1576">
            <path id="Path_6332" data-name="Path 6332" d="M365.564,456.846s-2.826,5.814-3.661,7.371-5.667,4.9-5.667,4.9-.5.308.44.611a10.146,10.146,0,0,1,1.656.7c1.33.711,2.1,1.57,1.507,2.024a3.573,3.573,0,0,1-2.321.959,9.847,9.847,0,0,1-3.381-.889c-2.864-1.13-3.557-2.49-2.545-3.439,1.626-1.525,6.48-5.961,6.48-5.961l.711-7.87m.146.034-.8-.189h0l-.08.819-.665,6.862c-.94.859-4.862,4.449-6.283,5.781a1.888,1.888,0,0,0-.634,1.763c.206,1.079,1.384,2.071,3.407,2.869a10.4,10.4,0,0,0,3.645.939,4.26,4.26,0,0,0,2.759-1.108,1.182,1.182,0,0,0,.476-1.046c-.076-.922-1.175-1.695-2.083-2.18a10.7,10.7,0,0,0-1.313-.587c1.435-1.033,4.464-3.312,5.178-4.644.833-1.553,3.22-6.534,3.321-6.746l.385-.8-.868-.2-6.445-1.522" transform="translate(-350.434 -455.09)" fill="#fff"/>
          </g>
        </g>
      </g>
      <g id="Group_1581" data-name="Group 1581" transform="translate(4.547 17.901)">
        <g id="Group_1580" data-name="Group 1580">
          <g id="Group_1579" data-name="Group 1579">
            <path id="Path_6333" data-name="Path 6333" d="M374.287,528.418a5.271,5.271,0,0,1,.869-.816,2.987,2.987,0,0,1,1.18-.551l.028.881a2.3,2.3,0,0,0-1.015.066A5.028,5.028,0,0,0,374.287,528.418Z" transform="translate(-374.287 -527.051)" fill="#fff"/>
          </g>
        </g>
      </g>
      <path id="Path_6334" data-name="Path 6334" d="M369.029,440.225a5.431,5.431,0,0,1-.8,2.368c-.011.025-.025.05-.036.074s-.04.078-.057.118a.3.3,0,0,0-.017.034l-.017.034c-.015.038-.034.078-.057.122l-1.807-1.393-3.727,6.9s-5.469,4.093-7.1,5.618c-1.012.95-.429,2.562,2.436,3.693-.21-.074-.431-.16-.661-.251-2.862-1.131-3.555-2.492-2.545-3.441,1.628-1.525,6.483-5.959,6.483-5.959s.679-7.326.713-7.934a3.694,3.694,0,0,1,3.62-3.62A3.538,3.538,0,0,1,369.029,440.225Z" transform="translate(-353.485 -435.929)" fill="#d34319"/>
      <g id="Group_1586" data-name="Group 1586" transform="translate(7.316 11.386)">
        <g id="Group_1585" data-name="Group 1585">
          <g id="Group_1584" data-name="Group 1584">
            <g id="Group_1583" data-name="Group 1583">
              <path id="Path_6335" data-name="Path 6335" d="M389.172,492.874a4.328,4.328,0,0,0,.031.8,2.1,2.1,0,0,0,.088.39.805.805,0,0,0,.2.344.846.846,0,0,1-.284-.306,2.216,2.216,0,0,1-.181-.384,4.566,4.566,0,0,1-.216-.823Z" transform="translate(-388.813 -492.874)" fill="#fff"/>
            </g>
          </g>
        </g>
      </g>
      <path id="Path_6336" data-name="Path 6336" d="M403.765,436.834a3.57,3.57,0,0,0-2.2.754,5.279,5.279,0,0,1,1.718,2.222,3.607,3.607,0,0,1,.336,1.165c.006.054.007.107.011.16a5.306,5.306,0,0,1,.043.667,5.25,5.25,0,0,1-.338,1.856c-.034.115-.069.227-.1.333a8.02,8.02,0,0,1-.562,1.308l2.169,1.051,2.035-4.1.337-.778a3.6,3.6,0,0,0-3.447-4.632Z" transform="translate(-391.819 -436.131)" fill="#e25316"/>
    </g>
    <g id="Group_1613" data-name="Group 1613" transform="translate(-9197.509 -8240.65)">
      <g id="Group_1594" data-name="Group 1594">
        <g id="Group_1590" data-name="Group 1590" transform="translate(0.359 0.359)">
          <g id="Group_1589" data-name="Group 1589">
            <g id="Group_1588" data-name="Group 1588">
              <path id="Path_6337" data-name="Path 6337" d="M310.515,162.783a1.4,1.4,0,0,1-1.23-.731l-12.851-23.6a1.4,1.4,0,0,1,.56-1.9l17.34-9.442a1.4,1.4,0,0,1,1.9.56l12.852,23.6a1.4,1.4,0,0,1-.56,1.9l-17.339,9.442A1.4,1.4,0,0,1,310.515,162.783Z" transform="translate(-296.263 -126.94)" fill="#0f2269"/>
            </g>
          </g>
        </g>
        <g id="Group_1593" data-name="Group 1593">
          <g id="Group_1592" data-name="Group 1592">
            <g id="Group_1591" data-name="Group 1591">
              <path id="Path_6338" data-name="Path 6338" d="M313.476,125.775a1.04,1.04,0,0,1,.915.543l12.851,23.6a1.04,1.04,0,0,1-.416,1.411l-17.34,9.442a1.04,1.04,0,0,1-1.411-.416l-12.851-23.6a1.041,1.041,0,0,1,.416-1.412l17.34-9.442a1.034,1.034,0,0,1,.5-.127m0-.719h0a1.763,1.763,0,0,0-.84.214l-17.34,9.442a1.761,1.761,0,0,0-.7,2.386l12.852,23.6a1.759,1.759,0,0,0,2.386.7l17.34-9.442a1.759,1.759,0,0,0,.7-2.386l-12.851-23.6a1.759,1.759,0,0,0-1.546-.918Z" transform="translate(-294.378 -125.056)" fill="#fff"/>
            </g>
          </g>
        </g>
      </g>
      <g id="Group_1597" data-name="Group 1597" transform="translate(1.802 1.938)">
        <g id="Group_1596" data-name="Group 1596" transform="translate(0 0)">
          <g id="Group_1595" data-name="Group 1595" transform="translate(0 0)">
            <rect id="Rectangle_507" data-name="Rectangle 507" width="19.92" height="24.816" transform="translate(0 9.526) rotate(-28.571)" fill="#fff"/>
          </g>
        </g>
      </g>
      <g id="Group_1600" data-name="Group 1600" transform="translate(21.831 29.18)">
        <g id="Group_1599" data-name="Group 1599">
          <g id="Group_1598" data-name="Group 1598">
            <path id="Path_6339" data-name="Path 6339" d="M408.9,279.45l3.086-1.32a3.316,3.316,0,0,0,.153,1.11l-2.523,1.374Z" transform="translate(-408.898 -278.13)" fill="#0f2269"/>
          </g>
        </g>
      </g>
      <g id="Group_1603" data-name="Group 1603" transform="translate(21.831 29.18)">
        <g id="Group_1602" data-name="Group 1602">
          <g id="Group_1601" data-name="Group 1601">
            <path id="Path_6340" data-name="Path 6340" d="M408.9,279.45l3.086-1.32a3.316,3.316,0,0,0,.153,1.11l-2.523,1.374Z" transform="translate(-408.898 -278.13)" fill="#0f2269"/>
          </g>
        </g>
      </g>
      <g id="Group_1606" data-name="Group 1606" transform="translate(21.831 29.18)">
        <g id="Group_1605" data-name="Group 1605">
          <g id="Group_1604" data-name="Group 1604">
            <path id="Path_6341" data-name="Path 6341" d="M408.9,279.45l3.086-1.32a3.316,3.316,0,0,0,.153,1.11l-2.523,1.374Z" transform="translate(-408.898 -278.13)" fill="#0f2269"/>
          </g>
        </g>
      </g>
      <g id="Group_1609" data-name="Group 1609" transform="translate(21.831 29.18)">
        <g id="Group_1608" data-name="Group 1608">
          <g id="Group_1607" data-name="Group 1607">
            <path id="Path_6342" data-name="Path 6342" d="M408.9,279.45l3.086-1.32a3.316,3.316,0,0,0,.153,1.11l-2.523,1.374Z" transform="translate(-408.898 -278.13)" fill="#0f2269"/>
          </g>
        </g>
      </g>
      <g id="Group_1612" data-name="Group 1612" transform="translate(10.356 10.168)">
        <g id="Group_1611" data-name="Group 1611">
          <g id="Group_1610" data-name="Group 1610">
            <path id="Path_6343" data-name="Path 6343" d="M354.487,192.565l-5.266-2.455a.9.9,0,1,1,.759-1.628l2.911,1.357c.323-2.625,1.426-8.5,4.984-11.256a.9.9,0,1,1,1.1,1.421c-3.917,3.031-4.41,11.154-4.414,11.236Z" transform="translate(-348.702 -178.394)" fill="#0f2269"/>
          </g>
        </g>
      </g>
    </g>
    <g id="Group_1620" data-name="Group 1620" transform="translate(-9174.448 -8219.465)">
      <g id="Group_1616" data-name="Group 1616" transform="translate(0.552 0.718)">
        <g id="Group_1615" data-name="Group 1615">
          <g id="Group_1614" data-name="Group 1614">
            <path id="Path_6344" data-name="Path 6344" d="M431.5,259.891c-1.644,0-5.966-4.419-6.649-5.608a23.261,23.261,0,0,1-1.047-2.143h0s-.981-2.581-1.373-3.88c-.052-.238-.1-.5-.138-.782.166-.5,1.226-1.768,1.539-2.44a6.205,6.205,0,0,0,.3-2.554c-.049-.529-1.56-2.068-1.73-2.413s-.963.059-.733,1.138a6.729,6.729,0,0,0,.718,1.632c-.112.542-.889.993-1.245,1.406a4.072,4.072,0,0,0-.993,2.921l-1.9,1.011s3.23,6.3,4.213,7.917a29.3,29.3,0,0,0,5.758,5.427,5.684,5.684,0,0,0,2.174.965,2.275,2.275,0,0,0,.9-.706C431.785,261.018,432.006,259.891,431.5,259.891Z" transform="translate(-418.248 -239.95)" fill="#e25316"/>
          </g>
        </g>
      </g>
      <g id="Group_1619" data-name="Group 1619" transform="translate(4.617 8.392)">
        <g id="Group_1618" data-name="Group 1618">
          <g id="Group_1617" data-name="Group 1617">
            <path id="Path_6345" data-name="Path 6345" d="M439.572,280.207c.006.024.076,2.647.082,2.674.28,1.217,1.049,2.781,2.945,7.154.635,1.464-.158,1.3-.158,1.3l4.738,3.988,1.4-.874.414-1.59s-4.725-3.055-5.583-4.4" transform="translate(-439.572 -280.207)" fill="#d34319"/>
          </g>
        </g>
      </g>
      <path id="Path_6346" data-name="Path 6346" d="M428.684,256.113l-.048-.029a17.621,17.621,0,0,1-2.455-1.933,21.5,21.5,0,0,1-3.056-3.275,22.591,22.591,0,0,1-1-2.034l0-.006c-.01-.025-.963-2.535-1.35-3.8-.031-.149-.063-.316-.091-.5.126-.225.4-.621.6-.9a10.211,10.211,0,0,0,.848-1.338,6.825,6.825,0,0,0,.362-2.922c-.05-.528-.536-1.142-1.332-2.089-.178-.21-.418-.5-.475-.589a.936.936,0,0,0-.839-.507,1.2,1.2,0,0,0-.923.475,1.9,1.9,0,0,0-.314,1.651,4.3,4.3,0,0,0,.616,1.495,6.467,6.467,0,0,1-.57.553,5.628,5.628,0,0,0-.526.507,4.538,4.538,0,0,0-.927,3.332c0,.12.006.238.006.345l-1.245.671-.618.332.316.625c.116.229,2.848,5.625,3.835,7.25.837,1.382,4.785,4.4,6.914,5.972.03.023.061.046.093.067a2,2,0,1,0,2.175-3.346Zm-1.06,3.106c-.886-.031-1.55-.982-2-1.4-.94-.877-4.621-3.3-5.513-4.776-.984-1.618-3.807-7.2-3.807-7.2l1.048-.563c.063.156.131.307.208.454a5.363,5.363,0,0,0,.642.993,4.143,4.143,0,0,1-.25-1.114c-.009-.169-.023-.374-.038-.557s-.027-.246-.032-.5v0a4.911,4.911,0,0,1,.791-3.22c.357-.414,1.245-1,1.357-1.54a6.663,6.663,0,0,1-.719-1.632c-.175-.829.25-1.258.534-1.258a.211.211,0,0,1,.2.12c.17.343,1.681,1.883,1.729,2.411a6.209,6.209,0,0,1-.3,2.554c-.313.671-1.374,1.939-1.54,2.44.042.278.088.545.139.783.393,1.3,1.373,3.879,1.373,3.879.2.461.4.885.576,1.247s.339.667.471.9a19.236,19.236,0,0,0,3.338,3.7l.07.059c.288.246.867.673.875.679.107.072.211.141.315.2a9.339,9.339,0,0,0,.774.534c.225.128,1.232.674,1.165,1.392A1.446,1.446,0,0,1,427.624,259.219Z" transform="translate(-415.35 -236.185)" fill="#fff"/>
      <path id="Path_6347" data-name="Path 6347" d="M481.572,342.5a1.309,1.309,0,0,1-.522-.208A1.365,1.365,0,0,1,481.572,342.5Z" transform="translate(-468.525 -322.066)" fill="#fff"/>
      <path id="Path_6348" data-name="Path 6348" d="M471.6,335.528a10.8,10.8,0,0,1-.854-.663C470.9,334.985,471.229,335.248,471.6,335.528Z" transform="translate(-460.189 -316.054)" fill="#fff"/>
    </g>
    <g id="Group_1652" data-name="Group 1652" transform="translate(-9144.208 -8235.247)">
      <g id="Group_1624" data-name="Group 1624" transform="translate(0.915 2.449)">
        <g id="Group_1623" data-name="Group 1623">
          <g id="Group_1622" data-name="Group 1622">
            <g id="Group_1621" data-name="Group 1621">
              <path id="Path_6349" data-name="Path 6349" d="M581.135,177.469l-2.347-.759c.043-.131,4.379-13.078,16.771-9.994l-.6,2.393C584.818,166.585,581.28,177.024,581.135,177.469Z" transform="translate(-578.788 -166.241)" fill="#ff9b00"/>
            </g>
          </g>
        </g>
      </g>
      <g id="Group_1627" data-name="Group 1627" transform="translate(0 0.305)">
        <g id="Group_1626" data-name="Group 1626">
          <g id="Group_1625" data-name="Group 1625">
            <path id="Path_6350" data-name="Path 6350" d="M591.481,155.714a3.551,3.551,0,1,1-3.542,3.9c-6.972.055-9.944,6.768-10.569,8.409-.07.185-.111.3-.123.345l-2.347-.76c.041-.117,3.505-10.466,13.08-10.466.2,0,.4,0,.6.013l.04,0a3.551,3.551,0,0,1,2.862-1.445m0-.719a4.293,4.293,0,0,0-3.193,1.432c-.1,0-.206,0-.308,0-9.911,0-13.606,10.5-13.759,10.949l-.236.691.693.229,2.347.76.7.226.211-.7c.012-.038.048-.141.107-.3.682-1.79,3.327-7.513,9.3-7.921A4.271,4.271,0,1,0,591.481,155Z" transform="translate(-573.986 -154.995)" fill="#fff"/>
          </g>
        </g>
      </g>
      <g id="Group_1631" data-name="Group 1631" transform="translate(0.914 2.453)">
        <g id="Group_1630" data-name="Group 1630">
          <g id="Group_1629" data-name="Group 1629">
            <g id="Group_1628" data-name="Group 1628">
              <path id="Path_6351" data-name="Path 6351" d="M595.553,166.73l-.534,2.166-.058.23a13.2,13.2,0,0,0-2.458-.378c-7.46-.395-10.6,6.7-11.25,8.393-.07.185-.111.3-.123.345l-2.347-.76c.041-.119,3.65-10.9,13.679-10.452A15.2,15.2,0,0,1,595.553,166.73Z" transform="translate(-578.783 -166.261)" fill="#f67815"/>
            </g>
          </g>
        </g>
      </g>
      <g id="Group_1635" data-name="Group 1635" transform="translate(2.106 2.45)">
        <g id="Group_1634" data-name="Group 1634">
          <g id="Group_1633" data-name="Group 1633">
            <g id="Group_1632" data-name="Group 1632">
              <path id="Path_6352" data-name="Path 6352" d="M601.806,166.719l-.6,2.4c-.386-.095-.764-.173-1.13-.23a11.617,11.617,0,0,0-2.516-.148c-7.46-.395-10.6,6.7-11.25,8.393l-1.278-.415c.037-.115,3.358-10.033,12.487-10.452A14.662,14.662,0,0,1,601.806,166.719Z" transform="translate(-585.036 -166.247)" fill="#f5720e"/>
            </g>
          </g>
        </g>
      </g>
      <g id="Group_1639" data-name="Group 1639" transform="translate(2.106 2.451)">
        <g id="Group_1638" data-name="Group 1638">
          <g id="Group_1637" data-name="Group 1637">
            <g id="Group_1636" data-name="Group 1636">
              <path id="Path_6353" data-name="Path 6353" d="M601.806,166.723l-.6,2.4c-.386-.094-.764-.172-1.13-.23a11.614,11.614,0,0,0-2.516-.148c-.21-.012-.415-.016-.616-.016-.313,0-.617.016-.912.041-6.367.563-9.121,6.794-9.721,8.369l-1.278-.415c.037-.115,3.358-10.033,12.487-10.452h.041c.115-.008.226-.012.345-.012A14.84,14.84,0,0,1,601.806,166.723Z" transform="translate(-585.036 -166.252)" fill="#e25316"/>
            </g>
          </g>
        </g>
      </g>
      <g id="Group_1642" data-name="Group 1642" transform="translate(13.106 2.072)">
        <g id="Group_1641" data-name="Group 1641">
          <g id="Group_1640" data-name="Group 1640">
            <path id="Path_6354" data-name="Path 6354" d="M645.024,164.261a3.048,3.048,0,0,0-.415.382,2.327,2.327,0,0,0-.23.267,3.558,3.558,0,0,0-.732,2.2c-.313,0-.616.016-.913.041a3.517,3.517,0,0,1,1.529-2.5A3.129,3.129,0,0,1,645.024,164.261Z" transform="translate(-642.735 -164.261)" fill="#d34319"/>
          </g>
        </g>
      </g>
      <g id="Group_1645" data-name="Group 1645" transform="translate(12.913 0)">
        <g id="Group_1644" data-name="Group 1644" transform="translate(0)">
          <g id="Group_1643" data-name="Group 1643" transform="translate(0)">
            <ellipse id="Ellipse_1959" data-name="Ellipse 1959" cx="3.552" cy="3.552" rx="3.552" ry="3.552" transform="translate(0 2.502) rotate(-20.62)" fill="#e25316"/>
          </g>
        </g>
      </g>
      <g id="Group_1648" data-name="Group 1648" transform="translate(14.678 0.862)">
        <g id="Group_1647" data-name="Group 1647" transform="translate(0 0)">
          <g id="Group_1646" data-name="Group 1646" transform="translate(0)">
            <ellipse id="Ellipse_1960" data-name="Ellipse 1960" cx="2.09" cy="2.792" rx="2.09" ry="2.792" transform="translate(0 4.173) rotate(-86.615)" fill="#f67815"/>
          </g>
        </g>
      </g>
      <g id="Group_1651" data-name="Group 1651" transform="translate(14.031 4.498)">
        <g id="Group_1650" data-name="Group 1650">
          <g id="Group_1649" data-name="Group 1649">
            <path id="Path_6355" data-name="Path 6355" d="M649.061,180.009a3.514,3.514,0,0,1-1.471-2.14,3.907,3.907,0,0,0,.993.956,4.051,4.051,0,0,0,5.62-1.092,3.882,3.882,0,0,0,.392-.745,3.546,3.546,0,0,1-5.534,3.021Z" transform="translate(-647.59 -176.988)" fill="#d34319"/>
          </g>
        </g>
      </g>
    </g>
    <g id="Group_1686" data-name="Group 1686" transform="translate(-9155.883 -8241.152)">
      <g id="Group_1656" data-name="Group 1656" transform="translate(0.74 3.019)">
        <g id="Group_1655" data-name="Group 1655">
          <g id="Group_1654" data-name="Group 1654">
            <g id="Group_1653" data-name="Group 1653">
              <path id="Path_6356" data-name="Path 6356" d="M524.9,140.432a12.559,12.559,0,0,0-2.573,1.8c-.136.123-.263.247-.386.374-5.187,5.245-1.862,12.935-1.694,13.3L518,156.918c-.053-.127-5.52-12.639,5.746-18.661Z" transform="translate(-516.623 -138.257)" fill="#f5720e"/>
            </g>
          </g>
        </g>
      </g>
      <g id="Group_1661" data-name="Group 1661" transform="translate(0 0.253)">
        <g id="Group_1658" data-name="Group 1658" transform="translate(0.74 0.719)">
          <g id="Group_1657" data-name="Group 1657">
            <path id="Path_6357" data-name="Path 6357" d="M528.441,130.773a3.55,3.55,0,0,0-7.087.348l-.02.017c-.074.057-.148.119-.218.181-.045.037-.086.074-.127.107-7.53,6.4-3.042,16.679-2.992,16.8l2.252-1.011c-.012-.029-.049-.111-.1-.238-.013-.033-.025-.066-.041-.1-.621-1.586-2.783-8.184,1.755-12.877.025-.029.053-.058.082-.086l.033-.033c.111-.115.23-.23.354-.341a.074.074,0,0,0,.009-.009,3.551,3.551,0,0,0,6.1-2.752Z" transform="translate(-516.625 -127.516)" fill="#f5720e"/>
          </g>
        </g>
        <g id="Group_1660" data-name="Group 1660">
          <g id="Group_1659" data-name="Group 1659">
            <path id="Path_6358" data-name="Path 6358" d="M514.472,146.133l-.283-.686c-.476-1.122-4.43-11.138,3.191-17.62l.121-.1a4.268,4.268,0,0,1,8.512-.064h0a4.27,4.27,0,0,1-6.79,3.791c-4.284,4.446-2.078,10.864-1.592,12.106.01.02.028.067.045.114l.071.164.3.692Zm7.289-20.949c-.079,0-.158,0-.238.01a2.837,2.837,0,0,0-2.593,2.865l.005.33-.3.266c-.062.049-.125.1-.185.153l-.151.128c-6.023,5.122-3.921,12.831-3.046,15.273l.934-.419c-.708-1.967-2.585-8.569,2.005-13.333.032-.035.067-.071.1-.107l.033-.033c.109-.113.234-.234.363-.351l.518-.518.508.53a2.832,2.832,0,0,0,4.867-2.2h0A2.836,2.836,0,0,0,521.761,125.184Z" transform="translate(-512.742 -123.746)" fill="#fff"/>
          </g>
        </g>
      </g>
      <g id="Group_1665" data-name="Group 1665" transform="translate(0.74 3.019)">
        <g id="Group_1664" data-name="Group 1664">
          <g id="Group_1663" data-name="Group 1663">
            <g id="Group_1662" data-name="Group 1662">
              <path id="Path_6359" data-name="Path 6359" d="M524.9,140.432a12.768,12.768,0,0,0-2.54,1.763.247.247,0,0,1-.033.033c-.123.111-.243.226-.354.341l-.033.033c-5.187,5.245-1.862,12.935-1.693,13.3L518,156.918c-.049-.119-4.674-10.7,3.337-17.086l.082-.07a15.878,15.878,0,0,1,2.327-1.5Z" transform="translate(-516.625 -138.257)" fill="#ff9b00"/>
            </g>
          </g>
        </g>
      </g>
      <g id="Group_1669" data-name="Group 1669" transform="translate(0.74 3.019)">
        <g id="Group_1668" data-name="Group 1668">
          <g id="Group_1667" data-name="Group 1667">
            <g id="Group_1666" data-name="Group 1666">
              <path id="Path_6360" data-name="Path 6360" d="M524.9,140.432a12.465,12.465,0,0,0-2.125,1.414c-.144.111-.284.23-.415.349a.255.255,0,0,1-.033.033c-.123.111-.243.226-.354.341l-.033.033c-.029.029-.057.058-.082.086-4.538,4.694-2.376,11.291-1.755,12.877.016.037.029.07.041.1.053.128.09.21.1.238L518,156.918c-.049-.119-4.538-10.395,2.992-16.8.041-.033.082-.07.127-.107.07-.062.144-.123.218-.181l.082-.07a15.888,15.888,0,0,1,2.327-1.5l1.044,1.957.033.062Z" transform="translate(-516.625 -138.257)" fill="#f67815"/>
            </g>
          </g>
        </g>
      </g>
      <g id="Group_1673" data-name="Group 1673" transform="translate(1.582 2.238)">
        <g id="Group_1672" data-name="Group 1672">
          <g id="Group_1671" data-name="Group 1671">
            <g id="Group_1670" data-name="Group 1670">
              <path id="Path_6361" data-name="Path 6361" d="M529.319,136.335c-.255.136-.5.275-.732.419-.078.045-.152.094-.226.144a11.978,11.978,0,0,0-1.583,1.2.241.241,0,0,1-.033.033c-.07.062-.136.128-.2.193-.144.111-.284.23-.415.349a.234.234,0,0,1-.033.033c-.123.111-.242.226-.353.341l-.033.033c-.094.095-.189.193-.275.292-4.538,4.694-2.376,11.291-1.755,12.877l-1.266.572c-.05-.115-4.188-9.593,2.15-16.018.1-.1.209-.21.321-.312.271-.259.559-.51.867-.756l.082-.07a15.886,15.886,0,0,1,2.326-1.5Z" transform="translate(-521.04 -134.161)" fill="#e25316"/>
            </g>
          </g>
        </g>
      </g>
      <g id="Group_1676" data-name="Group 1676" transform="translate(5.411 4.524)">
        <g id="Group_1675" data-name="Group 1675">
          <g id="Group_1674" data-name="Group 1674">
            <path id="Path_6362" data-name="Path 6362" d="M542.195,148.582a.245.245,0,0,1-.033.033c-.123.111-.243.226-.354.341a3.883,3.883,0,0,1-.666-1.887,3.643,3.643,0,0,1,.025-.851l.082-.07c0,.1,0,.21.012.316A3.5,3.5,0,0,0,542.195,148.582Z" transform="translate(-541.129 -146.149)" fill="#d34319"/>
          </g>
        </g>
      </g>
      <g id="Group_1679" data-name="Group 1679" transform="translate(5.429 0.935)">
        <g id="Group_1678" data-name="Group 1678" transform="translate(0 0)">
          <g id="Group_1677" data-name="Group 1677" transform="translate(0)">
            <ellipse id="Ellipse_1961" data-name="Ellipse 1961" cx="3.552" cy="3.552" rx="3.552" ry="3.552" transform="translate(0 0.073) rotate(-0.591)" fill="#e25316"/>
          </g>
        </g>
      </g>
      <g id="Group_1682" data-name="Group 1682" transform="translate(4.694 0)">
        <g id="Group_1681" data-name="Group 1681" transform="translate(0)">
          <g id="Group_1680" data-name="Group 1680" transform="translate(0)">
            <ellipse id="Ellipse_1962" data-name="Ellipse 1962" cx="2.792" cy="2.09" rx="2.792" ry="2.09" transform="translate(0 3.232) rotate(-35.368)" fill="#f67815"/>
          </g>
        </g>
      </g>
      <g id="Group_1685" data-name="Group 1685" transform="translate(6.824 2.242)">
        <g id="Group_1684" data-name="Group 1684">
          <g id="Group_1683" data-name="Group 1683">
            <path id="Path_6363" data-name="Path 6363" d="M551.027,140a3.515,3.515,0,0,1-2.486-.748,3.909,3.909,0,0,0,1.373.123,4.051,4.051,0,0,0,3.7-4.369,3.89,3.89,0,0,0-.16-.826,3.546,3.546,0,0,1-2.425,5.82Z" transform="translate(-548.541 -134.181)" fill="#d34319"/>
          </g>
        </g>
      </g>
    </g>
    <g id="Group_1699" data-name="Group 1699" transform="translate(-9164.781 -8223.968)">
      <g id="Group_1689" data-name="Group 1689" transform="translate(0.717 0.718)">
        <g id="Group_1688" data-name="Group 1688">
          <g id="Group_1687" data-name="Group 1687">
            <path id="Path_6364" data-name="Path 6364" d="M502.344,231.935c0,8.615-7.279,15.6-16.264,15.6a16.463,16.463,0,0,1-13.231-6.523,15.105,15.105,0,0,1-3.038-9.08c0-8.615,7.283-15.6,16.268-15.6a16.734,16.734,0,0,1,7.353,1.681A15.546,15.546,0,0,1,502.344,231.935Z" transform="translate(-469.811 -216.332)" fill="#f67815"/>
          </g>
        </g>
      </g>
      <g id="Group_1692" data-name="Group 1692" transform="translate(1.724 1.347)">
        <g id="Group_1691" data-name="Group 1691">
          <g id="Group_1690" data-name="Group 1690">
            <path id="Path_6365" data-name="Path 6365" d="M506.62,234.6c0,8.615-7.279,15.6-16.264,15.6a16.464,16.464,0,0,1-13.231-6.523,15.886,15.886,0,0,1-2.03-7.785,16.491,16.491,0,0,1,16.7-16.269,16.958,16.958,0,0,1,5.915,1.052A15.546,15.546,0,0,1,506.62,234.6Z" transform="translate(-475.094 -219.631)" fill="#e25316"/>
          </g>
        </g>
      </g>
      <g id="Group_1695" data-name="Group 1695" transform="translate(3.602 2.017)">
        <g id="Group_1694" data-name="Group 1694">
          <g id="Group_1693" data-name="Group 1693">
            <path id="Path_6366" data-name="Path 6366" d="M514.595,237.45c0,8.615-7.279,15.6-16.265,15.6a16.447,16.447,0,0,1-13.383-6.733,14.319,14.319,0,0,0,6.646,3.346c8.023,1.661,15.928-3.753,17.654-12.088a15.523,15.523,0,0,0-4.41-14.431A15.6,15.6,0,0,1,514.595,237.45Z" transform="translate(-484.947 -223.146)" fill="#d34319"/>
          </g>
        </g>
      </g>
      <g id="Group_1698" data-name="Group 1698">
        <g id="Group_1697" data-name="Group 1697">
          <g id="Group_1696" data-name="Group 1696">
            <path id="Path_6367" data-name="Path 6367" d="M483.036,213.284c8.983,0,16.266,6.985,16.266,15.6s-7.283,15.6-16.266,15.6-16.266-6.985-16.266-15.6,7.283-15.6,16.266-15.6m0-.719c-9.366,0-16.985,7.321-16.985,16.32s7.62,16.32,16.985,16.32,16.985-7.321,16.985-16.32-7.619-16.32-16.985-16.32Z" transform="translate(-466.051 -212.565)" fill="#fff"/>
          </g>
        </g>
      </g>
    </g>
    <g id="Group_1713" data-name="Group 1713" transform="translate(-9153.38 -8219.63)">
      <g id="Group_1702" data-name="Group 1702" transform="translate(0 0)">
        <g id="Group_1701" data-name="Group 1701">
          <g id="Group_1700" data-name="Group 1700">
            <ellipse id="Ellipse_1963" data-name="Ellipse 1963" cx="4.46" cy="5.51" rx="4.46" ry="5.51" transform="translate(0 2.068) rotate(-13.404)" fill="#fff"/>
          </g>
        </g>
      </g>
      <g id="Group_1705" data-name="Group 1705" transform="translate(3.221 3.503)">
        <g id="Group_1704" data-name="Group 1704">
          <g id="Group_1703" data-name="Group 1703">
            <path id="Path_6368" data-name="Path 6368" d="M547.462,256.025a2.414,2.414,0,1,0-1.621,3.385A2.683,2.683,0,0,0,547.462,256.025Z" transform="translate(-542.77 -253.682)" fill="#0f2269"/>
          </g>
        </g>
      </g>
      <g id="Group_1709" data-name="Group 1709" transform="translate(0.748 0.785)">
        <g id="Group_1708" data-name="Group 1708">
          <g id="Group_1707" data-name="Group 1707">
            <g id="Group_1706" data-name="Group 1706">
              <path id="Path_6369" data-name="Path 6369" d="M539.007,244a6.106,6.106,0,0,0-2.006-3.28,4.032,4.032,0,0,0-3.568-.872,3.564,3.564,0,0,0-1.574.938,4.508,4.508,0,0,0-.979,1.55,6.41,6.41,0,0,0,1.625,6.813,4.535,4.535,0,0,0,1.572.941,3.56,3.56,0,0,0,1.827.128,4.032,4.032,0,0,0,2.791-2.386A6.105,6.105,0,0,0,539.007,244Zm0,0a6.56,6.56,0,0,1-.219,3.871,4.865,4.865,0,0,1-1.064,1.673,3.919,3.919,0,0,1-1.737,1.026,3.989,3.989,0,0,1-2.05,0,4.856,4.856,0,0,1-1.835-.944,6.563,6.563,0,0,1-1.791-7.524,4.876,4.876,0,0,1,1.212-1.669,3.991,3.991,0,0,1,1.827-.928,3.92,3.92,0,0,1,2.012.132,4.877,4.877,0,0,1,1.7,1.012A6.559,6.559,0,0,1,539.007,244Z" transform="translate(-529.801 -239.424)" fill="#0f2269"/>
            </g>
          </g>
        </g>
      </g>
      <g id="Group_1712" data-name="Group 1712" transform="translate(5.664 3.415)">
        <g id="Group_1711" data-name="Group 1711">
          <g id="Group_1710" data-name="Group 1710">
            <path id="Path_6370" data-name="Path 6370" d="M557.605,254.008a1.023,1.023,0,1,0-.758,1.233A1.023,1.023,0,0,0,557.605,254.008Z" transform="translate(-555.587 -253.222)" fill="#fff"/>
          </g>
        </g>
      </g>
    </g>
    <g id="Group_1727" data-name="Group 1727" transform="translate(-9141.088 -8222.253)">
      <g id="Group_1716" data-name="Group 1716" transform="translate(0 0)">
        <g id="Group_1715" data-name="Group 1715">
          <g id="Group_1714" data-name="Group 1714">
            <ellipse id="Ellipse_1964" data-name="Ellipse 1964" cx="3.836" cy="4.738" rx="3.836" ry="4.738" transform="translate(0 2.632) rotate(-20.064)" fill="#fff"/>
          </g>
        </g>
      </g>
      <g id="Group_1719" data-name="Group 1719" transform="translate(3.135 3.309)">
        <g id="Group_1718" data-name="Group 1718">
          <g id="Group_1717" data-name="Group 1717">
            <path id="Path_6371" data-name="Path 6371" d="M610.791,240.679a2.076,2.076,0,1,0-1.047,3.053A2.308,2.308,0,0,0,610.791,240.679Z" transform="translate(-606.79 -238.918)" fill="#0f2269"/>
          </g>
        </g>
      </g>
      <g id="Group_1723" data-name="Group 1723" transform="translate(0.939 0.99)">
        <g id="Group_1722" data-name="Group 1722">
          <g id="Group_1721" data-name="Group 1721">
            <g id="Group_1720" data-name="Group 1720">
              <path id="Path_6372" data-name="Path 6372" d="M603.163,230.217a5.225,5.225,0,0,0-2.045-2.6A3.447,3.447,0,0,0,598,227.25a3.36,3.36,0,0,0-1.9,2.368,5.5,5.5,0,0,0,2.05,5.61,3.363,3.363,0,0,0,2.977.586,3.448,3.448,0,0,0,2.148-2.295A5.221,5.221,0,0,0,603.163,230.217Zm0,0a5.679,5.679,0,0,1,.206,3.33,4.207,4.207,0,0,1-.736,1.543,3.387,3.387,0,0,1-1.385,1.063,3.811,3.811,0,0,1-3.445-.41,5.659,5.659,0,0,1-2.3-6.3,3.815,3.815,0,0,1,2.37-2.533,3.39,3.39,0,0,1,1.743-.08,4.221,4.221,0,0,1,1.558.7A5.673,5.673,0,0,1,603.163,230.217Z" transform="translate(-595.271 -226.757)" fill="#0f2269"/>
            </g>
          </g>
        </g>
      </g>
      <g id="Group_1726" data-name="Group 1726" transform="translate(5.069 3.11)">
        <g id="Group_1725" data-name="Group 1725">
          <g id="Group_1724" data-name="Group 1724">
            <ellipse id="Ellipse_1965" data-name="Ellipse 1965" cx="0.88" cy="0.88" rx="0.88" ry="0.88" fill="#fff"/>
          </g>
        </g>
      </g>
    </g>
    <g id="Group_1763" data-name="Group 1763" transform="translate(-9144.162 -8207.456)">
      <g id="Group_1731" data-name="Group 1731" transform="translate(9.874)">
        <g id="Group_1730" data-name="Group 1730">
          <g id="Group_1729" data-name="Group 1729">
            <g id="Group_1728" data-name="Group 1728">
              <path id="Path_6373" data-name="Path 6373" d="M626.017,299.534a1.83,1.83,0,0,1,1.1-.364,1.113,1.113,0,0,1,.593.158.741.741,0,0,1,.336.493,1.135,1.135,0,0,0-.932-.382A9.943,9.943,0,0,0,626.017,299.534Z" transform="translate(-626.017 -299.17)" fill="#0f2269"/>
            </g>
          </g>
        </g>
      </g>
      <g id="Group_1734" data-name="Group 1734" transform="translate(0.07 0.052)">
        <g id="Group_1733" data-name="Group 1733">
          <g id="Group_1732" data-name="Group 1732">
            <path id="Path_6374" data-name="Path 6374" d="M574.586,302.99a14.823,14.823,0,0,0,6.136-.607,21.169,21.169,0,0,0,5.039-2.939,2.48,2.48,0,0,1,.117,2.1c-.511.927-4.76,4.319-8.774,4.292C577.1,305.834,576.69,303.272,574.586,302.99Z" transform="translate(-574.586 -299.444)" fill="#0f2269"/>
          </g>
        </g>
      </g>
      <g id="Group_1741" data-name="Group 1741" transform="translate(1.16 5.697)">
        <g id="Group_1737" data-name="Group 1737" transform="translate(0 0.349)">
          <g id="Group_1736" data-name="Group 1736">
            <g id="Group_1735" data-name="Group 1735">
              <path id="Path_6375" data-name="Path 6375" d="M580.3,331.218a12.849,12.849,0,0,0,2.239-.334" transform="translate(-580.305 -330.884)" fill="#0f2269"/>
            </g>
          </g>
        </g>
        <g id="Group_1740" data-name="Group 1740">
          <g id="Group_1739" data-name="Group 1739">
            <g id="Group_1738" data-name="Group 1738">
              <path id="Path_6376" data-name="Path 6376" d="M580.3,329.737a12.5,12.5,0,0,0,2.153-.683l.172.7A12.852,12.852,0,0,1,580.3,329.737Z" transform="translate(-580.305 -329.054)" fill="#0f2269"/>
            </g>
          </g>
        </g>
      </g>
      <g id="Group_1748" data-name="Group 1748" transform="translate(0 3.575)">
        <g id="Group_1744" data-name="Group 1744">
          <g id="Group_1743" data-name="Group 1743">
            <g id="Group_1742" data-name="Group 1742">
              <path id="Path_6377" data-name="Path 6377" d="M574.218,317.922a12.869,12.869,0,0,0,2.2.517" transform="translate(-574.218 -317.922)" fill="#0f2269"/>
            </g>
          </g>
        </g>
        <g id="Group_1747" data-name="Group 1747">
          <g id="Group_1746" data-name="Group 1746">
            <g id="Group_1745" data-name="Group 1745">
              <path id="Path_6378" data-name="Path 6378" d="M574.218,317.922a12.469,12.469,0,0,0,2.253.161l-.1.712A12.845,12.845,0,0,1,574.218,317.922Z" transform="translate(-574.218 -317.922)" fill="#0f2269"/>
            </g>
          </g>
        </g>
      </g>
      <g id="Group_1751" data-name="Group 1751" transform="translate(2.603 1.059)">
        <g id="Group_1750" data-name="Group 1750">
          <g id="Group_1749" data-name="Group 1749">
            <path id="Path_6379" data-name="Path 6379" d="M587.871,307.978a17.417,17.417,0,0,0,4.877-1.319c1.734-.936,3.43-1.933,3.43-1.933l-.068.849a12.337,12.337,0,0,1-3.362,2.679,20.193,20.193,0,0,1-3.93,1.5Z" transform="translate(-587.871 -304.726)" fill="#fff"/>
          </g>
        </g>
      </g>
      <g id="Group_1758" data-name="Group 1758" transform="translate(2.203 4.578)">
        <g id="Group_1754" data-name="Group 1754" transform="translate(0 0.036)">
          <g id="Group_1753" data-name="Group 1753">
            <g id="Group_1752" data-name="Group 1752">
              <path id="Path_6380" data-name="Path 6380" d="M585.772,323.979a15.828,15.828,0,0,0,3.481-.6" transform="translate(-585.772 -323.375)" fill="#0f2269"/>
            </g>
          </g>
        </g>
        <g id="Group_1757" data-name="Group 1757" transform="translate(0.051)">
          <g id="Group_1756" data-name="Group 1756">
            <g id="Group_1755" data-name="Group 1755">
              <path id="Path_6381" data-name="Path 6381" d="M586.037,323.609c.586-.019,1.176-.055,1.762-.108.293-.028.586-.061.877-.1a3.79,3.79,0,0,0,.855-.213,3.814,3.814,0,0,1-.837.3c-.288.074-.578.137-.87.195-.584.113-1.169.208-1.76.288Z" transform="translate(-586.037 -323.184)" fill="#0f2269"/>
            </g>
          </g>
        </g>
      </g>
      <g id="Group_1762" data-name="Group 1762" transform="translate(8.9 1.133)">
        <g id="Group_1761" data-name="Group 1761">
          <g id="Group_1760" data-name="Group 1760">
            <g id="Group_1759" data-name="Group 1759">
              <path id="Path_6382" data-name="Path 6382" d="M623.2,305.39c-.37.261-.742.515-1.119.762-.189.123-.378.246-.572.362a3.986,3.986,0,0,1-.6.314,3.985,3.985,0,0,0,.548-.387c.175-.14.345-.286.515-.432.339-.293.673-.594,1-.9Z" transform="translate(-620.908 -305.111)" fill="#0f2269"/>
            </g>
          </g>
        </g>
      </g>
    </g>
    <g id="Group_1766" data-name="Group 1766" transform="translate(-9175.676 -8211.468)">
      <g id="Group_1765" data-name="Group 1765">
        <g id="Group_1764" data-name="Group 1764">
          <path id="Path_6383" data-name="Path 6383" d="M408.9,279.45l3.086-1.32a3.316,3.316,0,0,0,.153,1.11l-2.523,1.374Z" transform="translate(-408.898 -278.13)" fill="#0f2269"/>
        </g>
      </g>
    </g>
    <g id="Group_1769" data-name="Group 1769" transform="translate(-9175.172 -8211.788)">
      <g id="Group_1768" data-name="Group 1768">
        <g id="Group_1767" data-name="Group 1767">
          <path id="Path_6384" data-name="Path 6384" d="M412.983,277.157a.718.718,0,1,1-.718-.718A.718.718,0,0,1,412.983,277.157Z" transform="translate(-411.547 -276.439)" fill="#fff"/>
        </g>
      </g>
    </g>
    <g id="Group_1810" data-name="Group 1810" transform="translate(-9157.672 -8183.025)">
      <g id="Group_1773" data-name="Group 1773" transform="translate(0 0.346)">
        <g id="Group_1772" data-name="Group 1772">
          <g id="Group_1771" data-name="Group 1771">
            <g id="Group_1770" data-name="Group 1770">
              <path id="Path_6385" data-name="Path 6385" d="M505.862,443.039a2.621,2.621,0,0,1-1.889-.589,2.211,2.211,0,0,1-.628-1.669q0-.236.027-.755.026-.5.079-1.185l.112-1.469q.06-.8.13-1.63.086-1.02.146-1.754t.094-1.25q.035-.53.061-.887c.016-.226.027-.424.033-.595l.018-.5c.005-.14.007-.292.007-.456a.942.942,0,0,1,.395-.788,1.016,1.016,0,0,1,.584-.19c.292,0,.611-.008.951-.025s.707-.037,1.06-.06.71-.044,1.047-.061.655-.027.919-.027a6.725,6.725,0,0,1,2.132.305,3.71,3.71,0,0,1,2.469,2.476,6.173,6.173,0,0,1,.268,1.88,7.889,7.889,0,0,1-.3,2.159,5.54,5.54,0,0,1-.965,1.916,4.812,4.812,0,0,1-1.724,1.363,5.637,5.637,0,0,1-2.455.5c-.214,0-.416-.008-.606-.026l-.182,2.388a1.1,1.1,0,0,1-.241.613.943.943,0,0,1-.753.311Zm2.251-7.151c.072,0,.14.007.2.007a.886.886,0,0,0,.54-.137,1.287,1.287,0,0,0,.374-.452,2.215,2.215,0,0,0,.209-.653,4.505,4.505,0,0,0,.061-.668,1.046,1.046,0,0,0-.162-.662c-.045-.052-.239-.141-.676-.141q-.181,0-.4.02l-.056,1.148C508.181,434.84,508.15,435.355,508.113,435.888Z" transform="translate(-503.345 -429.151)" fill="#fff"/>
            </g>
          </g>
        </g>
      </g>
      <g id="Group_1777" data-name="Group 1777" transform="translate(9.147 3.113)">
        <g id="Group_1776" data-name="Group 1776">
          <g id="Group_1775" data-name="Group 1775">
            <g id="Group_1774" data-name="Group 1774">
              <path id="Path_6386" data-name="Path 6386" d="M553.812,454.787a3.48,3.48,0,0,1-1.1-.15,2,2,0,0,1-.828-.5,1.842,1.842,0,0,1-.453-.828,3.541,3.541,0,0,1-.1-.879c0-.182.008-.44.027-.774s.05-.767.1-1.334.1-1.264.164-2.121l.233-3.19a1.1,1.1,0,0,1,1.08-1.168h.674a3.405,3.405,0,0,1,1.029.137,2.2,2.2,0,0,1,.793.43c.04.036.08.073.117.111a3.559,3.559,0,0,1,.569-.416,3.078,3.078,0,0,1,.836-.338,3.373,3.373,0,0,1,.771-.1,2.7,2.7,0,0,1,.907.162,2.64,2.64,0,0,1,.845.5,2.444,2.444,0,0,1,.628.878,2.976,2.976,0,0,1,.224,1.185,3.512,3.512,0,0,1-.174,1.109,3.069,3.069,0,0,1-.522.961,2.55,2.55,0,0,1-2.011.949c-.084,0-.178,0-.283-.011a2.45,2.45,0,0,1-.351-.048,1.6,1.6,0,0,1-.379-.129.837.837,0,0,1-.483-.755q0-.26.02-.48.007-.074.01-.153a4.865,4.865,0,0,0-.289,1.529c-.023.37-.055.793-.1,1.266s-.078.914-.112,1.344-.063.811-.086,1.143c-.022.309-.033.511-.033.607a1.02,1.02,0,0,1-.422.843,1.158,1.158,0,0,1-.677.221Z" transform="translate(-551.33 -443.666)" fill="#fff"/>
            </g>
          </g>
        </g>
      </g>
      <g id="Group_1781" data-name="Group 1781" transform="translate(16.323 3.113)">
        <g id="Group_1780" data-name="Group 1780">
          <g id="Group_1779" data-name="Group 1779">
            <g id="Group_1778" data-name="Group 1778">
              <path id="Path_6387" data-name="Path 6387" d="M593.911,454.959a6.879,6.879,0,0,1-1.69-.213,4.312,4.312,0,0,1-1.615-.788,4.215,4.215,0,0,1-1.18-1.5,5.156,5.156,0,0,1-.453-2.269,10.082,10.082,0,0,1,.074-1.12,7.534,7.534,0,0,1,.3-1.376,7.341,7.341,0,0,1,.613-1.409,5.046,5.046,0,0,1,1.077-1.32,5.248,5.248,0,0,1,1.6-.944,6.149,6.149,0,0,1,2.194-.359,5.582,5.582,0,0,1,1.749.244,3.426,3.426,0,0,1,1.265.718,2.84,2.84,0,0,1,.738,1.1,3.591,3.591,0,0,1,.218,1.253,3.372,3.372,0,0,1-.416,1.708,3.7,3.7,0,0,1-1.029,1.147,4.808,4.808,0,0,1-1.107.6c.054.008.115.019.183.033a2.082,2.082,0,0,1,.679.274,2.108,2.108,0,0,1,.606.575,1.752,1.752,0,0,1,.307,1.04,1.99,1.99,0,0,1-.484,1.332,3,3,0,0,1-1.051.775,5.186,5.186,0,0,1-1.275.383A7.7,7.7,0,0,1,593.911,454.959ZM593.556,451a.863.863,0,0,0,.054.077.734.734,0,0,0,.259.2,1.024,1.024,0,0,0,.439.079.75.75,0,0,0,.337-.048.883.883,0,0,0,.225-.177c.094-.109.175-.209.243-.3a.969.969,0,0,1,.07-.084q-.245.059-.485.1A9.5,9.5,0,0,1,593.556,451Zm.683-3.6a.284.284,0,0,0-.2.057,1.1,1.1,0,0,0-.272.333,2.03,2.03,0,0,0-.14.316,2.166,2.166,0,0,0,.494-.178c.278-.145.278-.267.278-.348a.265.265,0,0,0-.06-.174h0A.922.922,0,0,0,594.239,447.4Z" transform="translate(-588.973 -443.666)" fill="#fff"/>
            </g>
          </g>
        </g>
      </g>
      <g id="Group_1785" data-name="Group 1785" transform="translate(24.675 3.113)">
        <g id="Group_1784" data-name="Group 1784">
          <g id="Group_1783" data-name="Group 1783">
            <g id="Group_1782" data-name="Group 1782">
              <path id="Path_6388" data-name="Path 6388" d="M635.265,457.985a3.469,3.469,0,0,1-1.1-.15,2,2,0,0,1-.828-.5,1.842,1.842,0,0,1-.453-.828,3.532,3.532,0,0,1-.1-.88c0-.086.006-.282.054-.983q.051-.762.129-1.828t.174-2.294l.182-2.343q.086-1.112.146-1.974t.1-1.2a1.291,1.291,0,0,1,.3-.9,1.058,1.058,0,0,1,.785-.263h.674a2.65,2.65,0,0,1,1.844.578c.026.024.051.048.076.073a2.819,2.819,0,0,1,.545-.39,3.935,3.935,0,0,1,1.911-.434,3.674,3.674,0,0,1,3,1.266,5.576,5.576,0,0,1,.984,3.62,9.258,9.258,0,0,1-.341,2.607,6.308,6.308,0,0,1-.98,2.019,4.5,4.5,0,0,1-1.544,1.323,4.207,4.207,0,0,1-1.935.46,3.154,3.154,0,0,1-1.692-.421l0,.052c-.007.114-.019.262-.037.448q-.025.253-.059.692-.036.454-.1,1.253a1.112,1.112,0,0,1-.292.721,1.126,1.126,0,0,1-.8.281Zm3.164-10.583a.669.669,0,0,0-.666.386,3.7,3.7,0,0,0-.328,1.731,5.626,5.626,0,0,0,.054.781,2.152,2.152,0,0,0,.16.584.71.71,0,0,0,.208.28.4.4,0,0,0,.243.057.758.758,0,0,0,.654-.416,3.354,3.354,0,0,0,.374-1.874,5.046,5.046,0,0,0-.053-.734,1.7,1.7,0,0,0-.148-.5.587.587,0,0,0-.2-.231A.559.559,0,0,0,638.429,447.4Z" transform="translate(-632.783 -443.666)" fill="#fff"/>
            </g>
          </g>
        </g>
      </g>
      <g id="Group_1789" data-name="Group 1789" transform="translate(34.272 9.718)">
        <g id="Group_1788" data-name="Group 1788">
          <g id="Group_1787" data-name="Group 1787">
            <g id="Group_1786" data-name="Group 1786">
              <path id="Path_6389" data-name="Path 6389" d="M685.195,483a1.877,1.877,0,0,1-1.666-.72,2.468,2.468,0,0,1-.4-1.417,3.369,3.369,0,0,1,.11-.857,2.447,2.447,0,0,1,.393-.83,2.05,2.05,0,0,1,.79-.639,2.607,2.607,0,0,1,1.121-.225,2,2,0,0,1,1.577.6,2.157,2.157,0,0,1,.49,1.469,3.651,3.651,0,0,1-.084.741,2.555,2.555,0,0,1-.348.864,2.25,2.25,0,0,1-.745.713A2.364,2.364,0,0,1,685.195,483Z" transform="translate(-683.127 -478.316)" fill="#fff"/>
            </g>
          </g>
        </g>
      </g>
      <g id="Group_1793" data-name="Group 1793" transform="translate(37.903 0.346)">
        <g id="Group_1792" data-name="Group 1792">
          <g id="Group_1791" data-name="Group 1791">
            <g id="Group_1790" data-name="Group 1790">
              <path id="Path_6390" data-name="Path 6390" d="M706.94,443.212a7.094,7.094,0,0,1-1.78-.214,6.7,6.7,0,0,1-1.433-.534,3.857,3.857,0,0,1-1.051-.771,1.641,1.641,0,0,1-.5-1.1,7.881,7.881,0,0,1,.152-1.822,1.211,1.211,0,0,1,1.172-1.04,1.548,1.548,0,0,1,.95.357c.177.138.379.291.606.461a3.563,3.563,0,0,0,.669.387,1.86,1.86,0,0,0,.767.144,1.887,1.887,0,0,0,.344-.031.6.6,0,0,0,.19-.064.14.14,0,0,0,.045-.039.169.169,0,0,1,0-.029c0-.081-.019-.1-.056-.128a3.021,3.021,0,0,0-.669-.38q-.493-.212-1.064-.443a4.938,4.938,0,0,1-1.265-.748A3.927,3.927,0,0,1,703,435.939a4.3,4.3,0,0,1-.408-1.971,4.652,4.652,0,0,1,.511-2.246,4.557,4.557,0,0,1,1.293-1.5,5.037,5.037,0,0,1,1.752-.828,7.431,7.431,0,0,1,1.849-.239,4.207,4.207,0,0,1,2.893.894,3.076,3.076,0,0,1,1.025,2.384,2.638,2.638,0,0,1-.76,2,2.729,2.729,0,0,1-1.792.7,5.564,5.564,0,0,1,.775.514,4.258,4.258,0,0,1,1.072,1.267,3.951,3.951,0,0,1,.447,1.951,4.753,4.753,0,0,1-.3,1.68,3.95,3.95,0,0,1-.908,1.413,4.1,4.1,0,0,1-1.505.936A5.815,5.815,0,0,1,706.94,443.212Zm.588-9.995a.842.842,0,0,0-.543.185.346.346,0,0,0-.156.307.228.228,0,0,0,.094.207,3.433,3.433,0,0,0,.736.447c.1.049.211.1.321.147a1.2,1.2,0,0,1-.064-.4c0-.1-.008-.226-.023-.383a1.217,1.217,0,0,0-.081-.335.352.352,0,0,0-.113-.149A.473.473,0,0,0,707.528,433.217Z" transform="translate(-702.176 -429.151)" fill="#fff"/>
            </g>
          </g>
        </g>
      </g>
      <g id="Group_1797" data-name="Group 1797" transform="translate(46.306 0.744)">
        <g id="Group_1796" data-name="Group 1796">
          <g id="Group_1795" data-name="Group 1795">
            <g id="Group_1794" data-name="Group 1794">
              <path id="Path_6391" data-name="Path 6391" d="M750.121,444.9a3.245,3.245,0,0,1-2.342-.783,3.059,3.059,0,0,1-.814-2.288c0-.191.009-.409.028-.666q.027-.36.079-.937t.13-1.4q.051-.548.106-1.272h-.143a.848.848,0,0,1-.825-.5,1.169,1.169,0,0,1-.083-.463l.053-.924a4.436,4.436,0,0,1,.073-.54,1.665,1.665,0,0,1,.3-.679,1.6,1.6,0,0,1,.665-.507,1.851,1.851,0,0,1,.41-.12q.053-.146.112-.309.159-.44.317-.852a6.9,6.9,0,0,1,.339-.763,1.036,1.036,0,0,1,.9-.658h.5a1.755,1.755,0,0,1,1.615.791,2.726,2.726,0,0,1,.384,1.449c0,.087,0,.187-.007.3h1.052a.946.946,0,0,1,1,.961l0,.053-.069.934a2.19,2.19,0,0,1-.436,1.229,1.893,1.893,0,0,1-1.594.6h-.255c-.019.217-.136,1.474-.17,1.853s-.06.7-.076,1q-.018.307-.023.512l.11-.079a1.084,1.084,0,0,1,.64-.207.987.987,0,0,1,.8.426,1.722,1.722,0,0,1,.247,1.071,2.812,2.812,0,0,1-.713,2A3.04,3.04,0,0,1,750.121,444.9Z" transform="translate(-746.256 -431.238)" fill="#fff"/>
            </g>
          </g>
        </g>
      </g>
      <g id="Group_1801" data-name="Group 1801" transform="translate(52.652 3.285)">
        <g id="Group_1800" data-name="Group 1800">
          <g id="Group_1799" data-name="Group 1799">
            <g id="Group_1798" data-name="Group 1798">
              <path id="Path_6392" data-name="Path 6392" d="M783.048,455.692a3.758,3.758,0,0,1-1.452-.271,3.313,3.313,0,0,1-1.112-.741,3.2,3.2,0,0,1-.7-1.112,3.713,3.713,0,0,1-.237-1.327q0-.236.027-.771.026-.516.07-1.162t.1-1.361q.052-.716.1-1.354t.088-1.14l.06-.687a1.416,1.416,0,0,1,.325-.85,1.137,1.137,0,0,1,.875-.345h.553a3.793,3.793,0,0,1,1.088.134,2.037,2.037,0,0,1,.835.463,1.733,1.733,0,0,1,.47.777,2.932,2.932,0,0,1,.106.815c0,.265-.021.62-.064,1.086q-.06.655-.12,1.361t-.121,1.339c-.048.484-.058.719-.058.83a.742.742,0,0,0,.119.463c.026.029.089.1.3.1a.283.283,0,0,0,.242-.122,2.159,2.159,0,0,0,.382-.727,7.922,7.922,0,0,0,.291-1.243c.077-.483.136-.982.175-1.482s.074-1.013.1-1.5.062-.927.1-1.3a1.206,1.206,0,0,1,.268-.635,1.043,1.043,0,0,1,.828-.361h.623a3.477,3.477,0,0,1,1.1.15,2.014,2.014,0,0,1,.827.5,1.844,1.844,0,0,1,.454.829,3.557,3.557,0,0,1,.1.879c0,.183-.009.441-.027.775s-.05.766-.1,1.333-.1,1.264-.164,2.12-.141,1.922-.233,3.19a1.662,1.662,0,0,1-.186.761,1,1,0,0,1-.894.406h-.674a3.241,3.241,0,0,1-1.1-.163,2.312,2.312,0,0,1-.788-.459q-.062-.057-.119-.118a3.463,3.463,0,0,1-1.6.819A4.1,4.1,0,0,1,783.048,455.692Z" transform="translate(-779.546 -444.571)" fill="#fff"/>
            </g>
          </g>
        </g>
      </g>
      <g id="Group_1805" data-name="Group 1805" transform="translate(61.92)">
        <g id="Group_1804" data-name="Group 1804">
          <g id="Group_1803" data-name="Group 1803">
            <g id="Group_1802" data-name="Group 1802">
              <path id="Path_6393" data-name="Path 6393" d="M832.238,441.743a4.211,4.211,0,0,1-1.552-.292,3.5,3.5,0,0,1-1.347-.953,4.509,4.509,0,0,1-.869-1.561,6.778,6.778,0,0,1-.306-2.149,10.8,10.8,0,0,1,.074-1.2,8.639,8.639,0,0,1,.264-1.349,6.743,6.743,0,0,1,.542-1.354,4.857,4.857,0,0,1,.923-1.227,4.361,4.361,0,0,1,1.364-.881,4.792,4.792,0,0,1,1.841-.331,3.816,3.816,0,0,1,1.449.251q.011-.173.021-.337c.017-.293.037-.586.061-.879s.045-.609.068-.973a1.277,1.277,0,0,1,.3-.915.867.867,0,0,1,.47-.241,1.819,1.819,0,0,1,.313-.019h.674a3.317,3.317,0,0,1,1.1.161,2.164,2.164,0,0,1,.824.5,1.892,1.892,0,0,1,.469.762,2.545,2.545,0,0,1,.122.784v.029l0,.029q-.068.861-.12,1.576t-.121,1.637q-.069.915-.138,1.89l-.139,1.938q-.07.965-.139,1.773t-.112,1.375q-.044.59-.062.782l0,.027,0,.026a1.3,1.3,0,0,1-.222.592,1.052,1.052,0,0,1-.867.354h-.622a4.367,4.367,0,0,1-.818-.073,2.3,2.3,0,0,1-.8-.3,1.708,1.708,0,0,1-.307-.245,3.321,3.321,0,0,1-2.328.8Zm1.5-7.557a.685.685,0,0,0-.676.4,3.63,3.63,0,0,0-.334,1.72,5.551,5.551,0,0,0,.054.781,2.155,2.155,0,0,0,.16.584.715.715,0,0,0,.208.28.4.4,0,0,0,.243.057.758.758,0,0,0,.654-.416,3.351,3.351,0,0,0,.374-1.874,5.922,5.922,0,0,0-.046-.748,1.538,1.538,0,0,0-.138-.488.588.588,0,0,0-.2-.231A.558.558,0,0,0,833.742,434.186Z" transform="translate(-828.164 -427.337)" fill="#fff"/>
            </g>
          </g>
        </g>
      </g>
      <g id="Group_1809" data-name="Group 1809" transform="translate(71.603 3.285)">
        <g id="Group_1808" data-name="Group 1808">
          <g id="Group_1807" data-name="Group 1807">
            <g id="Group_1806" data-name="Group 1806">
              <path id="Path_6394" data-name="Path 6394" d="M883.707,458.891a8.551,8.551,0,0,1-1.766-.171,5.8,5.8,0,0,1-1.451-.5,3.38,3.38,0,0,1-1.061-.819,1.9,1.9,0,0,1-.469-1.238,1.784,1.784,0,0,1,.252-.945,1.923,1.923,0,0,1,.614-.628,2.5,2.5,0,0,1,.68-.3,2.927,2.927,0,0,1-.27-.244,3.311,3.311,0,0,1-.755-1.286,5.51,5.51,0,0,1-.245-1.732c0-.236.012-.537.036-.919q.035-.547.087-1.236l.112-1.479q.061-.8.13-1.631a1.176,1.176,0,0,1,1.2-1.195h.554a3.862,3.862,0,0,1,1.1.134,1.98,1.98,0,0,1,.846.482,1.73,1.73,0,0,1,.461.849,3.81,3.81,0,0,1,.087.844c0,.288-.018.628-.055,1.01-.034.366-.073.733-.113,1.1l-.112,1.02a6.363,6.363,0,0,0-.047.656.744.744,0,0,0,.109.469.357.357,0,0,0,.279.11c.2,0,.429-.057.673-.485a4.849,4.849,0,0,0,.513-1.954l.276-3.233a1.056,1.056,0,0,1,.437-.8,1.15,1.15,0,0,1,.659-.206h.623a4.38,4.38,0,0,1,.817.073,2.207,2.207,0,0,1,.83.335,1.856,1.856,0,0,1,.621.715,2.3,2.3,0,0,1,.215,1.031q0,.184-.027.688-.025.479-.087,1.376t-.165,2.254q-.1,1.356-.242,3.307a5.261,5.261,0,0,1-.6,2.2,4.239,4.239,0,0,1-1.282,1.432,4.738,4.738,0,0,1-1.69.724A8.4,8.4,0,0,1,883.707,458.891Zm-1.2-3.876a.737.737,0,0,0,.263.173,1.942,1.942,0,0,0,.781.1.957.957,0,0,0,.6-.159,1.307,1.307,0,0,0,.367-.453,3.38,3.38,0,0,1-.894.261,5.656,5.656,0,0,1-.794.059c-.114,0-.226,0-.337-.011Z" transform="translate(-878.959 -444.571)" fill="#fff"/>
            </g>
          </g>
        </g>
      </g>
    </g>
    <g id="Group_1831" data-name="Group 1831" transform="translate(-9156.953 -8182.307)">
      <g id="Group_1812" data-name="Group 1812" transform="translate(0 0.346)">
        <g id="Group_1811" data-name="Group 1811">
          <path id="Path_6395" data-name="Path 6395" d="M508.915,445.371a1.988,1.988,0,0,1-1.392-.389,1.519,1.519,0,0,1-.406-1.15q0-.225.026-.718t.078-1.167q.051-.674.112-1.47t.13-1.625q.086-1.02.147-1.755t.1-1.262q.035-.527.061-.882t.034-.622q.009-.268.017-.493t.008-.484a.225.225,0,0,1,.087-.2.3.3,0,0,1,.173-.06q.449,0,.986-.026t1.072-.061q.536-.034,1.038-.06t.882-.026a5.985,5.985,0,0,1,1.9.268,2.99,2.99,0,0,1,2.015,2.014,5.428,5.428,0,0,1,.233,1.66,7.146,7.146,0,0,1-.268,1.963,4.8,4.8,0,0,1-.839,1.668,4.087,4.087,0,0,1-1.47,1.158,4.9,4.9,0,0,1-2.144.432,4.436,4.436,0,0,1-1.262-.156l-.242,3.182a.382.382,0,0,1-.069.2.27.27,0,0,1-.208.06Zm2.8-9.856q-.225,0-.5.026t-.588.061q-.035.726-.086,1.764t-.139,2.179a3.268,3.268,0,0,0,.51.1,4.468,4.468,0,0,0,.458.026,1.564,1.564,0,0,0,.977-.285,2,2,0,0,0,.579-.7,2.916,2.916,0,0,0,.277-.865,5.219,5.219,0,0,0,.069-.778,1.681,1.681,0,0,0-.337-1.133A1.559,1.559,0,0,0,511.716,435.514Z" transform="translate(-507.117 -432.921)" fill="#0f2269"/>
        </g>
      </g>
      <g id="Group_1814" data-name="Group 1814" transform="translate(9.147 3.113)">
        <g id="Group_1813" data-name="Group 1813">
          <path id="Path_6396" data-name="Path 6396" d="M560.67,451.74c-.069,0-.147,0-.234-.009a1.7,1.7,0,0,1-.25-.035.854.854,0,0,1-.208-.069.127.127,0,0,1-.086-.112q0-.225.017-.415c.011-.127.017-.259.017-.4a1.6,1.6,0,0,0-.1-.623.407.407,0,0,0-.415-.242q-.484,0-.8.631a5.127,5.127,0,0,0-.406,1.894q-.035.553-.1,1.253t-.112,1.349q-.052.648-.087,1.15t-.034.657a.3.3,0,0,1-.121.259.437.437,0,0,1-.26.086h-.622a2.814,2.814,0,0,1-.873-.112,1.287,1.287,0,0,1-.536-.32,1.123,1.123,0,0,1-.277-.51,2.815,2.815,0,0,1-.078-.7q0-.26.026-.735t.1-1.314q.069-.838.164-2.127t.234-3.19q.034-.5.363-.5h.674a2.737,2.737,0,0,1,.812.1,1.491,1.491,0,0,1,.536.285,1.086,1.086,0,0,1,.3.424,2.162,2.162,0,0,1,.13.5,2.771,2.771,0,0,1,.493-.683,2.947,2.947,0,0,1,.6-.467,2.339,2.339,0,0,1,.64-.259,2.639,2.639,0,0,1,.605-.078,1.97,1.97,0,0,1,.666.121,1.9,1.9,0,0,1,.614.363,1.72,1.72,0,0,1,.441.623,2.257,2.257,0,0,1,.164.9,2.775,2.775,0,0,1-.138.882,2.334,2.334,0,0,1-.4.735,1.832,1.832,0,0,1-1.452.683Z" transform="translate(-555.102 -447.434)" fill="#0f2269"/>
        </g>
      </g>
      <g id="Group_1816" data-name="Group 1816" transform="translate(16.323 3.113)">
        <g id="Group_1815" data-name="Group 1815">
          <path id="Path_6397" data-name="Path 6397" d="M596.964,457.29a6.154,6.154,0,0,1-1.513-.19,3.6,3.6,0,0,1-1.349-.657,3.5,3.5,0,0,1-.977-1.245,4.436,4.436,0,0,1-.38-1.954,9.31,9.31,0,0,1,.069-1.038,6.78,6.78,0,0,1,.268-1.245,6.594,6.594,0,0,1,.553-1.271,4.319,4.319,0,0,1,.925-1.132,4.52,4.52,0,0,1,1.383-.813,5.417,5.417,0,0,1,1.936-.311,4.853,4.853,0,0,1,1.522.207,2.708,2.708,0,0,1,1,.562,2.118,2.118,0,0,1,.553.821,2.87,2.87,0,0,1,.173,1,2.654,2.654,0,0,1-.32,1.349,2.971,2.971,0,0,1-.83.925,4.11,4.11,0,0,1-1.132.579,9.151,9.151,0,0,1-1.228.32,8.537,8.537,0,0,1-1.115.139q-.51.026-.787.026a2.258,2.258,0,0,0,.1.648,1.652,1.652,0,0,0,.285.562,1.451,1.451,0,0,0,.5.4,1.686,1.686,0,0,0,.761.156,1.391,1.391,0,0,0,.7-.147,1.583,1.583,0,0,0,.406-.328c.1-.121.193-.23.268-.329a.362.362,0,0,1,.3-.147,1.83,1.83,0,0,1,.3.043,1.351,1.351,0,0,1,.441.181,1.4,1.4,0,0,1,.4.381,1.047,1.047,0,0,1,.173.622,1.286,1.286,0,0,1-.311.865,2.286,2.286,0,0,1-.8.588,4.454,4.454,0,0,1-1.1.329A6.98,6.98,0,0,1,596.964,457.29Zm.328-7.556a1,1,0,0,0-.649.216,1.828,1.828,0,0,0-.449.545,2.861,2.861,0,0,0-.276.726q-.1.4-.147.761a3.909,3.909,0,0,0,1.738-.363,1.075,1.075,0,0,0,.666-.986.985.985,0,0,0-.216-.623A.794.794,0,0,0,597.292,449.734Z" transform="translate(-592.745 -447.434)" fill="#0f2269"/>
        </g>
      </g>
      <g id="Group_1818" data-name="Group 1818" transform="translate(24.675 3.113)">
        <g id="Group_1817" data-name="Group 1817">
          <path id="Path_6398" data-name="Path 6398" d="M642.745,447.434a2.979,2.979,0,0,1,2.447,1,4.966,4.966,0,0,1,.822,3.164,8.508,8.508,0,0,1-.311,2.4,5.576,5.576,0,0,1-.865,1.79,3.775,3.775,0,0,1-1.3,1.115,3.483,3.483,0,0,1-1.608.38,2.307,2.307,0,0,1-1.435-.4,2.609,2.609,0,0,1-.813-1.124q-.052.622-.086.951t-.052.528q-.017.2-.026.354t-.035.415q-.025.259-.06.709t-.1,1.245a.457.457,0,0,1-.086.277.435.435,0,0,1-.294.069h-.623a2.82,2.82,0,0,1-.873-.112,1.288,1.288,0,0,1-.536-.32,1.128,1.128,0,0,1-.276-.51,2.822,2.822,0,0,1-.078-.7q0-.173.052-.934t.129-1.824q.078-1.064.173-2.291t.182-2.343q.086-1.116.146-1.98t.1-1.193a.868.868,0,0,1,.086-.449.45.45,0,0,1,.277-.052h.675a1.969,1.969,0,0,1,1.357.389,1.215,1.215,0,0,1,.424.925,2.539,2.539,0,0,1,1.029-1.141A3.222,3.222,0,0,1,642.745,447.434Zm-1.262,2.3a1.378,1.378,0,0,0-1.3.761,4.356,4.356,0,0,0-.415,2.075,6.3,6.3,0,0,0,.061.882,2.834,2.834,0,0,0,.216.778,1.416,1.416,0,0,0,.424.553,1.083,1.083,0,0,0,.683.207,1.477,1.477,0,0,0,1.245-.726,4.085,4.085,0,0,0,.5-2.283,5.722,5.722,0,0,0-.061-.838,2.384,2.384,0,0,0-.216-.718,1.307,1.307,0,0,0-.432-.5A1.228,1.228,0,0,0,641.483,449.734Z" transform="translate(-636.555 -447.434)" fill="#0f2269"/>
        </g>
      </g>
      <g id="Group_1820" data-name="Group 1820" transform="translate(34.272 9.718)">
        <g id="Group_1819" data-name="Group 1819">
          <path id="Path_6399" data-name="Path 6399" d="M688.593,482.084a1.321,1.321,0,0,1,1.038.354,1.461,1.461,0,0,1,.311.995,3.032,3.032,0,0,1-.069.6,1.846,1.846,0,0,1-.251.623,1.529,1.529,0,0,1-.51.484,1.656,1.656,0,0,1-.865.2,1.214,1.214,0,0,1-1.073-.406,1.76,1.76,0,0,1-.276-1.012,2.651,2.651,0,0,1,.086-.674,1.721,1.721,0,0,1,.277-.588,1.335,1.335,0,0,1,.518-.415A1.892,1.892,0,0,1,688.593,482.084Z" transform="translate(-686.898 -482.084)" fill="#0f2269"/>
        </g>
      </g>
      <g id="Group_1822" data-name="Group 1822" transform="translate(37.903 0.346)">
        <g id="Group_1821" data-name="Group 1821">
          <path id="Path_6400" data-name="Path 6400" d="M711.048,432.921a3.518,3.518,0,0,1,2.412.709,2.375,2.375,0,0,1,.787,1.85,1.944,1.944,0,0,1-.536,1.478,2.146,2.146,0,0,1-1.539.51.813.813,0,0,1-.4-.061.29.29,0,0,1-.086-.251q0-.173-.026-.45a1.9,1.9,0,0,0-.13-.536,1.068,1.068,0,0,0-.328-.441.965.965,0,0,0-.623-.182,1.556,1.556,0,0,0-.985.338,1.056,1.056,0,0,0-.432.873.941.941,0,0,0,.354.76,4.1,4.1,0,0,0,.891.545q.535.251,1.168.51a4.871,4.871,0,0,1,1.167.683,3.53,3.53,0,0,1,.89,1.055,3.239,3.239,0,0,1,.355,1.6,4.014,4.014,0,0,1-.251,1.426,3.228,3.228,0,0,1-.744,1.159,3.378,3.378,0,0,1-1.245.77,5.081,5.081,0,0,1-1.755.276,6.388,6.388,0,0,1-1.6-.19,5.983,5.983,0,0,1-1.28-.476,3.137,3.137,0,0,1-.856-.622.96.96,0,0,1-.311-.614,7.319,7.319,0,0,1,.13-1.643q.13-.5.475-.5a.849.849,0,0,1,.51.207q.268.208.614.467a4.281,4.281,0,0,0,.8.467,2.56,2.56,0,0,0,1.064.207,2.606,2.606,0,0,0,.476-.043,1.3,1.3,0,0,0,.415-.147.852.852,0,0,0,.294-.276.749.749,0,0,0,.112-.415.837.837,0,0,0-.328-.691,3.707,3.707,0,0,0-.83-.476q-.5-.216-1.081-.449a4.2,4.2,0,0,1-1.08-.64,3.207,3.207,0,0,1-.831-1.046,3.592,3.592,0,0,1-.329-1.643,3.927,3.927,0,0,1,.424-1.9,3.832,3.832,0,0,1,1.089-1.271,4.307,4.307,0,0,1,1.5-.709A6.674,6.674,0,0,1,711.048,432.921Z" transform="translate(-705.947 -432.921)" fill="#0f2269"/>
        </g>
      </g>
      <g id="Group_1824" data-name="Group 1824" transform="translate(46.306 0.743)">
        <g id="Group_1823" data-name="Group 1823">
          <path id="Path_6401" data-name="Path 6401" d="M754,439.882q-.051.658-.112,1.3t-.112,1.21q-.052.571-.078,1.02t-.026.692a1.144,1.144,0,0,0,.1.6.392.392,0,0,0,.345.147.725.725,0,0,0,.329-.069,1.918,1.918,0,0,0,.259-.156l.217-.156a.357.357,0,0,1,.216-.069.288.288,0,0,1,.225.138,1.245,1.245,0,0,1,.1.64,2.113,2.113,0,0,1-.519,1.5,2.369,2.369,0,0,1-1.781.553,2.555,2.555,0,0,1-1.841-.579,2.369,2.369,0,0,1-.6-1.772q0-.26.026-.614t.078-.925q.052-.57.13-1.4t.164-2.058h-.917q-.138,0-.164-.06a.49.49,0,0,1-.026-.182l.052-.882a3.6,3.6,0,0,1,.06-.441.951.951,0,0,1,.173-.389.891.891,0,0,1,.372-.277,1.65,1.65,0,0,1,.64-.1q.12-.311.276-.743t.311-.839a6.342,6.342,0,0,1,.3-.683c.1-.184.188-.277.268-.277h.5a1.083,1.083,0,0,1,1,.45,2.011,2.011,0,0,1,.277,1.072q0,.346-.052,1.02h1.816q.276,0,.276.242l-.069.934a1.491,1.491,0,0,1-.285.838,1.273,1.273,0,0,1-1.029.32Z" transform="translate(-750.028 -435.006)" fill="#0f2269"/>
        </g>
      </g>
      <g id="Group_1826" data-name="Group 1826" transform="translate(52.652 3.286)">
        <g id="Group_1825" data-name="Group 1825">
          <path id="Path_6402" data-name="Path 6402" d="M786.569,449.811q0,.363-.061,1.02t-.121,1.366q-.061.709-.121,1.331t-.061.9a1.359,1.359,0,0,0,.3.942,1.069,1.069,0,0,0,.839.337,1,1,0,0,0,.787-.371,2.848,2.848,0,0,0,.519-.969,8.576,8.576,0,0,0,.32-1.357q.121-.761.182-1.539t.1-1.513q.043-.735.095-1.271a.461.461,0,0,1,.1-.242.339.339,0,0,1,.276-.1h.622a2.831,2.831,0,0,1,.874.112,1.293,1.293,0,0,1,.536.32,1.132,1.132,0,0,1,.277.51,2.841,2.841,0,0,1,.078.7q0,.26-.026.735t-.1,1.314q-.069.839-.164,2.127t-.233,3.19a1.445,1.445,0,0,1-.078.432c-.029.046-.124.069-.285.069h-.674a2.561,2.561,0,0,1-.856-.121,1.592,1.592,0,0,1-.545-.311,1.056,1.056,0,0,1-.294-.449,2.1,2.1,0,0,1-.1-.536,3.488,3.488,0,0,1-.579.761,2.888,2.888,0,0,1-.666.493,2.778,2.778,0,0,1-.709.26,3.388,3.388,0,0,1-.709.078,3.034,3.034,0,0,1-1.176-.216,2.594,2.594,0,0,1-.873-.579,2.479,2.479,0,0,1-.544-.864,2.991,2.991,0,0,1-.19-1.072q0-.225.026-.735t.069-1.15q.043-.639.1-1.358t.095-1.357q.043-.64.087-1.124t.06-.692a.768.768,0,0,1,.139-.424.454.454,0,0,1,.346-.112h.553a3.138,3.138,0,0,1,.882.1,1.331,1.331,0,0,1,.545.294,1.019,1.019,0,0,1,.277.458A2.215,2.215,0,0,1,786.569,449.811Z" transform="translate(-783.318 -448.341)" fill="#0f2269"/>
        </g>
      </g>
      <g id="Group_1828" data-name="Group 1828" transform="translate(61.92)">
        <g id="Group_1827" data-name="Group 1827">
          <path id="Path_6403" data-name="Path 6403" d="M835.291,444.075a3.477,3.477,0,0,1-1.288-.242,2.769,2.769,0,0,1-1.072-.761,3.775,3.775,0,0,1-.726-1.314,6.029,6.029,0,0,1-.268-1.919,10.133,10.133,0,0,1,.07-1.116,7.871,7.871,0,0,1,.242-1.236,6.042,6.042,0,0,1,.484-1.21,4.1,4.1,0,0,1,.787-1.046,3.634,3.634,0,0,1,1.141-.735,4.063,4.063,0,0,1,1.565-.276,2.787,2.787,0,0,1,1.392.3,1.425,1.425,0,0,1,.666,1.046q.035-.675.069-1.176t.061-.934q.026-.432.06-.865t.069-.986a.871.871,0,0,1,.087-.449.154.154,0,0,1,.086-.043,1.372,1.372,0,0,1,.19-.009h.674a2.659,2.659,0,0,1,.865.121,1.449,1.449,0,0,1,.554.329,1.179,1.179,0,0,1,.293.475,1.82,1.82,0,0,1,.087.562q-.07.865-.121,1.582t-.121,1.634q-.069.917-.138,1.894t-.139,1.937q-.069.959-.138,1.764t-.112,1.383q-.044.58-.061.77a.7.7,0,0,1-.086.276c-.035.046-.133.069-.294.069h-.623a3.672,3.672,0,0,1-.683-.06,1.572,1.572,0,0,1-.553-.208,1,1,0,0,1-.363-.4,1.413,1.413,0,0,1-.129-.649,2.6,2.6,0,0,1-.943,1.072A2.822,2.822,0,0,1,835.291,444.075Zm1.5-7.556a1.394,1.394,0,0,0-1.305.769,4.291,4.291,0,0,0-.424,2.067,6.305,6.305,0,0,0,.061.882,2.84,2.84,0,0,0,.216.778,1.415,1.415,0,0,0,.424.553,1.084,1.084,0,0,0,.683.207,1.477,1.477,0,0,0,1.245-.726,4.088,4.088,0,0,0,.5-2.283,6.563,6.563,0,0,0-.052-.838,2.227,2.227,0,0,0-.207-.718,1.309,1.309,0,0,0-.432-.5A1.227,1.227,0,0,0,836.795,436.518Z" transform="translate(-831.936 -431.106)" fill="#0f2269"/>
        </g>
      </g>
      <g id="Group_1830" data-name="Group 1830" transform="translate(71.603 3.286)">
        <g id="Group_1829" data-name="Group 1829">
          <path id="Path_6404" data-name="Path 6404" d="M886.19,449.932q0,.4-.052.942c-.034.363-.073.726-.112,1.089s-.078.7-.113,1.02a7.283,7.283,0,0,0-.051.735,1.327,1.327,0,0,0,.32.977,1.068,1.068,0,0,0,.787.32,1.456,1.456,0,0,0,1.3-.847,5.51,5.51,0,0,0,.605-2.248l.276-3.234a.341.341,0,0,1,.13-.268.43.43,0,0,1,.25-.078h.623a3.7,3.7,0,0,1,.683.06,1.49,1.49,0,0,1,.562.225,1.14,1.14,0,0,1,.381.441,1.594,1.594,0,0,1,.138.709q0,.173-.026.648t-.086,1.366q-.061.891-.164,2.248t-.242,3.311a4.536,4.536,0,0,1-.51,1.894,3.513,3.513,0,0,1-1.063,1.193,4.007,4.007,0,0,1-1.435.614,7.648,7.648,0,0,1-1.626.173,7.81,7.81,0,0,1-1.617-.156,5.038,5.038,0,0,1-1.271-.432,2.658,2.658,0,0,1-.839-.64,1.2,1.2,0,0,1-.3-.778,1.074,1.074,0,0,1,.147-.57,1.207,1.207,0,0,1,.388-.4,1.842,1.842,0,0,1,.562-.234,2.83,2.83,0,0,1,.665-.077.261.261,0,0,1,.251.173,2.077,2.077,0,0,0,.242.389,1.412,1.412,0,0,0,.528.389,2.64,2.64,0,0,0,1.089.173,1.637,1.637,0,0,0,1.038-.311,2.065,2.065,0,0,0,.614-.8,3.646,3.646,0,0,0,.285-1.055,9.16,9.16,0,0,0,.069-1.089,3.129,3.129,0,0,1-.614.787,2.747,2.747,0,0,1-.7.467,2.668,2.668,0,0,1-.726.216,4.87,4.87,0,0,1-.692.052,3.729,3.729,0,0,1-1.167-.173,2.211,2.211,0,0,1-.908-.562,2.588,2.588,0,0,1-.588-1.012,4.778,4.778,0,0,1-.208-1.5q0-.328.035-.873t.087-1.228q.052-.683.112-1.479t.13-1.625q.035-.536.484-.536h.553a3.211,3.211,0,0,1,.9.1,1.273,1.273,0,0,1,.545.3,1.015,1.015,0,0,1,.268.5A3.066,3.066,0,0,1,886.19,449.932Z" transform="translate(-882.731 -448.341)" fill="#0f2269"/>
        </g>
      </g>
    </g>
  </g>
</svg>
