<svg xmlns="http://www.w3.org/2000/svg" width="59" height="51.578" viewBox="0 0 59 51.578">
  <g id="gem" transform="translate(0 -32.202)" style="isolation: isolate">
    <path id="Path_392" data-name="Path 392" d="M43.349,32.2h-27.7a1.8,1.8,0,0,0-1.56.9L.242,57.091a1.8,1.8,0,0,0,0,1.8L14.091,82.88a1.8,1.8,0,0,0,1.56.9h27.7a1.8,1.8,0,0,0,1.56-.9L58.759,58.893a1.8,1.8,0,0,0,0-1.8L44.91,33.1A1.8,1.8,0,0,0,43.349,32.2Z" transform="translate(0 -0.001)" fill="#ffd45d"/>
    <path id="Path_393" data-name="Path 393" d="M353.415,256H341.606l-8.846,15.321,5.9,10.227a1.8,1.8,0,0,0,.66-.659L353.173,256.9A1.8,1.8,0,0,0,353.415,256Z" transform="translate(-294.415 -198.009)" fill="#ff6500"/>
    <path id="Path_394" data-name="Path 394" d="M151.6,388.953H133.9L128,399.18a1.8,1.8,0,0,0,.9.241h27.7a1.8,1.8,0,0,0,.9-.241Z" transform="translate(-113.25 -315.641)" fill="#ff9416"/>
    <path id="Path_395" data-name="Path 395" d="M20.655,271.321,11.809,256H0a1.8,1.8,0,0,0,.241.9l13.849,23.987a1.8,1.8,0,0,0,.659.659Z" transform="translate(0 -198.009)" fill="#ffc13f"/>
    <path id="Path_396" data-name="Path 396" d="M20.655,44.524,14.75,34.3a1.8,1.8,0,0,0-.659.659L.241,58.944a1.8,1.8,0,0,0-.241.9H11.809Z" transform="translate(0 -1.854)" fill="#ffd45d"/>
    <path id="Path_397" data-name="Path 397" d="M133.9,42.67H151.6l5.9-10.227a1.8,1.8,0,0,0-.9-.241H128.9a1.8,1.8,0,0,0-.9.241Z" transform="translate(-113.25)" fill="#ffc13f"/>
    <path id="Path_398" data-name="Path 398" d="M332.76,44.524l8.846,15.321h11.809a1.8,1.8,0,0,0-.241-.9L339.324,34.956a1.8,1.8,0,0,0-.66-.659Z" transform="translate(-294.415 -1.854)" fill="#ff9416"/>
    <path id="Path_399" data-name="Path 399" d="M129.015,123.047H111.324l-8.845,15.321,8.845,15.321h17.691l8.845-15.321Z" transform="translate(-90.67 -80.377)" fill="#ff7b05"/>
    <path id="Path_400" data-name="Path 400" d="M158.915,105.178l1.128-.842a.3.3,0,0,1,.451.38l-.64,1.254a.3.3,0,0,0,.095.385l1.149.812a.3.3,0,0,1-.222.546l-1.39-.221a.3.3,0,0,0-.336.209l-.417,1.344a.3.3,0,0,1-.588-.043l-.22-1.39a.3.3,0,0,0-.3-.255l-1.407.019a.3.3,0,0,1-.141-.572l1.254-.638a.3.3,0,0,0,.149-.367l-.453-1.333a.3.3,0,0,1,.5-.311l.995,1A.3.3,0,0,0,158.915,105.178Z" transform="translate(-137.942 -63.581)" fill="#fff"/>
  </g>
</svg>
