<svg xmlns="http://www.w3.org/2000/svg" width="21.162" height="18.5" viewBox="0 0 21.162 18.5">
  <g id="gem" transform="translate(0 -32.202)" style="isolation: isolate">
    <path id="Path_392" data-name="Path 392" d="M15.549,32.2H5.614a.646.646,0,0,0-.56.323L.087,41.13a.646.646,0,0,0,0,.646l4.967,8.6a.646.646,0,0,0,.56.323h9.935a.646.646,0,0,0,.56-.323l4.967-8.6a.646.646,0,0,0,0-.646l-4.967-8.6A.646.646,0,0,0,15.549,32.2Z" transform="translate(0 -0.001)" fill="#ffd45d"/>
    <path id="Path_393" data-name="Path 393" d="M340.168,256h-4.236l-3.173,5.5,2.118,3.668a.646.646,0,0,0,.237-.237l4.967-8.6A.645.645,0,0,0,340.168,256Z" transform="translate(-319.006 -214.548)" fill="#ff6500"/>
    <path id="Path_394" data-name="Path 394" d="M136.463,388.953h-6.345L128,392.621a.646.646,0,0,0,.323.087h9.935a.646.646,0,0,0,.323-.087Z" transform="translate(-122.71 -342.006)" fill="#ff9416"/>
    <path id="Path_395" data-name="Path 395" d="M7.408,261.5,4.236,256H0a.646.646,0,0,0,.087.323l4.967,8.6a.646.646,0,0,0,.237.237Z" transform="translate(0 -214.548)" fill="#ffc13f"/>
    <path id="Path_396" data-name="Path 396" d="M7.408,37.965,5.29,34.3a.646.646,0,0,0-.237.237l-4.967,8.6A.645.645,0,0,0,0,43.46H4.236Z" transform="translate(0 -2.008)" fill="#ffd45d"/>
    <path id="Path_397" data-name="Path 397" d="M130.118,35.957h6.345l2.118-3.668a.646.646,0,0,0-.323-.087h-9.935a.646.646,0,0,0-.323.087Z" transform="translate(-122.709)" fill="#ffc13f"/>
    <path id="Path_398" data-name="Path 398" d="M332.76,37.965l3.173,5.5h4.236a.646.646,0,0,0-.087-.323l-4.967-8.6a.646.646,0,0,0-.237-.237Z" transform="translate(-319.006 -2.008)" fill="#ff9416"/>
    <path id="Path_399" data-name="Path 399" d="M112,123.047h-6.345l-3.173,5.5,3.173,5.5H112l3.173-5.5Z" transform="translate(-98.243 -87.09)" fill="#ff7b05"/>
    <path id="Path_400" data-name="Path 400" d="M156.987,104.464l.4-.3a.109.109,0,0,1,.162.136l-.229.45a.109.109,0,0,0,.034.138l.412.291a.109.109,0,0,1-.08.2l-.5-.079a.109.109,0,0,0-.121.075l-.15.482a.109.109,0,0,1-.211-.015l-.079-.5a.109.109,0,0,0-.109-.092l-.5.007a.109.109,0,0,1-.051-.205l.45-.229a.108.108,0,0,0,.054-.132l-.162-.478a.109.109,0,0,1,.18-.112l.357.357A.109.109,0,0,0,156.987,104.464Z" transform="translate(-149.464 -68.891)" fill="#fff"/>
  </g>
</svg>
