<svg xmlns="http://www.w3.org/2000/svg" width="71" height="71" viewBox="0 0 71 71">
  <g id="smiling" transform="translate(-0.26 -0.26)" style="isolation: isolate">
    <circle id="Ellipse_1774" data-name="Ellipse 1774" cx="35.5" cy="35.5" r="35.5" transform="translate(0.26 0.26)" fill="#ffca28"/>
    <g id="Group_681" data-name="Group 681" transform="translate(13.436 17.97)">
      <path id="Path_4164" data-name="Path 4164" d="M303.236,139.431a2.223,2.223,0,0,1-2.222-2.222,4.445,4.445,0,1,0-8.889,0,2.222,2.222,0,0,1-4.445,0,8.889,8.889,0,1,1,17.778,0A2.22,2.22,0,0,1,303.236,139.431Z" transform="translate(-261.013 -128.32)" fill="#6d4c41"/>
      <path id="Path_4165" data-name="Path 4165" d="M111.236,139.431a2.223,2.223,0,0,1-2.222-2.222,4.445,4.445,0,1,0-8.889,0,2.222,2.222,0,0,1-4.445,0,8.889,8.889,0,1,1,17.778,0A2.22,2.22,0,0,1,111.236,139.431Z" transform="translate(-95.68 -128.32)" fill="#6d4c41"/>
    </g>
    <path id="Path_4166" data-name="Path 4166" d="M121.4,289.2a2.225,2.225,0,0,0-1.769-.884H72.608a2.23,2.23,0,0,0-2.142,2.827,26.658,26.658,0,0,0,51.3,0A2.2,2.2,0,0,0,121.4,289.2Z" transform="translate(-60.46 -248.127)" fill="#fafafa"/>
  </g>
</svg>
