<svg xmlns="http://www.w3.org/2000/svg" width="49.58" height="42.418" viewBox="0 0 49.58 42.418">
  <g id="Group_1132" data-name="Group 1132" style="isolation: isolate">
    <path id="Path_163" data-name="Path 163" d="M1764.639,1935.945a17.138,17.138,0,0,1-9.786-3.842c-5.233-4.275-8.128-11.571-8.971-18.369l12.608,1.408a2.784,2.784,0,0,1-1.323,3.67.936.936,0,0,1-.932-1.623,1.725,1.725,0,0,0,.468-.369l-8.621-.963a32.408,32.408,0,0,0,2.833,8.246c3.179,6.184,7.843,9.542,13.86,9.982Z" transform="translate(-1745.882 -1913.635)" fill="#faa819"/>
    <path id="Path_164" data-name="Path 164" d="M2071.072,1935.945a17.136,17.136,0,0,0,9.785-3.842c5.233-4.275,8.127-11.57,8.971-18.369l-12.608,1.408a2.784,2.784,0,0,0,1.324,3.67.936.936,0,0,0,.932-1.623,1.734,1.734,0,0,1-.468-.369l8.621-.963a32.434,32.434,0,0,1-2.833,8.246c-3.18,6.184-7.843,9.542-13.86,9.982Z" transform="translate(-2040.248 -1913.635)" fill="#faa819"/>
    <g id="Group_91" data-name="Group 91" transform="translate(20.989 24.223)">
      <path id="Path_165" data-name="Path 165" d="M1975.772,2187.465h-7.567l1.552-18.192h4.466l1.547,18.164Z" transform="translate(-1968.206 -2169.273)" fill="#f9c013"/>
      <path id="Path_166" data-name="Path 166" d="M2012.1,2187.437h-3.819v-18.163h2.272Z" transform="translate(-2004.496 -2169.273)" fill="#f7961d"/>
    </g>
    <path id="Path_167" data-name="Path 167" d="M1953.81,2340.461h-10.241a1.112,1.112,0,0,1-1.111-1.111v-1.134h12.464v1.134a1.112,1.112,0,0,1-1.111,1.111Z" transform="translate(-1923.899 -2298.043)" fill="#f7a21b"/>
    <path id="Path_168" data-name="Path 168" d="M1954.921,2316.985h-12.464l2.811-2.213h6.845Z" transform="translate(-1923.899 -2276.812)" fill="#f3e107"/>
    <rect id="Rectangle_4" data-name="Rectangle 4" width="26.731" height="4.733" transform="translate(11.425)" fill="#d67228"/>
    <path id="Path_169" data-name="Path 169" d="M1879.691,1962.826v18.991h-4.02c-4.845-2.891-8.383-10.226-8.775-18.991Z" transform="translate(-1855.472 -1958.093)" fill="#ffc708"/>
    <path id="Path_170" data-name="Path 170" d="M2016.362,1962.826c-.391,8.766-3.929,16.1-8.774,18.991h-5.162v-18.991Z" transform="translate(-1978.206 -1958.093)" fill="#faa819"/>
    <path id="Path_171" data-name="Path 171" d="M1906.826,1991.878a1.142,1.142,0,1,1-1.143-1.142,1.143,1.143,0,0,1,1.143,1.142Z" transform="translate(-1889.562 -1983.368)" fill="#fff"/>
    <path id="Rectangle_5" data-name="Rectangle 5" d="M1.664,0h9.969A1.665,1.665,0,0,1,13.3,1.665v0a1.664,1.664,0,0,1-1.664,1.664H1.664A1.664,1.664,0,0,1,0,1.665v0A1.664,1.664,0,0,1,1.664,0Z" transform="translate(18.141 23.724)" fill="#fcc10f"/>
  </g>
</svg>
