<svg xmlns="http://www.w3.org/2000/svg" width="40.669" height="40.668" viewBox="0 0 40.669 40.668">
  <g id="whatsapp" style="isolation: isolate">
    <path id="Path_4156" data-name="Path 4156" d="M34.771,5.844A20.575,20.575,0,0,0,20.41,0,20.187,20.187,0,0,0,2.874,30.227L0,40.668l10.735-2.8a21.286,21.286,0,0,0,9.686,2.452c18.018,0,26.987-21.8,14.325-34.411Z" transform="translate(0 0)" fill="#eceff1"/>
    <path id="Path_4157" data-name="Path 4157" d="M18.968,35.492l-.01,0h-.027a17.074,17.074,0,0,1-9.176-2.7L3.4,34.442l1.7-6.177-.4-.635A16.722,16.722,0,0,1,2.13,18.717C2.13,3.817,20.338-3.634,30.874,6.9,41.385,17.319,34.005,35.492,18.968,35.492Z" transform="translate(1.479 1.365)" fill="#4caf50"/>
    <path id="Path_4158" data-name="Path 4158" d="M25.515,19.832l-.015.127c-.51-.254-2.994-1.469-3.457-1.637-1.039-.385-.746-.061-2.74,2.223-.3.33-.591.356-1.095.127a13.753,13.753,0,0,1-4.072-2.516,15.373,15.373,0,0,1-2.813-3.508c-.5-.857.542-.979,1.488-2.769a.931.931,0,0,0-.042-.888c-.127-.254-1.139-2.745-1.562-3.738-.407-.99-.825-.864-1.139-.864a2.522,2.522,0,0,0-2.318.583c-2.735,3.006-2.045,6.107.295,9.4,4.6,6.019,7.049,7.127,11.529,8.666a7.011,7.011,0,0,0,3.186.205c.973-.154,2.994-1.222,3.416-2.416a4.194,4.194,0,0,0,.305-2.415c-.125-.229-.458-.356-.966-.585Z" transform="translate(4.151 4.412)" fill="#fafafa"/>
  </g>
</svg>
