<svg xmlns="http://www.w3.org/2000/svg" width="38.097" height="18.365" viewBox="0 0 38.097 18.365">
  <g id="Layer_5" data-name="Layer 5" transform="translate(1 14)">
    <path id="Path_6408" data-name="Path 6408" d="M37.065,11.79A9.143,9.143,0,0,0,30.52,9.06H10.829a9.18,9.18,0,1,0,7.8,14.032,2.173,2.173,0,0,1,1.842-1.087h.4a2.173,2.173,0,0,1,1.842,1.087,9.275,9.275,0,0,0,7.818,4.333h.172a9.275,9.275,0,0,0,9.01-9.09,9.1,9.1,0,0,0-2.65-6.546ZM14.539,20.164H12.724v1.749a1.908,1.908,0,1,1-3.8,0V20.164H7.172a1.908,1.908,0,0,1,0-3.816H8.921V14.6a1.908,1.908,0,1,1,3.8,0v1.749h1.762a1.908,1.908,0,1,1,0,3.816Zm16.033-7.473a1.921,1.921,0,1,1-.053,0Zm-3.657,7.473a1.882,1.882,0,1,0-.053,0Zm3.657,3.657a1.975,1.975,0,1,0-.053,0Zm3.67-3.657a1.869,1.869,0,1,0-.053,0Z" transform="translate(-2.62 -23.06)" fill="#219ebc"/>
  </g>
</svg>
