<svg xmlns="http://www.w3.org/2000/svg" width="25.587" height="26.623" viewBox="0 0 25.587 26.623">
  <g id="noun_leaderboard_3777182" transform="translate(-4.3 -2.5)">
    <g id="Group_1855" data-name="Group 1855" transform="translate(4.3 2.5)">
      <path id="Path_6409" data-name="Path 6409" d="M27.059,9.555l.784.224a3.909,3.909,0,0,0,2.212,1.54v.476a1.589,1.589,0,0,1-1.568,1.6h-.168a.251.251,0,0,0-.252.252v1.036a.251.251,0,0,0,.252.252h5.543a.251.251,0,0,0,.252-.252V13.642a.251.251,0,0,0-.252-.252h-.168a1.565,1.565,0,0,1-1.568-1.568v-.476a3.533,3.533,0,0,0,1.792-1.036c.14-.14.252-.308.42-.5l.784-.2a4.519,4.519,0,0,0,3.331-4.339v-.84a.532.532,0,0,0-.532-.532h-2.3V3.032a.532.532,0,0,0-.532-.532H27.059a.532.532,0,0,0-.532.532v.9h-2.3a.532.532,0,0,0-.532.532v.784A4.487,4.487,0,0,0,27.059,9.555ZM35.57,5.3h1.456a3.126,3.126,0,0,1-1.9,2.8A10.1,10.1,0,0,0,35.57,5.3Zm-9.014,0A11.127,11.127,0,0,0,27,8.1a3.126,3.126,0,0,1-1.9-2.8Z" transform="translate(-18.269 -2.5)" fill="#219ebc"/>
      <path id="Path_6410" data-name="Path 6410" d="M29.131,57.7H23.336V53.756A.753.753,0,0,0,22.58,53H11.607a.753.753,0,0,0-.756.756V57.7H5.056a.753.753,0,0,0-.756.756V64.73a.753.753,0,0,0,.756.756H29.131a.753.753,0,0,0,.756-.756V58.459A.753.753,0,0,0,29.131,57.7ZM20.2,59.047l-1.176,1.064a.282.282,0,0,0-.084.252l.308,1.568a.441.441,0,0,1-.644.476l-1.372-.784a.209.209,0,0,0-.252,0l-1.372.784a.437.437,0,0,1-.644-.476l.308-1.568a.226.226,0,0,0-.084-.252l-1.176-1.064a.454.454,0,0,1,.252-.784l1.568-.168a.263.263,0,0,0,.224-.168l.644-1.456a.453.453,0,0,1,.812,0l.644,1.456a.29.29,0,0,0,.224.168l1.568.168A.454.454,0,0,1,20.2,59.047Z" transform="translate(-4.3 -38.863)" fill="#219ebc"/>
    </g>
  </g>
</svg>
