<svg xmlns="http://www.w3.org/2000/svg" width="29.098" height="26.621" viewBox="0 0 29.098 26.621">
  <g id="weapons" transform="translate(-9.266 -18.054)">
    <path id="Path_4667" data-name="Path 4667" d="M11.059,183.113a1.522,1.522,0,0,0-.631.031A1.6,1.6,0,0,0,9.27,184.8a1.611,1.611,0,0,0,2.885.879,1.491,1.491,0,0,0,.266-1.2Z" transform="translate(0 -141.84)" fill="#219ebc"/>
    <path id="Path_4668" data-name="Path 4668" d="M54.823,147.264l1.17,1.176,2.049-2.055a12.531,12.531,0,0,1-.966-1.38Z" transform="translate(-39.152 -109.105)" fill="#219ebc"/>
    <path id="Path_4669" data-name="Path 4669" d="M73.994,109.551a9.664,9.664,0,0,0,4.073,5.051c.006.006.012.006.019.012l.576.4v-7.354l-5.212.068C73.573,108.245,73.758,108.871,73.994,109.551Z" transform="translate(-55.161 -77.013)" fill="#219ebc"/>
    <path id="Path_4670" data-name="Path 4670" d="M32.553,152.027a.807.807,0,0,0-1.151,0,.826.826,0,0,0,0,1.158l2.73,2.73a.816.816,0,0,0,1.145.006.8.8,0,0,0,.248-.582.814.814,0,0,0-.241-.588Z" transform="translate(-18.821 -114.933)" fill="#219ebc"/>
    <path id="Path_4671" data-name="Path 4671" d="M158.712,19.348a.312.312,0,0,1,.439,0,.306.306,0,0,1,0,.439L155.7,23.229l.39,1.591,3.052-3.058a4.627,4.627,0,0,0,1.356-3.281v-.427h-.483a4.611,4.611,0,0,0-3.287,1.362l-3,3.008,1.752.155Z" transform="translate(-124.151)" fill="#219ebc"/>
    <path id="Path_4672" data-name="Path 4672" d="M45.49,135.017l2.371-2.377a13.927,13.927,0,0,1-.65-1.374L44.474,134Z" transform="translate(-30.259 -97.297)" fill="#219ebc"/>
    <path id="Path_4673" data-name="Path 4673" d="M157.645,133.082a13.245,13.245,0,0,1-.619,1.263l2.352,2.352,1.009-1.015-2.7-2.7A.687.687,0,0,0,157.645,133.082Z" transform="translate(-126.989 -98.773)" fill="#219ebc"/>
    <path id="Path_4674" data-name="Path 4674" d="M32.157,24.293l.3-1.461-2.779-2.86a.311.311,0,1,1,.446-.433L33.2,22.709l1.863-.26L32.04,19.416a4.611,4.611,0,0,0-3.287-1.362H28.27v.427a4.627,4.627,0,0,0,1.356,3.281Z" transform="translate(-16.332)" fill="#219ebc"/>
    <path id="Path_4675" data-name="Path 4675" d="M26.156,172.6l1.058,1.058,1.393-1.4L27.549,171.2Z" transform="translate(-14.516 -131.622)" fill="#219ebc"/>
    <path id="Path_4676" data-name="Path 4676" d="M167.4,153.524a.807.807,0,0,0-1.151,0l-2.73,2.73a.829.829,0,0,0-.241.588.817.817,0,0,0,1.393.576l2.73-2.73A.822.822,0,0,0,167.4,153.524Z" transform="translate(-132.363 -116.22)" fill="#219ebc"/>
    <path id="Path_4677" data-name="Path 4677" d="M71.489,53.567a13.343,13.343,0,0,0-.105,5.187l5.33-.074V51.388A9.02,9.02,0,0,1,74.676,52.8,7.233,7.233,0,0,1,71.489,53.567Z" transform="translate(-53.213 -28.648)" fill="#219ebc"/>
    <path id="Path_4678" data-name="Path 4678" d="M148.675,146.59a12.628,12.628,0,0,1-.984,1.356l2.055,2.061,1.17-1.176Z" transform="translate(-118.966 -110.467)" fill="#219ebc"/>
    <path id="Path_4679" data-name="Path 4679" d="M195.653,184.624a1.4,1.4,0,0,0-.625-.031h-.006l-1.356,1.362a1.515,1.515,0,0,0,.266,1.2,1.6,1.6,0,0,0,1.38.625,1.611,1.611,0,0,0,.34-3.157Z" transform="translate(-158.454 -143.111)" fill="#219ebc"/>
    <path id="Path_4680" data-name="Path 4680" d="M182.92,172.7l-1.058,1.058,1.393,1.393,1.058-1.052Z" transform="translate(-148.333 -132.909)" fill="#219ebc"/>
    <path id="Path_4681" data-name="Path 4681" d="M114.929,114.55l1.275-.8a9.26,9.26,0,0,0,3.268-4.017,17.145,17.145,0,0,0,.885-2.637l-5.429.074Z" transform="translate(-90.81 -76.521)" fill="#219ebc"/>
    <path id="Path_4682" data-name="Path 4682" d="M74.036,40.786a14.084,14.084,0,0,0-.551-4.741q-.065-.241-.13-.5h-.043a10.036,10.036,0,0,1-3.6-.662A8.678,8.678,0,0,1,66.293,32.5a11.069,11.069,0,0,1-3.083,2.272,9.225,9.225,0,0,1-4.116.978,16.984,16.984,0,0,0-.142,6.766A18.608,18.608,0,0,0,59.8,45.62a12.434,12.434,0,0,0,5.261,6.512.022.022,0,0,1,.012.006l1.219.836,2.049-1.3a11.909,11.909,0,0,0,4.215-5.187A17.271,17.271,0,0,0,74.036,40.786Zm-5.825,9.372c-.006,0-.006.006-.012.006l-1.752,1.1a.311.311,0,0,1-.167.05.323.323,0,0,1-.18-.056l-1.052-.737a10.288,10.288,0,0,1-4.333-5.367,15.157,15.157,0,0,1-.687-2.525,14,14,0,0,1,.124-5.509l.031-.149a.309.309,0,0,1,.316-.254,6.578,6.578,0,0,0,3.157-.7,7.649,7.649,0,0,0,2.383-1.832.29.29,0,0,1,.229-.118.3.3,0,0,1,.241.1l.031.037a6.581,6.581,0,0,0,2.637,1.888A7.305,7.305,0,0,0,72,36.57a.311.311,0,0,1,.309.235c.05.2.1.39.149.569a11.454,11.454,0,0,1,.446,3.856,13.918,13.918,0,0,1-1.2,4.649,9.885,9.885,0,0,1-3.491,4.277Z" transform="translate(-42.47 -12.413)" fill="#219ebc"/>
    <path id="Path_4683" data-name="Path 4683" d="M120.148,53.336a7.908,7.908,0,0,1-2.81-.52,6.744,6.744,0,0,1-2.365-1.517v7.3l5.565-.074a6.964,6.964,0,0,0,.13-1.164,10.858,10.858,0,0,0-.427-3.683A3.06,3.06,0,0,1,120.148,53.336Z" transform="translate(-90.848 -28.572)" fill="#219ebc"/>
  </g>
</svg>
