<svg xmlns="http://www.w3.org/2000/svg" width="32.52" height="22.508" viewBox="0 0 32.52 22.508">
  <g id="noun_friends_749185" transform="translate(-0.74 -15.913)">
    <path id="Path_7349" data-name="Path 7349" d="M22.542,38.421H.74V35.347a2.162,2.162,0,0,1,.782-1.67,35.319,35.319,0,0,1,6.391-4.1.2.2,0,0,0,.112-.178V27.33a4.974,4.974,0,0,1-.621-1.7c-.238-.02-.548-.353-.885-1.538-.432-1.528-.026-1.832.366-1.829-.208-.891-.739-3.994,1.571-5.4a1.241,1.241,0,0,1-.439-.944,17.64,17.64,0,0,0,3.908.036,2.621,2.621,0,0,1,2.862,1.7s2.585,0,1.581,4.621c.4-.017.842.261.4,1.829-.33,1.188-.66,1.522-.885,1.538a4.974,4.974,0,0,1-.621,1.7v2.07a.2.2,0,0,0,.112.178,35.32,35.32,0,0,1,6.387,4.09,2.162,2.162,0,0,1,.782,1.67Zm-.954-8.487v1.228a.723.723,0,0,1-.106.373c.406.3.815.617,1.221.951a3.667,3.667,0,0,1,1.32,2.845v3.057H33.26V35.5a2.311,2.311,0,0,0-1.32-1.868,10.751,10.751,0,0,0-1.931-.729,20.761,20.761,0,0,1-3.063-1.076l-.086-.04a.723.723,0,0,1-.33-.607v-.957h0v-.33s2.822.086,4.159-1.281c0,0-1.948-.551-1.6-4.1s-.436-6.661-3.3-6.4a3.2,3.2,0,0,0-3.694-.551c-.845.33-3.109,1.132-2.994,6.047s-1.746,4.951-1.746,4.951S18.32,29.964,21.588,29.934Z" transform="translate(0 0)" fill="#219ebc"/>
  </g>
</svg>
