<svg xmlns="http://www.w3.org/2000/svg" width="19.628" height="23.526" viewBox="0 0 19.628 23.526">
  <g id="user" style="isolation: isolate">
    <path id="Path_7354" data-name="Path 7354" d="M92.7,11.333A5.483,5.483,0,0,0,96.7,9.673a5.483,5.483,0,0,0,1.66-4.006A5.483,5.483,0,0,0,96.7,1.66a5.665,5.665,0,0,0-8.013,0,5.483,5.483,0,0,0-1.66,4.006,5.483,5.483,0,0,0,1.66,4.007A5.484,5.484,0,0,0,92.7,11.333Zm0,0" transform="translate(-83.032)" fill="#219ebc"/>
    <path id="Path_7355" data-name="Path 7355" d="M19.58,254.043a14,14,0,0,0-.191-1.487,11.712,11.712,0,0,0-.366-1.495,7.382,7.382,0,0,0-.614-1.394,5.26,5.26,0,0,0-.927-1.207,4.085,4.085,0,0,0-1.331-.836,4.6,4.6,0,0,0-1.7-.307,1.725,1.725,0,0,0-.921.391c-.276.18-.6.388-.959.619a5.5,5.5,0,0,1-1.241.547,4.82,4.82,0,0,1-3.037,0,5.484,5.484,0,0,1-1.24-.547c-.357-.228-.68-.436-.96-.619a1.722,1.722,0,0,0-.921-.391,4.594,4.594,0,0,0-1.7.308,4.082,4.082,0,0,0-1.331.836,5.261,5.261,0,0,0-.926,1.207A7.4,7.4,0,0,0,.6,251.062a11.74,11.74,0,0,0-.365,1.494,13.946,13.946,0,0,0-.191,1.487c-.031.45-.047.917-.047,1.389a3.907,3.907,0,0,0,1.16,2.956,4.177,4.177,0,0,0,2.99,1.091H15.478a4.176,4.176,0,0,0,2.99-1.091,3.9,3.9,0,0,0,1.16-2.956C19.628,254.958,19.612,254.491,19.58,254.043Zm0,0" transform="translate(0 -235.952)" fill="#219ebc"/>
  </g>
</svg>
