<svg xmlns="http://www.w3.org/2000/svg" width="29.409" height="25.908" viewBox="0 0 29.409 25.908">
  <path id="Path_6407" data-name="Path 6407" d="M17.464,13A2.454,2.454,0,0,0,15,15.462V16.5H27.245a3.885,3.885,0,0,1,3.862,3.862v9.781a3.812,3.812,0,0,1-.3,1.466l3.1,3.1V28.4h1.039a2.454,2.454,0,0,0,2.462-2.462V15.462A2.454,2.454,0,0,0,34.947,13Zm-7,4.9A2.454,2.454,0,0,0,8,20.363v9.781a2.454,2.454,0,0,0,2.462,2.462H11.5v6.3l6.3-6.3h9.442a2.454,2.454,0,0,0,2.462-2.462V20.363A2.454,2.454,0,0,0,27.245,17.9Zm3.49,5.952a1.4,1.4,0,1,1-1.4,1.4A1.4,1.4,0,0,1,13.952,23.853Zm4.9,0a1.4,1.4,0,1,1-1.4,1.4A1.4,1.4,0,0,1,18.853,23.853Zm4.9,0a1.4,1.4,0,1,1-1.4,1.4A1.4,1.4,0,0,1,23.755,23.853Z" transform="translate(-8 -13)" fill="#219ebc"/>
</svg>
