<svg xmlns="http://www.w3.org/2000/svg" width="21.311" height="19.012" viewBox="0 0 21.311 19.012">
  <g id="piled-files" transform="translate(0 -26.238)" style="isolation: isolate">
    <path id="Path_7349" data-name="Path 7349" d="M0,333.1a.792.792,0,0,0,.589.732l8.031,2.128a2.279,2.279,0,0,0,1.321-.048l10.835-3.728a.793.793,0,0,0-.084-1.524l-1.383-.31-8.9,3.062a3.709,3.709,0,0,1-2.158.078L1.925,331.81l-1.4.5A.793.793,0,0,0,0,333.1Z" transform="translate(0 -290.781)" fill="#219ebc"/>
    <path id="Path_7350" data-name="Path 7350" d="M0,245.052a.793.793,0,0,0,.589.732l8.03,2.128a2.269,2.269,0,0,0,1.321-.048l10.835-3.728a.793.793,0,0,0-.084-1.524l-1.383-.31-8.9,3.062a3.717,3.717,0,0,1-2.158.078l-6.326-1.676-1.4.5A.793.793,0,0,0,0,245.052Z" transform="translate(0 -206.596)" fill="#219ebc"/>
    <path id="Path_7351" data-name="Path 7351" d="M10.41,157.323a3.716,3.716,0,0,1-2.158.078l-6.326-1.676-1.4.5a.793.793,0,0,0,.066,1.513l8.03,2.128a2.278,2.278,0,0,0,1.321-.048l10.835-3.728a.793.793,0,0,0-.084-1.524l-1.383-.31Z" transform="translate(0 -122.413)" fill="#219ebc"/>
    <path id="Path_7352" data-name="Path 7352" d="M.59,31.471,8.62,33.6a2.278,2.278,0,0,0,1.321-.048l10.835-3.728a.793.793,0,0,0-.084-1.524l-8.947-2.007a2.276,2.276,0,0,0-1.268.079L.524,29.959A.793.793,0,0,0,.59,31.471Z" fill="#219ebc"/>
  </g>
</svg>
