<svg xmlns="http://www.w3.org/2000/svg" width="25.469" height="21.434" viewBox="0 0 25.469 21.434">
  <g id="multiple-users-silhouette" transform="translate(0 -6.348)" style="isolation: isolate">
    <path id="Path_7353" data-name="Path 7353" d="M15.37,10.027a4.628,4.628,0,0,1,2.154,3.438,3.734,3.734,0,1,0-2.154-3.438Zm-2.447,7.648A3.735,3.735,0,1,0,9.187,13.94,3.735,3.735,0,0,0,12.923,17.675Zm1.584.255h-3.17a4.788,4.788,0,0,0-4.783,4.783v3.876l.01.061.267.084a21.771,21.771,0,0,0,6.5,1.049,13.35,13.35,0,0,0,5.678-1.066l.25-.126h.027V22.713A4.787,4.787,0,0,0,14.507,17.93Zm6.18-3.856H17.542a4.6,4.6,0,0,1-1.421,3.206,5.683,5.683,0,0,1,4.059,5.438v1.194a12.871,12.871,0,0,0,5.013-1.053l.25-.127h.027V18.856A4.788,4.788,0,0,0,20.687,14.073ZM6.368,13.819a3.711,3.711,0,0,0,1.987-.577,4.623,4.623,0,0,1,1.738-2.948c0-.07.01-.139.01-.21a3.735,3.735,0,1,0-3.735,3.735ZM9.723,17.28A4.606,4.606,0,0,1,8.3,14.091c-.117-.009-.232-.018-.351-.018H4.783A4.788,4.788,0,0,0,0,18.856v3.877l.01.06.267.084a22.424,22.424,0,0,0,5.386,1.012V22.718A5.684,5.684,0,0,1,9.723,17.28Z" fill="#219ebc"/>
  </g>
</svg>
