<svg xmlns="http://www.w3.org/2000/svg" width="27.464" height="20.386" viewBox="0 0 27.464 20.386">
  <g id="noun_friends_3460541" transform="translate(0 0.01)">
    <path id="Path_7350" data-name="Path 7350" d="M24,34.387h-.027a57.342,57.342,0,0,0-1.956-6.149c-.305-.735-1.474-1.059-2.984-1.141l-.644-.034a5.737,5.737,0,0,0,.546-1.1c.177-.024.36-.04.555-.052l.772-.046a5.844,5.844,0,0,0,7.5,0l.476.021c1.147.064,2.029.305,2.264.864a63.93,63.93,0,0,1,1.965,6.5A22.773,22.773,0,0,1,24,34.387Zm0-9.319a4.239,4.239,0,1,1,4.229-4.239A4.239,4.239,0,0,1,24,25.067ZM13.462,27.6a4.248,4.248,0,1,1,3-1.257,4.272,4.272,0,0,1-3,1.257Zm0,2.185a5.8,5.8,0,0,0,3.744-1.373l.476.024c1.144.064,2.026.305,2.261.867a62.279,62.279,0,0,1,1.977,6.536,22.958,22.958,0,0,1-8.465,1.135A39.594,39.594,0,0,1,5,36.129a45.339,45.339,0,0,1,1.694-6.811c.235-.558,1.117-.8,2.261-.867l.763-.04a5.8,5.8,0,0,0,3.744,1.37Z" transform="translate(-5 -16.6)" fill="#219ebc" fill-rule="evenodd"/>
  </g>
</svg>
