<svg xmlns="http://www.w3.org/2000/svg" width="31.276" height="32.287" viewBox="0 0 31.276 32.287">
  <g id="castle" transform="translate(-8.016)">
    <path id="Path_4698" data-name="Path 4698" d="M38.819,23.759H37.27V17.122h.538a.473.473,0,0,0,.423-.684L34.237,8.449V7.337l2.772-1.386a.473.473,0,0,0,0-.846L33.976,3.588h0a.472.472,0,0,0-.684.423V8.449L29.3,16.437a.473.473,0,0,0,.423.684h.538V18.7H28.709a.473.473,0,0,0-.473.473V20.22H27.16V13.583H27.7a.473.473,0,0,0,.423-.684L24.127,4.911V3.8L26.9,2.412a.473.473,0,0,0,0-.846L23.866.05h0a.472.472,0,0,0-.684.423V4.911L19.187,12.9a.473.473,0,0,0,.423.684h.538V20.22H19.072V19.176A.473.473,0,0,0,18.6,18.7H17.05V17.122h.538a.473.473,0,0,0,.423-.684L14.017,8.449V7.337l2.772-1.386a.473.473,0,0,0,0-.846L13.755,3.588h0a.472.472,0,0,0-.684.423V8.449L9.077,16.437a.473.473,0,0,0,.423.684h.538v6.637H8.489a.473.473,0,0,0-.473.473v7.583a.473.473,0,0,0,.473.473H20.115a.473.473,0,0,0,.473-.473V28.275a3.066,3.066,0,1,1,6.131,0v3.539a.473.473,0,0,0,.473.473H38.819a.473.473,0,0,0,.473-.473V24.231A.473.473,0,0,0,38.819,23.759ZM34.237,6.279v-1.5l1.5.751Zm-.473,3.339,3.279,6.557H30.485Zm2.56,7.5v8.153H35.248V24.232a.473.473,0,0,0-.473-.473H32.753a.473.473,0,0,0-.473.473v1.044H31.2V17.122ZM24.127,2.741v-1.5l1.5.751ZM23.654,6.08l3.279,6.558H20.375Zm2.56,7.5V18.7H24.665a.473.473,0,0,0-.473.473V20.22H23.116V19.176a.473.473,0,0,0-.473-.473H21.094v-5.12Zm-12.2-7.3v-1.5l1.5.751Zm-.473,3.339,3.279,6.557H10.265Zm2.56,7.5v8.153H15.028V24.232a.473.473,0,0,0-.473-.473H12.533a.473.473,0,0,0-.473.473v1.044H10.984V17.122ZM8.962,24.7h1.076v1.044a.473.473,0,0,0,.473.473h2.022a.473.473,0,0,0,.473-.473V24.7h1.076v1.044a.473.473,0,0,0,.473.473H16.1v5.12H8.962Zm14.692-.44a4.016,4.016,0,0,0-4.011,4.011v3.066H17.05V19.649h1.076v1.044a.473.473,0,0,0,.473.473h2.022a.473.473,0,0,0,.473-.473V19.649H22.17v1.044a.473.473,0,0,0,.473.473h2.022a.473.473,0,0,0,.473-.473V19.649h1.076v1.044a.473.473,0,0,0,.473.473h2.022a.473.473,0,0,0,.473-.473V19.649h1.076V31.341H27.665V28.275a4.016,4.016,0,0,0-4.011-4.011Zm14.692,7.077H31.2v-5.12h1.549a.473.473,0,0,0,.473-.473V24.7H34.3v1.044a.473.473,0,0,0,.473.473H36.8a.473.473,0,0,0,.473-.473V24.7h1.076v6.637Z" transform="translate(0 0)" fill="#ffb703"/>
    <path id="Path_4699" data-name="Path 4699" d="M73.629,291.549a1.484,1.484,0,1,0-1.484-1.484A1.486,1.486,0,0,0,73.629,291.549Zm0-2.022a.538.538,0,1,1-.538.538A.539.539,0,0,1,73.629,289.527Z" transform="translate(-60.085 -270.383)" fill="#ffb703"/>
    <path id="Path_4700" data-name="Path 4700" d="M233.952,235.436a1.484,1.484,0,1,0-1.484-1.484A1.486,1.486,0,0,0,233.952,235.436Zm0-2.022a.538.538,0,1,1-.538.538.539.539,0,0,1,.538-.538Z" transform="translate(-210.298 -217.809)" fill="#ffb703"/>
    <path id="Path_4701" data-name="Path 4701" d="M394.275,291.549a1.484,1.484,0,1,0-1.484-1.484A1.486,1.486,0,0,0,394.275,291.549Zm0-2.022a.538.538,0,1,1-.538.538A.539.539,0,0,1,394.275,289.527Z" transform="translate(-360.511 -270.383)" fill="#ffb703"/>
  </g>
</svg>
