<svg xmlns="http://www.w3.org/2000/svg" width="34.09" height="46.439" viewBox="0 0 34.09 46.439">
  <g id="badge-with-a-star" transform="translate(-124.984 0)" style="isolation: isolate">
    <g id="Group_5" data-name="Group 5" transform="translate(124.984 0)">
      <path id="Path_3" data-name="Path 3" d="M264.98,608.277h-.089l-1.956-.074-1.452,1.314a2.468,2.468,0,0,1-1.655.637,2.42,2.42,0,0,1-.934-.183l-1.813-.741-1.813.741a2.42,2.42,0,0,1-.934.183,2.468,2.468,0,0,1-1.655-.637l-1.452-1.314-1.956.074h-.089A2.46,2.46,0,0,1,247,606.958l-.914-1.734-.074-.025v15.3a1.233,1.233,0,0,0,1.788,1.1l8.734-4.387a1.256,1.256,0,0,1,1.112,0l8.72,4.392a1.233,1.233,0,0,0,1.788-1.1V605.2l-.074.025-.914,1.734A2.46,2.46,0,0,1,264.98,608.277Z" transform="translate(-240.031 -575.301)" fill="#70e098"/>
      <path id="Path_4" data-name="Path 4" d="M158.885,17.469a1.237,1.237,0,0,0,0-1.314l-1.042-1.66a1.24,1.24,0,0,1-.163-.914l.415-1.917a1.235,1.235,0,0,0-.45-1.235l-1.546-1.2a1.238,1.238,0,0,1-.464-.805l-.272-1.942a1.243,1.243,0,0,0-.845-1.008l-1.862-.6a1.236,1.236,0,0,1-.711-.6l-.914-1.734a1.235,1.235,0,0,0-1.092-.657h-.044l-1.956.074h-.044a1.231,1.231,0,0,1-.83-.321L145.611.321a1.249,1.249,0,0,0-.83-.321,1.165,1.165,0,0,0-.464.094L142.5.835a1.257,1.257,0,0,1-.464.094,1.165,1.165,0,0,1-.464-.094L139.762.094A1.3,1.3,0,0,0,139.3,0a1.225,1.225,0,0,0-.83.321l-1.452,1.314a1.231,1.231,0,0,1-.83.321h-.044l-1.956-.074h-.044a1.235,1.235,0,0,0-1.092.657l-.914,1.734a1.219,1.219,0,0,1-.711.6l-1.862.6a1.237,1.237,0,0,0-.845,1.008l-.272,1.942a1.238,1.238,0,0,1-.464.805l-1.566,1.2a1.235,1.235,0,0,0-.45,1.235l.415,1.917a1.213,1.213,0,0,1-.163.914l-1.042,1.66a1.237,1.237,0,0,0,0,1.314l1.042,1.66a1.24,1.24,0,0,1,.163.914l-.415,1.917a1.235,1.235,0,0,0,.45,1.235l1.546,1.2a1.238,1.238,0,0,1,.464.805l.272,1.942a1.243,1.243,0,0,0,.845,1.008l1.413.454.454.148a1.236,1.236,0,0,1,.711.6l.914,1.734a1.235,1.235,0,0,0,1.092.657h.044l1.956-.074h.044a1.231,1.231,0,0,1,.83.321l1.452,1.314a1.249,1.249,0,0,0,.83.321,1.165,1.165,0,0,0,.464-.094l1.813-.741a1.258,1.258,0,0,1,.464-.094,1.166,1.166,0,0,1,.464.094l1.813.741a1.3,1.3,0,0,0,.464.094,1.225,1.225,0,0,0,.83-.321l1.452-1.314a1.231,1.231,0,0,1,.83-.321h.044l1.956.074h.044a1.235,1.235,0,0,0,1.092-.657l.914-1.734a1.219,1.219,0,0,1,.711-.6l.454-.148,1.413-.454a1.237,1.237,0,0,0,.845-1.008l.272-1.942a1.238,1.238,0,0,1,.464-.805l1.546-1.2a1.235,1.235,0,0,0,.45-1.235l-.415-1.917a1.214,1.214,0,0,1,.163-.914Zm-4.906,4.392a13.429,13.429,0,0,1-.87,1.7,12.966,12.966,0,0,1-20.245,2.421,12.985,12.985,0,0,1-1.907-2.421,12.507,12.507,0,0,1-.87-1.7,12.963,12.963,0,1,1,23.891,0Z" transform="translate(-124.984 0)" fill="#70e098"/>
      <path id="Path_5" data-name="Path 5" d="M249,107.8a11.487,11.487,0,1,0,11.486,11.486A11.486,11.486,0,0,0,249,107.8Zm5.113,16.807a1.233,1.233,0,0,1-1.818,1.329l-3.3-1.867-3.3,1.867a1.236,1.236,0,0,1-1.818-1.329l.79-3.725-2.579-2.327-.287-.262a1.237,1.237,0,0,1,.677-2.144l3.755-.459,1.635-3.5a1.236,1.236,0,0,1,2.238,0l1.635,3.5,3.755.459a1.235,1.235,0,0,1,.677,2.144l-.287.262-2.579,2.327Z" transform="translate(-231.95 -102.474)" fill="#70e098"/>
    </g>
  </g>
</svg>
