<svg id="badge-with-a-star" xmlns="http://www.w3.org/2000/svg" width="23.701" height="32.287" viewBox="0 0 23.701 32.287">
  <g id="Group_5" data-name="Group 5" transform="translate(0 0)">
    <path id="Path_3" data-name="Path 3" d="M259.2,607.339h-.062l-1.36-.052-1.01.914a1.716,1.716,0,0,1-1.151.443,1.682,1.682,0,0,1-.649-.127L253.707,608l-1.261.515a1.682,1.682,0,0,1-.649.127,1.715,1.715,0,0,1-1.151-.443l-1.01-.914-1.36.052h-.062a1.71,1.71,0,0,1-1.518-.917l-.635-1.206-.052-.017v10.637a.857.857,0,0,0,1.243.766l6.073-3.05a.873.873,0,0,1,.773,0l6.062,3.053a.857.857,0,0,0,1.243-.766V605.2l-.052.017-.635,1.206A1.71,1.71,0,0,1,259.2,607.339Z" transform="translate(-241.853 -584.412)" fill="#ffb703"/>
    <path id="Path_4" data-name="Path 4" d="M148.554,12.145a.86.86,0,0,0,0-.914l-.725-1.154a.862.862,0,0,1-.113-.635L148,8.109a.859.859,0,0,0-.313-.859l-1.075-.835a.861.861,0,0,1-.323-.56l-.189-1.35a.864.864,0,0,0-.587-.7l-1.295-.419a.86.86,0,0,1-.495-.416l-.635-1.206a.859.859,0,0,0-.759-.457H142.3l-1.36.052h-.031a.856.856,0,0,1-.577-.223l-1.01-.914A.868.868,0,0,0,138.748,0a.81.81,0,0,0-.323.065L137.164.58a.874.874,0,0,1-.323.065.81.81,0,0,1-.323-.065L135.258.065A.9.9,0,0,0,134.935,0a.852.852,0,0,0-.577.223l-1.01.914a.856.856,0,0,1-.577.223h-.031l-1.36-.052h-.031a.859.859,0,0,0-.759.457l-.635,1.206a.847.847,0,0,1-.495.416l-1.295.419a.86.86,0,0,0-.587.7l-.189,1.35a.861.861,0,0,1-.323.56l-1.089.835a.859.859,0,0,0-.313.859l.289,1.333a.844.844,0,0,1-.113.635l-.725,1.154a.86.86,0,0,0,0,.914l.725,1.154a.862.862,0,0,1,.113.635l-.289,1.333a.859.859,0,0,0,.313.859l1.075.835a.861.861,0,0,1,.323.56l.189,1.35a.864.864,0,0,0,.587.7l.982.316.316.1a.86.86,0,0,1,.495.416l.635,1.206a.859.859,0,0,0,.759.457h.031l1.36-.052h.031a.856.856,0,0,1,.577.223l1.01.914a.868.868,0,0,0,.577.223.81.81,0,0,0,.323-.065l1.261-.515a.874.874,0,0,1,.323-.065.811.811,0,0,1,.323.065l1.261.515a.9.9,0,0,0,.323.065.852.852,0,0,0,.577-.223l1.01-.914a.856.856,0,0,1,.577-.223h.031l1.36.052h.031a.859.859,0,0,0,.759-.457l.635-1.206a.847.847,0,0,1,.495-.416l.316-.1.982-.316a.86.86,0,0,0,.587-.7l.189-1.35a.861.861,0,0,1,.323-.56l1.075-.835a.859.859,0,0,0,.313-.859l-.289-1.333a.844.844,0,0,1,.113-.635ZM145.143,15.2a9.335,9.335,0,0,1-.6,1.182,9.015,9.015,0,0,1-14.076,1.683,9.028,9.028,0,0,1-1.326-1.683,8.7,8.7,0,0,1-.6-1.182,9.013,9.013,0,1,1,16.61,0Z" transform="translate(-124.984 0)" fill="#ffb703"/>
    <path id="Path_5" data-name="Path 5" d="M245.495,107.8a7.987,7.987,0,1,0,7.986,7.986A7.986,7.986,0,0,0,245.495,107.8Zm3.555,11.685a.857.857,0,0,1-1.264.924l-2.291-1.3-2.294,1.3a.859.859,0,0,1-1.264-.924l.55-2.59-1.793-1.618-.2-.182a.86.86,0,0,1,.471-1.491l2.61-.319,1.137-2.435a.859.859,0,0,1,1.556,0l1.137,2.435,2.61.319a.859.859,0,0,1,.471,1.491l-.2.182-1.793,1.618Z" transform="translate(-233.644 -104.097)" fill="#ffb703"/>
  </g>
</svg>
