<svg xmlns="http://www.w3.org/2000/svg" width="18.927" height="32.287" viewBox="0 0 18.927 32.287">
  <g id="noun_Badge_1841618" transform="translate(-23.03 -3.992)">
    <g id="Group_958" data-name="Group 958" transform="translate(23.03 3.992)">
      <path id="Path_4702" data-name="Path 4702" d="M25.47,956.354a.76.76,0,0,0-.7.7v9.123a.717.717,0,0,0,.439.647l6.437,2.588a1.046,1.046,0,0,0,.175,1.436l-2.511,5.143-5.691.833a.716.716,0,0,0-.555.479.726.726,0,0,0,.171.716l4.123,4.068-.987,5.724a.733.733,0,0,0,.614.822.7.7,0,0,0,.417-.077l5.088-2.708,5.088,2.708a.709.709,0,0,0,.742-.049.725.725,0,0,0,.278-.7l-.976-5.724,4.134-4.068a.726.726,0,0,0,.171-.716.716.716,0,0,0-.555-.479l-5.691-.833-2.522-5.143a1.056,1.056,0,0,0,.164-1.458l6.448-2.566a.719.719,0,0,0,.439-.647v-9.123a.729.729,0,0,0-.7-.7Zm.7,1.4H29.33v9.2L26.172,965.7Zm4.562,0h3.509v9.759l-1.776.7-1.733-.691Zm4.912,0H38.8V965.7l-3.158,1.261Zm-3.158,14.924,2.072,4.265a.711.711,0,0,0,.526.384l4.671.691-3.366,3.311a.722.722,0,0,0-.208.625l.8,4.693-4.167-2.226a.705.705,0,0,0-.658,0l-4.167,2.226.8-4.693a.722.722,0,0,0-.2-.625l-3.377-3.311,4.649-.691a.711.711,0,0,0,.526-.384Z" transform="translate(-23.03 -956.354)" fill="#ffb703"/>
    </g>
  </g>
</svg>
