<svg xmlns="http://www.w3.org/2000/svg" width="50.112" height="49.932" viewBox="0 0 50.112 49.932">
  <g id="Biology" style="isolation: isolate">
    <g id="Group_700" data-name="Group 700" style="mix-blend-mode: luminosity;isolation: isolate">
      <g id="Group_20" data-name="Group 20">
        <g id="Group_19" data-name="Group 19">
          <g id="Group_18" data-name="Group 18">
            <path id="Path_100" data-name="Path 100" d="M292.76,167.916c-.14-3.207-.466-7.152-.665-9.475,2.975.188,8.608.1,12.97-2.627a1.469,1.469,0,1,0-1.553-2.493c-.189.122-.388.232-.586.335l-9.522-9.521c.063-.122.122-.236.19-.354a1.476,1.476,0,0,0-.524-2.009,1.46,1.46,0,0,0-2,.52c-2.484,4.221-2.62,9.529-2.46,12.484-2.29-.2-6.376-.543-9.676-.689-5.172-.233-6.556,3.8-6.647,5.376a1.291,1.291,0,0,0,0,.141l.4,11.2c-3.567-.208-10.714,0-15.124,4.412a6.9,6.9,0,0,0-1.869,3.41,1.467,1.467,0,0,0,2.858.665,5.724,5.724,0,0,1,.219-.685l9.7,9.7a5.011,5.011,0,0,1-.859.3,1.471,1.471,0,0,0-1.058,1.786,1.464,1.464,0,0,0,1.785,1.058,7.4,7.4,0,0,0,3.519-1.946c4.493-4.493,4.628-11.839,4.4-15.333l11,.393c.048,0,.1,0,.141,0C288.956,174.467,292.993,173.089,292.76,167.916Zm.189-22.849,9.05,9.05a14.1,14.1,0,0,1-1.756.632l-7.93-7.93A14.147,14.147,0,0,1,292.949,145.066Zm-.921,2.844,7.118,7.118a19.89,19.89,0,0,1-2.043.345l-5.42-5.42A19.163,19.163,0,0,1,292.028,147.91Zm-.467,3.31,4.275,4.275a28.767,28.767,0,0,1-4.235-.033c-.005-.064-.009-.127-.015-.2A26.762,26.762,0,0,1,291.561,151.221Zm-2.222,9.49-3.2-3.2c1.208.1,2.236.19,2.949.252C289.15,158.474,289.237,159.5,289.339,160.711Zm-4.7-3.324,4.823,4.823c.072.956.146,1.97.213,2.98l-8.016-8.016C282.668,157.242,283.682,157.314,284.638,157.386Zm-5.843-.367c.456.018.917.042,1.387.067l9.574,9.573q.045.713.072,1.383a4.846,4.846,0,0,1-.107,1.348L277.46,157.129A4.871,4.871,0,0,1,278.8,157.019Zm-9.025,30.413a4.018,4.018,0,0,1-.427.369l-10.088-10.088a3.866,3.866,0,0,1,.374-.423,10.231,10.231,0,0,1,.908-.791l10.025,10.026A10.313,10.313,0,0,1,269.771,187.433Zm1.353-1.722-9.772-9.774a11.43,11.43,0,0,1,1.64-.853l8.992,8.991A11.974,11.974,0,0,1,271.124,185.71Zm1.238-2.635-8.371-8.37a16.159,16.159,0,0,1,1.96-.534l3.364,3.361,3.586,3.578A17.807,17.807,0,0,1,272.362,183.075Zm.969-5.405c-.038.717-.112,1.479-.227,2.267l-5.974-5.975c.786-.115,1.549-.188,2.266-.227Zm-.262-3.892.2.015c.052.636.106,1.514.1,2.533L270.74,173.7C271.662,173.691,272.459,173.729,273.069,173.778Zm2.48-4.721,2.242,2.242-2.164-.078Zm3.678,2.291L275.5,167.62l-.1-2.867,6.7,6.7Zm4.3.15-8.181-8.181-.1-2.868L286.4,171.6Zm4.191.048L275.3,159.124a2.718,2.718,0,0,1,1.17-1.6l12.855,12.853A2.64,2.64,0,0,1,287.723,171.546Z" transform="translate(-255.647 -141.568)" fill="#fb8500"/>
          </g>
        </g>
      </g>
      <path id="Path_101" data-name="Path 101" d="M297.365,149.483l-4.416-4.416a14.147,14.147,0,0,0-.635,1.752l3.858,3.857-.689.689-3.455-3.454a19.164,19.164,0,0,0-.344,2.043l2.6,2.6-.695.695-2.034-2.032a26.754,26.754,0,0,0,.025,4.041l-2.5,2.5c-.713-.062-1.741-.15-2.949-.252l1.6,1.6-.69.689-2.41-2.412c-.956-.072-1.97-.144-2.98-.213l4.007,4.008-.694.694-4.789-4.788c-.47-.026-.931-.049-1.387-.067a4.871,4.871,0,0,0-1.335.11l6.128,6.129-.694.694-6.424-6.424a2.718,2.718,0,0,0-1.17,1.6l6.211,6.211-.688.689-5.575-5.575.1,2.868,4.09,4.091-.694.694-3.349-3.348.1,2.867,1.863,1.864-.694.694-1.121-1.121.078,2.164-2.558,2.557c-.61-.048-1.407-.087-2.329-.077l1.2,1.2-.69.69-1.859-1.859c-.717.039-1.48.112-2.266.227l2.878,2.877-.694.694-3.363-3.361a16.157,16.157,0,0,0-1.96.534l4.076,4.075-.69.69-4.386-4.387a11.43,11.43,0,0,0-1.64.853l4.778,4.781-.688.689-4.9-4.907a10.222,10.222,0,0,0-.908.791,3.867,3.867,0,0,0-.374.423l4.939,4.939-.694.694-4.74-4.741a5.741,5.741,0,0,0-.219.685,1.467,1.467,0,0,1-2.858-.665,6.9,6.9,0,0,1,1.869-3.41c4.41-4.412,11.557-4.62,15.124-4.412l-.4-11.2a1.284,1.284,0,0,1,.005-.141c.091-1.576,1.475-5.609,6.647-5.376,3.3.146,7.386.486,9.676.689-.16-2.955-.024-8.263,2.46-12.484a1.46,1.46,0,0,1,2-.52,1.476,1.476,0,0,1,.524,2.009c-.067.117-.127.232-.19.354l4.654,4.654Z" transform="translate(-255.647 -141.568)" fill="#fb8500" style="mix-blend-mode: multiply;isolation: isolate"/>
    </g>
  </g>
</svg>
