<svg xmlns="http://www.w3.org/2000/svg" width="41.123" height="47.976" viewBox="0 0 41.123 47.976">
  <path id="Path_4188" data-name="Path 4188" d="M983.493,3000.037c-3.367-5.244-6.674-10.076-10.167-15.173.111-1.749.045-3.671-.02-5.534-.147-4.257-.3-8.658,1.7-10.41a.987.987,0,0,0-.564-1.725c-1.576-.14-11.152-.149-12.233-.149-.831,0-1.565-.008-2.246-.024a.984.984,0,0,0-.433.089,1.207,1.207,0,0,0-.745.93,1.6,1.6,0,0,0,.724,1.412,2.908,2.908,0,0,1,.259.247c.923,1.608,1.154,14.405,1.064,14.933a20.165,20.165,0,0,1-2.431,3.765c-.323.435-10.452,15.235-11.073,16.708-1.017,2.413-1.413,5.74.524,7.837,1.752,1.9,4.608,2.055,7.384,2.055l22.965-.012h0c3.041,0,6.426-.175,8.114-2.262,3.136-3.876-.19-8.788-2.177-11.723C983.9,3000.653,983.677,3000.323,983.493,3000.037Zm-30.608,9.348a3.7,3.7,0,0,1-.191-3.141c4.188-7.561,6.772-8.731,7.941-8.756,1.5-.031,3.19-.047,5.181-.047,1.826,0,3.667.013,5.448.025,1.494.01,2.915.02,4.259.022.012.02.024.041.037.061.411.63.974,1.352,1.625,2.188,2.04,2.617,4.835,6.2,4.335,8.968-.31,1.714-1.652,2.264-5.525,2.264-.442,0-16.487.013-17.2.049-.688.033-1.4.068-2.051.068a9.7,9.7,0,0,1-1.717-.124A3.119,3.119,0,0,1,952.886,3009.385Z" transform="translate(-946.479 -2967.022)" fill="#fb8500"/>
</svg>
