<svg xmlns="http://www.w3.org/2000/svg" width="55.692" height="50" viewBox="0 0 55.692 50">
  <g id="physics_icon" data-name="physics icon" style="isolation: isolate">
    <g id="atom-logo" style="isolation: isolate">
      <g id="Group_12" data-name="Group 12">
        <path id="Path_93" data-name="Path 93" d="M258.516,252.833a4.839,4.839,0,1,0,4.754,4.839A4.84,4.84,0,0,0,258.516,252.833Z" transform="translate(-230.67 -232.671)" fill="#fb8500"/>
        <path id="Path_94" data-name="Path 94" d="M46.786,46.879A45.851,45.851,0,0,0,34.76,44.043a53.759,53.759,0,0,0-3.842-4.613c2.956-2.493,5.614-3.785,7.457-3.785a2.571,2.571,0,0,1,1.34.325c1.5.883,2.067,3.914,1.491,7.924a42.64,42.64,0,0,1,4.235,1.2c.024-.148.047-.295.069-.441.91-6.129-.361-10.548-3.579-12.442a6.905,6.905,0,0,0-3.555-.929c-3.116,0-6.8,1.831-10.529,5.028-3.724-3.2-7.412-5.028-10.529-5.028a6.9,6.9,0,0,0-3.555.929c-3.218,1.894-4.489,6.313-3.58,12.442q.033.22.069.441a42.732,42.732,0,0,1,4.235-1.2c-.576-4.01-.008-7.042,1.491-7.924a2.571,2.571,0,0,1,1.339-.325c1.843,0,4.5,1.292,7.457,3.785a53.752,53.752,0,0,0-3.842,4.613A45.87,45.87,0,0,0,8.906,46.879C3.163,49.2,0,52.542,0,56.276s3.163,7.071,8.906,9.4A45.873,45.873,0,0,0,20.932,68.51a53.7,53.7,0,0,0,3.842,4.613c-2.956,2.493-5.614,3.785-7.457,3.785a2.572,2.572,0,0,1-1.339-.325c-1.5-.883-2.067-3.914-1.491-7.924a42.7,42.7,0,0,1-4.235-1.2c-.024.147-.047.295-.069.441-.909,6.129.362,10.548,3.58,12.442a6.9,6.9,0,0,0,3.555.929c3.117,0,6.8-1.831,10.529-5.028,3.725,3.2,7.413,5.028,10.529,5.028a6.9,6.9,0,0,0,3.555-.929c3.218-1.894,4.489-6.313,3.579-12.442-.021-.146-.045-.294-.069-.441a42.71,42.71,0,0,1-4.235,1.2c.576,4.011.008,7.042-1.491,7.924a2.571,2.571,0,0,1-1.34.325c-1.843,0-4.5-1.292-7.457-3.785A53.811,53.811,0,0,0,34.76,68.51a45.859,45.859,0,0,0,12.026-2.837c5.743-2.325,8.906-5.663,8.906-9.4S52.529,49.2,46.786,46.879Zm-18.94-4.336q.507.545,1.017,1.133-.507-.008-1.017-.01t-1.017.01Q27.338,43.09,27.846,42.543ZM13.761,56.276c-.692,1.55-1.3,3.09-1.817,4.6a34.606,34.606,0,0,0,4.2,1.214q.11-.316.225-.634.342.609.7,1.217.281.478.568.946a36.931,36.931,0,0,1-7.089-2c-3.81-1.543-6.178-3.592-6.178-5.348,0-2.536,4.87-5.81,13.274-7.357q-.29.475-.576.96-.357.607-.7,1.217-.115-.318-.225-.634a34.623,34.623,0,0,0-4.2,1.214C12.461,53.186,13.069,54.726,13.761,56.276ZM27.846,70.009q-.506-.545-1.017-1.133.507.008,1.017.01t1.017-.01Q28.354,69.462,27.846,70.009Zm7.016-9.552q-1.22,2.072-2.491,3.894c-1.439.106-2.949.165-4.525.166h0c-1.537,0-3.052-.061-4.528-.172q-1.264-1.82-2.488-3.888c-.818-1.39-1.569-2.789-2.25-4.182.681-1.393,1.432-2.792,2.25-4.182s1.647-2.679,2.491-3.894c1.44-.106,2.949-.164,4.525-.167,1.538,0,3.052.061,4.528.172q1.265,1.82,2.488,3.889c.818,1.39,1.57,2.789,2.25,4.182C36.432,57.669,35.68,59.067,34.862,60.457Zm3.188,3.176q.29-.475.576-.959.357-.607.7-1.217c.077.212.152.423.225.634a34.569,34.569,0,0,0,4.2-1.214c-.517-1.511-1.125-3.051-1.817-4.6.692-1.55,1.3-3.09,1.817-4.6a34.6,34.6,0,0,0-4.2-1.214q-.11.316-.225.634-.342-.609-.7-1.217-.281-.478-.568-.946a36.965,36.965,0,0,1,7.089,2c3.81,1.543,6.177,3.592,6.177,5.348C51.324,58.812,46.454,62.086,38.05,63.633Z" transform="translate(0 -31.276)" fill="#fb8500"/>
      </g>
    </g>
  </g>
</svg>
