<svg xmlns="http://www.w3.org/2000/svg" width="39.363" height="49.632" viewBox="0 0 39.363 49.632">
  <g id="Group_972" data-name="Group 972" transform="translate(-9 -3)" style="isolation: isolate">
    <path id="Path_4698" data-name="Path 4698" d="M41.711,27.557h-.856A.856.856,0,0,1,40,26.7V19.856A.856.856,0,0,1,40.856,19h.856a4.279,4.279,0,0,1,0,8.557Zm0-1.711,0-5.134v5.134a2.567,2.567,0,0,0,0-5.134Z" transform="translate(-4.473 -2.308)"/>
    <path id="Path_4699" data-name="Path 4699" d="M14.134,27.557h-.856a4.279,4.279,0,0,1,0-8.557h.856a.856.856,0,0,1,.856.856V26.7A.856.856,0,0,1,14.134,27.557Zm-.856-6.846a2.567,2.567,0,1,0,0,5.134Z" transform="translate(0 -2.308)"/>
    <path id="Path_4700" data-name="Path 4700" d="M25.98,35.265a11.872,11.872,0,0,1-4.612-.924A11.64,11.64,0,0,1,18.544,32.7l-.086-.06a11.4,11.4,0,0,1-1.711-1.711A11.98,11.98,0,0,1,14,23.285V14.727a.856.856,0,0,1,.856-.856H25.278a5.845,5.845,0,0,0,5.836-5.836.856.856,0,1,1,1.711,0V9.593a4.164,4.164,0,0,0,.573,2.131A4.279,4.279,0,0,0,37.1,13.872a.856.856,0,0,1,.856.856v8.557a11.977,11.977,0,0,1-2.755,7.65,11.724,11.724,0,0,1-1.711,1.711l-.086.06A11.982,11.982,0,0,1,25.98,35.265Zm-6.512-4.03.068.051a10.716,10.716,0,0,0,2.482,1.48,10.416,10.416,0,0,0,7.924,0,10.716,10.716,0,0,0,2.482-1.48l.068-.051a10.675,10.675,0,0,0,1.395-1.386,10.34,10.34,0,0,0,2.362-6.563V15.523a5.992,5.992,0,0,1-4.33-2.935c-.094-.171-.188-.342-.265-.513a7.088,7.088,0,0,1-.436.616,7.464,7.464,0,0,1-5.939,2.892H15.711v7.7A10.328,10.328,0,0,0,19.468,31.234Z" transform="translate(-0.721 -0.603)"/>
    <path id="Path_4701" data-name="Path 4701" d="M24.846,14.98H15.279A4.279,4.279,0,0,1,11,10.7V3.856A.856.856,0,0,1,11.856,3H29.073a3.32,3.32,0,0,1,3.32,3.32h0V7.433A7.548,7.548,0,0,1,24.846,14.98ZM12.711,4.711V10.7a2.567,2.567,0,0,0,2.567,2.567h9.567a5.845,5.845,0,0,0,5.836-5.836V6.32a1.609,1.609,0,0,0-1.609-1.609H12.711Z" transform="translate(-0.289 0)"/>
    <path id="Path_4702" data-name="Path 4702" d="M41.7,15.269H39.99a5.991,5.991,0,0,1-5.186-3,5.92,5.92,0,0,1-.8-3V5.856A.856.856,0,0,1,34.856,5h2.567a5.134,5.134,0,0,1,5.134,5.134v4.279A.856.856,0,0,1,41.7,15.269Zm-5.99-8.557V9.279a4.164,4.164,0,0,0,.573,2.131,4.279,4.279,0,0,0,3.705,2.148h.856V10.134a3.423,3.423,0,0,0-3.423-3.423Z" transform="translate(-3.607 -0.289)"/>
    <path id="Path_4703" data-name="Path 4703" d="M35.114,58.836H24.846a.856.856,0,0,1-.856-.856V51.99H18.856A.856.856,0,0,1,18,51.134V46.856A.856.856,0,0,1,18.856,46H35.114a.856.856,0,0,1,.856.856V57.98A.856.856,0,0,1,35.114,58.836ZM25.7,57.124h8.557V47.711H19.711v2.567h5.134a.856.856,0,0,1,.856.856Z" transform="translate(-1.299 -6.204)"/>
    <path id="Path_4704" data-name="Path 4704" d="M52.7,43.557H45.856A.856.856,0,0,1,45,42.7V39.279a4.279,4.279,0,1,1,8.557,0V42.7A.856.856,0,0,1,52.7,43.557Zm-5.99-1.711h5.134V39.279a2.567,2.567,0,1,0-5.134,0Z" transform="translate(-5.194 -4.617)"/>
    <path id="Path_4705" data-name="Path 4705" d="M49.279,58.4A4.279,4.279,0,0,1,45,54.124V43.856A.856.856,0,0,1,45.856,43H52.7a.856.856,0,0,1,.856.856V54.124A4.279,4.279,0,0,1,49.279,58.4ZM46.711,44.711v9.413a2.567,2.567,0,1,0,5.134,0V44.711Z" transform="translate(-5.194 -5.771)"/>
    <path id="Path_4706" data-name="Path 4706" d="M29.279,59.557H25.856A.856.856,0,0,1,25,58.7V51.856A.856.856,0,0,1,25.856,51h3.423a4.279,4.279,0,1,1,0,8.557Zm-2.567-1.711h2.567a2.567,2.567,0,0,0,0-5.134H26.711Z" transform="translate(-2.308 -6.925)"/>
    <path id="Path_4707" data-name="Path 4707" d="M35.114,58.836H24.846a.856.856,0,0,1-.856-.856V51.99H18.856A.856.856,0,0,1,18,51.134V46.856A.856.856,0,0,1,18.856,46H35.114a.856.856,0,0,1,.856.856V57.98A.856.856,0,0,1,35.114,58.836ZM25.7,57.124h8.557V47.711H19.711v2.567h5.134a.856.856,0,0,1,.856.856Z" transform="translate(-1.299 -6.204)"/>
    <path id="Path_4708" data-name="Path 4708" d="M44.085,57.537H33.816a.856.856,0,0,1-.856-.856V46.413H18.413V48.98h5.134a.856.856,0,0,1,.856.856v6.846a.856.856,0,0,1-.856.856H16.7a7.7,7.7,0,0,1-7.7-7.7V48.124A11.124,11.124,0,0,1,20.124,37h.856a.865.865,0,0,1,.325.068,10.416,10.416,0,0,0,7.924,0A.849.849,0,0,1,29.537,37h.856A11.124,11.124,0,0,1,41.517,48.124v5.134a2.567,2.567,0,0,0,2.567,2.567.856.856,0,1,1,0,1.711Zm-9.413-1.711h5.99a4.278,4.278,0,0,1-.856-2.567V48.124a9.413,9.413,0,0,0-9.413-9.413h-.676a12.07,12.07,0,0,1-8.917,0h-.676a9.413,9.413,0,0,0-9.413,9.413h0v1.711a5.99,5.99,0,0,0,5.99,5.99h5.99V50.692H17.557a.856.856,0,0,1-.856-.856V45.557a.856.856,0,0,1,.856-.856H33.816a.856.856,0,0,1,.856.856Z" transform="translate(0 -4.906)"/>
    <path id="Path_4709" data-name="Path 4709" d="M49.856,33.816A.856.856,0,0,1,49,32.96V9.856a.856.856,0,0,1,1.711,0v23.1A.856.856,0,0,1,49.856,33.816Z" transform="translate(-5.771 -0.866)"/>
    <path id="Path_4710" data-name="Path 4710" d="M19.856,43.846A.863.863,0,0,1,19,42.99V37.967a.855.855,0,0,1,.736-.856A13.8,13.8,0,0,1,21.567,37h.856a.865.865,0,0,1,.325.068,10.623,10.623,0,0,0,2.978.744.854.854,0,0,1,.428,1.532l-5.785,4.33A.855.855,0,0,1,19.856,43.846Zm.856-5.134v2.567l2.841-2.131a11.741,11.741,0,0,1-1.309-.436H20.711Z" transform="translate(-1.443 -4.905)"/>
    <path id="Path_4711" data-name="Path 4711" d="M34.882,43.846a.855.855,0,0,1-.513-.171l-5.776-4.33a.854.854,0,0,1,.428-1.532A10.624,10.624,0,0,0,32,37.068.858.858,0,0,1,32.315,37h.856A13.789,13.789,0,0,1,35,37.12a.855.855,0,0,1,.736.856V42.99a.863.863,0,0,1-.856.856Zm-3.7-4.7,2.841,2.131V38.711H32.495A11.741,11.741,0,0,1,31.185,39.148Z" transform="translate(-2.778 -4.906)"/>
  </g>
</svg>
