<svg xmlns="http://www.w3.org/2000/svg" width="51.82" height="51.82" viewBox="0 0 51.82 51.82">
  <g id="teacher_1_" data-name="teacher (1)" transform="translate(0 -0.001)" style="isolation: isolate">
    <path id="Path_4697" data-name="Path 4697" d="M50.3,46.76H48.682V42.206a1.518,1.518,0,0,0-1.518-1.518h-.581A11.656,11.656,0,0,0,35.019,30.364H31.477V28.585a9.656,9.656,0,0,0,3.6-4.923,9.866,9.866,0,0,0,5.512-8.86v-.126q0-.4-.022-.8A7.084,7.084,0,1,0,33.51,2.115a14.625,14.625,0,0,0-18.1,2.352A14.8,14.8,0,0,0,11.234,14.8a9.866,9.866,0,0,0,5.512,8.859,9.656,9.656,0,0,0,3.6,4.923v1.779H14.777a11.536,11.536,0,0,0-6.1,1.725,5,5,0,0,0-1.32-.36L3.013,7.081a1.518,1.518,0,0,0-2.99.527L4.369,32.256a5.066,5.066,0,0,0-2.65,5.371l.338,1.915a5.029,5.029,0,0,0,1.081,2.342V46.76H1.518a1.518,1.518,0,0,0,0,3.036h19.5a5.358,5.358,0,0,1,3.813,1.579l0,0a1.517,1.517,0,0,0,2.143,0A5.358,5.358,0,0,1,30.8,49.8H50.3a1.518,1.518,0,0,0,0-3.036ZM38.561,3.037a4.048,4.048,0,0,1,1.52,7.8,14.577,14.577,0,0,0-3.9-6.642c-.074-.072-.148-.143-.223-.213a4.024,4.024,0,0,1,2.6-.945ZM17.813,14.17a1.518,1.518,0,0,0-1.518,1.518v3.973A6.834,6.834,0,0,1,14.271,14.8,11.763,11.763,0,0,1,25.67,3.04,11.639,11.639,0,0,1,37.549,14.677V14.8a6.834,6.834,0,0,1-2.024,4.859V15.689a1.518,1.518,0,0,0-1.518-1.518H32.461a5.774,5.774,0,0,1-5.193-3.209,1.518,1.518,0,0,0-2.716,0,5.774,5.774,0,0,1-5.193,3.209Zm1.518,6.579V17.207h.028a8.79,8.79,0,0,0,6.551-2.9,8.79,8.79,0,0,0,6.551,2.9h.028v3.542a6.579,6.579,0,0,1-13.157,0ZM29.958,33.4H30.2a4.555,4.555,0,0,1-8.589,0h.246a1.518,1.518,0,0,0,1.518-1.518V30.026a9.625,9.625,0,0,0,5.061,0v1.857A1.518,1.518,0,0,0,29.958,33.4ZM5.047,39.014,4.709,37.1a2.024,2.024,0,0,1,1.642-2.345,2.048,2.048,0,0,1,.356-.031A2.026,2.026,0,0,1,8.7,36.4l.338,1.915a2.024,2.024,0,1,1-3.987.7Zm19.345,8.443a8.412,8.412,0,0,0-3.369-.7H6.174V43.724H21.862a2.533,2.533,0,0,1,2.53,2.53ZM25.91,42.44a5.55,5.55,0,0,0-4.048-1.752H11.676a5.03,5.03,0,0,0,.348-2.9l-.338-1.915a5.062,5.062,0,0,0-.593-1.642,8.543,8.543,0,0,1,3.683-.826h3.7a7.592,7.592,0,0,0,14.876,0h1.671a8.616,8.616,0,0,1,8.5,7.287H29.958A5.551,5.551,0,0,0,25.91,42.44ZM45.646,46.76H30.8a8.411,8.411,0,0,0-3.369.7v-1.2a2.533,2.533,0,0,1,2.53-2.53H45.646Z" transform="translate(0)"/>
  </g>
</svg>
