<svg xmlns="http://www.w3.org/2000/svg" width="45.707" height="64.482" viewBox="0 0 45.707 64.482">
  <g id="reading" transform="translate(-72.296)" style="isolation: isolate">
    <g id="Group_966" data-name="Group 966" transform="translate(72.296)">
      <path id="Path_4696" data-name="Path 4696" d="M114.887,42.591V35.878l-2.833,1.1-.008-.019-.068-.123a7.292,7.292,0,0,0-4.818-3.224l-6.817-1.24v-.538a10.406,10.406,0,0,0,5-6.991,4.162,4.162,0,0,0,3.313-4.069V10.516A6.514,6.514,0,0,0,104,4.265l-.519-.519a12.791,12.791,0,0,0-21.835,9.045v7.985a4.162,4.162,0,0,0,3.313,4.069,10.407,10.407,0,0,0,5,6.991v.538L83.14,33.613a7.294,7.294,0,0,0-4.816,3.221l-.062.152-2.849-1.108v6.713A3.12,3.12,0,0,0,72.3,45.707v4.155a3.12,3.12,0,0,0,3.116,3.116v3.827l19.737,7.677,19.737-7.677V52.978A3.12,3.12,0,0,0,118,49.862V45.707A3.12,3.12,0,0,0,114.887,42.591Zm-12.6-7.75,4.5.818a5.2,5.2,0,0,1,3.279,2.094l-10.05,3.908ZM92.121,32.788a10.349,10.349,0,0,0,6.056,0l-3.028,2.271Zm1.447,3.681-2.12,2.119-1.375-4.125.662-.119Zm6-2.124.662.119L98.851,38.59l-2.12-2.119Zm5.973-11.781V18.987a2.06,2.06,0,0,1,0,3.578Zm-20.776,0a2.06,2.06,0,0,1,0-3.578Zm0-6.983v1.186a4.12,4.12,0,0,0-1.039.43V12.791a10.713,10.713,0,0,1,18.289-7.575l.916.917.279.069a4.44,4.44,0,0,1,3.369,4.314V17.2a4.082,4.082,0,0,0-1.039-.43V15.582h-3.294a9.035,9.035,0,0,1-7.194-3.6l-.826-1.1L92.16,12.949A8.937,8.937,0,0,1,85.8,15.582Zm2.078,7.272V17.612a11,11,0,0,0,6.79-3.194l.4-.4a11.128,11.128,0,0,0,8.211,3.646h1.216v5.194a8.31,8.31,0,1,1-16.621,0Zm-3.328,12.8,4.5-.818,2.273,6.82L80.229,37.751A5.2,5.2,0,0,1,83.511,35.658Zm-9.137,14.2V45.707a1.04,1.04,0,0,1,1.039-1.039,3.116,3.116,0,0,1,0,6.233A1.04,1.04,0,0,1,74.374,49.862ZM94.111,61.848,77.49,55.385V52.538a5.184,5.184,0,0,0,0-9.507V38.915l16.621,6.463Zm-3.084-19.9,4.123-4.124,4.123,4.123-4.123,1.6Zm21.782,13.434L96.188,61.847V45.379l16.621-6.463v4.116a5.184,5.184,0,0,0,0,9.507Zm3.116-5.522a1.04,1.04,0,0,1-1.039,1.039,3.116,3.116,0,0,1,0-6.233,1.04,1.04,0,0,1,1.039,1.039Z" transform="translate(-72.296)"/>
    </g>
  </g>
</svg>
